<svg width="628" height="438" viewBox="0 0 628 438" fill="none" xmlns="http://www.w3.org/2000/svg">
<g clip-path="url(#clip0)">
<path d="M27.9724 168.087C28.5729 205.079 42.429 209.084 59.445 205.226C78.8837 200.818 94.8384 187.004 102.702 168.726L108.125 156.121C111.73 147.74 111.852 138.275 108.462 129.805C105.073 121.336 98.4507 114.557 90.0523 110.959H90.0522C85.8937 109.178 81.4243 108.231 76.8992 108.174C72.3741 108.116 67.8819 108.948 63.6791 110.622C59.4763 112.297 55.6452 114.781 52.4045 117.933C49.1638 121.085 46.5771 124.843 44.7919 128.992C27.3413 135.832 23.8948 149.993 27.9724 168.087Z" fill="#3F413F"/>
<path d="M137.387 93.635L142.61 84.8165C143.247 83.7397 143.633 82.5327 143.736 81.2861C143.84 80.0396 143.659 78.7858 143.207 77.6189C142.756 76.452 142.046 75.4022 141.13 74.5483C140.214 73.6945 139.116 73.0587 137.918 72.6886C136.654 72.2981 135.315 72.2146 134.012 72.4452C132.71 72.6757 131.481 73.2136 130.429 74.0141C129.376 74.8145 128.531 75.8543 127.963 77.0468C127.396 78.2393 127.122 79.5499 127.164 80.8694L127.471 90.3486L102.927 157.466L116.311 160.254L137.387 93.635Z" fill="#9F616A"/>
<path d="M8.26 259.09L1.83149 267.076C1.04649 268.052 0.492987 269.191 0.212526 270.411C-0.0679343 271.63 -0.0680767 272.896 0.212109 274.116C0.492294 275.335 1.04553 276.475 1.83032 277.45C2.61511 278.426 3.61107 279.211 4.74348 279.747C5.93873 280.314 7.25229 280.587 8.57471 280.544C9.89713 280.501 11.1901 280.143 12.3459 279.5C13.5016 278.857 14.4867 277.948 15.219 276.849C15.9513 275.749 16.4096 274.491 16.5557 273.179L17.6053 263.753L51.4822 200.809L38.6324 196.147L8.26 259.09Z" fill="#9F616A"/>
<path d="M47.9777 325.531L48.9239 336.872L49.1458 339.518L112.063 333.48C114.232 333.236 116.313 332.485 118.136 331.288C119.959 330.091 121.473 328.481 122.556 326.59C123.638 324.699 124.258 322.58 124.365 320.405C124.472 318.23 124.064 316.06 123.173 314.072L102.882 270.607L95.8726 255.593L65.5002 248.6C40.4547 267.727 62.9886 288.837 91.3401 310.191C92.4499 311.03 93.5713 311.869 94.7044 312.709L47.9777 325.531Z" fill="#3F413F"/>
<path d="M26.7772 364.804C27.5438 364.913 28.3257 364.824 29.0479 364.545C29.7701 364.266 30.4083 363.807 30.9015 363.211L51.4821 338.352L50.3139 326.696L43.2966 322.495C42.7225 322.151 42.0804 321.936 41.4148 321.865C40.7492 321.794 40.076 321.869 39.4421 322.083C38.8082 322.298 38.2287 322.648 37.744 323.109C37.2592 323.569 36.8808 324.13 36.635 324.751L23.2117 358.682C22.961 359.316 22.8575 359.998 22.9088 360.678C22.9601 361.357 23.165 362.016 23.5081 362.605C23.8512 363.194 24.3236 363.698 24.8898 364.079C25.456 364.459 26.1012 364.707 26.7772 364.804Z" fill="#3F413F"/>
<path opacity="0.2" d="M44.4731 323.199L45.6413 337.187L48.9239 336.872L108.559 331.149C110.728 330.905 112.808 330.154 114.631 328.957C116.454 327.759 117.969 326.15 119.051 324.259C120.133 322.368 120.754 320.249 120.861 318.074C120.968 315.899 120.559 313.729 119.668 311.741L102.882 274.243V270.607L95.8726 255.593L65.5002 248.6C40.4547 267.727 62.9886 288.837 91.3401 310.191L91.1999 310.377L44.4731 323.199Z" fill="black"/>
<path d="M20.9365 360.141C21.7031 360.251 22.4849 360.162 23.2071 359.883C23.9293 359.604 24.5676 359.145 25.0608 358.549L45.6414 333.69L44.4732 322.034L37.4559 317.832C36.8818 317.489 36.2397 317.274 35.5741 317.203C34.9085 317.132 34.2353 317.206 33.6014 317.421C32.9675 317.636 32.388 317.985 31.9033 318.446C31.4185 318.907 31.0401 319.467 30.7943 320.089L17.371 354.02C17.1203 354.654 17.0168 355.336 17.0681 356.015C17.1194 356.695 17.3243 357.354 17.6674 357.943C18.0105 358.532 18.4829 359.035 19.0491 359.416C19.6152 359.797 20.2605 360.045 20.9365 360.141Z" fill="#3F413F"/>
<path d="M42.1368 320.868L43.305 334.855L106.223 328.816C108.391 328.572 110.472 327.821 112.295 326.624C114.118 325.428 115.632 323.819 116.715 321.928C117.798 320.037 118.419 317.919 118.527 315.744C118.635 313.569 118.227 311.399 117.337 309.411L100.545 271.912V250.931L59.6594 243.937C33.6283 263.816 58.9914 285.837 88.8636 308.046L42.1368 320.868Z" fill="#3F413F"/>
<path d="M81.8546 156.516C91.532 156.516 99.3771 148.688 99.3771 139.032C99.3771 129.375 91.532 121.547 81.8546 121.547C72.1771 121.547 64.332 129.375 64.332 139.032C64.332 148.688 72.1771 156.516 81.8546 156.516Z" fill="#9F616A"/>
<path d="M58.4912 168.172L83.0228 184.491L104.05 179.828L92.3681 168.172V150.688L73.6774 149.522C73.285 156.504 69.2754 162.893 58.4912 168.172Z" fill="#9F616A"/>
<path d="M54.9867 249.765L100.545 255.593L111.059 206.638C115.943 193.643 113.141 182.161 104.098 171.909C103.752 170.184 102.831 168.626 101.484 167.49C100.138 166.354 98.445 165.707 96.6824 165.653L92.368 165.841C92.8561 181.3 81.4415 177.577 64.332 164.675L62.266 165.294C59.5953 166.093 57.3023 167.826 55.8067 170.174C54.3111 172.522 53.7129 175.329 54.1215 178.081L56.0054 190.769C56.8042 195.8 58.0451 200.75 59.7138 205.563C64.3847 219.492 62.7155 234.238 54.9867 249.765Z" fill="#C83B4C"/>
<path d="M33.9597 197.313L54.9867 204.306L64.3321 170.503L61.1661 169.067C58.5412 167.877 55.5607 167.727 52.8294 168.649C50.0981 169.571 47.8206 171.495 46.4591 174.031L33.9597 197.313Z" fill="#C83B4C"/>
<path d="M95.8726 165.841L107.555 178.662L121.572 156.516L104.049 147.191L95.8726 165.841Z" fill="#C83B4C"/>
<path d="M61.4116 133.786C72.4227 137.929 84.1739 137.5 96.4567 133.786V119.799H61.4116V133.786Z" fill="#3F413F"/>
<path d="M607.912 373.894L595.831 378.916L515.297 269.428L456.909 380.926L441.809 377.912L486.103 224.226H537.444L607.912 373.894Z" fill="#C83B4C"/>
<path d="M624.118 399.436C623.448 399.618 622.749 399.666 622.061 399.578C621.372 399.489 620.708 399.266 620.107 398.92L594.63 384.284C593.943 383.889 593.355 383.341 592.914 382.683C592.472 382.025 592.189 381.275 592.085 380.49C591.981 379.705 592.059 378.907 592.314 378.157C592.569 377.407 592.993 376.726 593.554 376.166L595.831 373.894L607.911 372.89L626.378 390.579C627.05 391.223 627.539 392.032 627.794 392.926C628.05 393.819 628.064 394.764 627.834 395.664C627.604 396.565 627.139 397.388 626.486 398.051C625.834 398.713 625.016 399.191 624.118 399.436Z" fill="#3F413F"/>
<path d="M426.609 403.453C427.279 403.636 427.978 403.684 428.666 403.595C429.355 403.507 430.019 403.284 430.62 402.938L456.097 388.302C456.784 387.907 457.372 387.359 457.813 386.701C458.255 386.043 458.538 385.293 458.642 384.508C458.746 383.723 458.668 382.925 458.413 382.175C458.158 381.425 457.734 380.744 457.173 380.184L454.896 377.912L442.816 376.907L424.349 394.597C423.677 395.241 423.188 396.05 422.933 396.944C422.677 397.837 422.663 398.782 422.893 399.682C423.123 400.583 423.588 401.406 424.241 402.069C424.893 402.731 425.711 403.209 426.609 403.453Z" fill="#3F413F"/>
<path d="M451.876 64.5134L446.842 67.5269L436.412 50.6139C435.771 49.5752 435.39 48.398 435.301 47.1815C435.212 45.9651 435.418 44.7451 435.9 43.6245C436.383 42.5039 437.128 41.5155 438.074 40.7427C439.019 39.9699 440.137 39.4353 441.334 39.184C442.397 38.9606 443.496 38.9667 444.557 39.2019C445.618 39.437 446.616 39.8959 447.485 40.5476C448.354 41.1993 449.073 42.0288 449.594 42.9804C450.115 43.9321 450.426 44.984 450.506 46.0655L451.876 64.5134Z" fill="#BD5D47"/>
<path d="M591.308 196.189L593.396 190.715L612.075 197.571C613.222 197.993 614.251 198.683 615.075 199.584C615.898 200.485 616.493 201.57 616.808 202.749C617.123 203.927 617.15 205.164 616.886 206.355C616.621 207.546 616.074 208.656 615.29 209.591C614.592 210.423 613.725 211.096 612.745 211.566C611.766 212.036 610.697 212.291 609.61 212.315C608.524 212.339 607.445 212.13 606.445 211.704C605.446 211.278 604.55 210.643 603.816 209.842L591.308 196.189Z" fill="#BD5D47"/>
<path d="M512.277 124.782C520.616 124.782 527.377 118.037 527.377 109.715C527.377 101.394 520.616 94.6479 512.277 94.6479C503.937 94.6479 497.176 101.394 497.176 109.715C497.176 118.037 503.937 124.782 512.277 124.782Z" fill="#BD5D47"/>
<path d="M525.364 141.858H504.223V118.755L522.344 116.746L525.364 141.858Z" fill="#BD5D47"/>
<path d="M540.464 230.253H483.083C485.106 198.307 486.709 167.435 483.083 149.894L486.42 133.914C486.882 131.7 488.162 129.741 490.006 128.425C491.85 127.11 494.123 126.536 496.372 126.816L504.223 127.796C509.54 137.123 515.966 137.033 523.35 128.8H532.807C534.068 128.8 535.316 129.051 536.478 129.538C537.641 130.026 538.694 130.739 539.577 131.637C540.459 132.536 541.154 133.601 541.619 134.77C542.084 135.939 542.311 137.19 542.286 138.447C544.749 149.703 545.569 161.254 544.719 172.744L540.464 230.253Z" fill="#141533"/>
<path d="M443.822 64.5132L451.876 60.4956L495.163 131.814L483.083 149.894L443.822 64.5132Z" fill="#141533"/>
<path d="M591.422 199.047L598.304 193.254L561.734 142.122C558.156 137.119 553.224 133.237 547.515 130.931C541.806 128.625 535.557 127.989 529.499 129.099L528.345 129.31L542.173 153.457L560.386 167.216L591.422 199.047Z" fill="#141533"/>
<path d="M529.74 100.821C529.74 100.821 532.562 94.6266 525.225 91.8111C525.225 91.8111 519.018 81.6754 506.603 88.4325C506.603 88.4325 498.138 91.8111 498.138 100.821C498.138 109.83 495.316 111.519 495.316 111.519C495.316 111.519 499.518 107.218 500.647 103.84C501.775 100.461 510.553 99.6944 513.939 103.073C517.325 106.452 525.79 105.888 525.79 105.888L525.225 118.277C525.225 118.277 528.047 110.956 529.176 110.956C530.304 110.956 531.433 100.821 529.74 100.821Z" fill="#3F413F"/>
<path d="M528.346 438C579.374 438 620.741 435.85 620.741 433.198C620.741 430.546 579.374 428.396 528.346 428.396C477.318 428.396 435.951 430.546 435.951 433.198C435.951 435.85 477.318 438 528.346 438Z" fill="#E6E6E6"/>
<path d="M67.0328 435.736C94.0048 435.736 115.87 434.6 115.87 433.198C115.87 431.796 94.0048 430.66 67.0328 430.66C40.0608 430.66 18.1957 431.796 18.1957 433.198C18.1957 434.6 40.0608 435.736 67.0328 435.736Z" fill="#E6E6E6"/>
<path d="M439.982 161.273L143.591 211.959C142.136 212.205 140.689 211.339 139.568 209.551C138.447 207.764 137.743 205.201 137.611 202.425L131.021 62.1383C130.893 59.3615 131.347 56.6005 132.283 54.4612C133.22 52.3219 134.563 50.9789 136.018 50.7268L432.409 0.0409573C433.864 -0.204626 435.311 0.661248 436.432 2.44864C437.553 4.23603 438.257 6.79899 438.389 9.57529L444.979 149.862C445.107 152.639 444.653 155.399 443.717 157.539C442.78 159.678 441.437 161.021 439.982 161.273Z" fill="#FBF8CA"/>
<path d="M215.258 67.5635L217.375 79.3245C217.703 81.1452 217.438 82.6407 216.582 83.8109C215.742 84.9781 214.453 85.7182 212.714 86.0312C210.894 86.3589 209.341 86.105 208.056 85.2694C206.771 84.4339 205.957 83.0647 205.614 81.162L209.797 80.4091C209.927 81.1308 210.174 81.6537 210.537 81.9778C210.897 82.2856 211.356 82.3892 211.914 82.2888C212.422 82.1973 212.786 81.9624 213.006 81.5842C213.226 81.2059 213.28 80.7051 213.167 80.0818L211.05 68.3208L215.258 67.5635ZM225.362 124.118L218.915 125.278L218.431 128.515L214.027 129.308L217.167 110.911L222.039 110.034L231.398 126.181L226.944 126.983L225.362 124.118ZM223.694 121.065L220.416 115.127L219.438 121.831L223.694 121.065ZM239.228 150.631L242.337 167.903L238.129 168.661L236.265 158.302L234.266 169.356L230.871 169.967L225.115 160.284L226.984 170.667L222.776 171.424L219.667 154.152L224.637 153.257L231.637 164.343L234.282 151.521L239.228 150.631Z" fill="#C83B4C"/>
<path d="M235.69 70.9981L236.319 74.492L225.493 76.4406L224.864 72.9468L235.69 70.9981ZM254.183 60.5569L256.3 72.3179C256.628 74.1386 256.364 75.6341 255.507 76.8043C254.667 77.9715 253.378 78.7117 251.639 79.0246C249.819 79.3524 248.266 79.0984 246.981 78.2629C245.696 77.4273 244.882 76.0581 244.54 74.1554L248.722 73.4025C248.852 74.1242 249.099 74.6471 249.462 74.9713C249.822 75.279 250.281 75.3827 250.839 75.2823C251.347 75.1907 251.711 74.9558 251.931 74.5776C252.151 74.1993 252.205 73.6986 252.093 73.0752L249.976 61.3143L254.183 60.5569ZM258.614 70.4789C258.36 69.0682 258.4 67.7826 258.733 66.6219C259.082 65.4582 259.664 64.5067 260.48 63.7673C261.295 63.0278 262.268 62.5562 263.4 62.3525C264.368 62.1783 265.248 62.2231 266.041 62.4868C266.85 62.7476 267.509 63.1625 268.017 63.7313L267.668 61.7876L271.875 61.0302L274.346 74.7596L270.139 75.5169L269.789 73.5732C269.494 74.2867 269.013 74.9067 268.346 75.4333C267.695 75.9569 266.885 76.3057 265.918 76.4799C264.802 76.6807 263.734 76.5767 262.712 76.168C261.687 75.7428 260.808 75.0458 260.075 74.0771C259.355 73.089 258.868 71.8896 258.614 70.4789ZM268.903 68.6522C268.714 67.6024 268.27 66.8272 267.57 66.3266C266.887 65.823 266.127 65.6466 265.29 65.7971C264.454 65.9477 263.795 66.3796 263.313 67.0928C262.846 67.7867 262.706 68.6585 262.895 69.7083C263.084 70.7581 263.522 71.543 264.208 72.0629C264.908 72.5636 265.676 72.7386 266.513 72.588C267.349 72.4374 268 72.007 268.465 71.2967C268.946 70.5835 269.092 69.702 268.903 68.6522ZM282.857 69.1633L284.072 58.8348L288.55 58.0288L286.149 72.635L280.958 73.5695L273.615 60.7171L278.117 59.9066L282.857 69.1633ZM290.715 64.7006C290.461 63.29 290.501 62.0043 290.834 60.8436C291.183 59.68 291.766 58.7284 292.581 57.989C293.396 57.2495 294.37 56.778 295.501 56.5742C296.469 56.4 297.349 56.4448 298.142 56.7086C298.951 56.9694 299.61 57.3842 300.119 57.9531L299.769 56.0093L303.976 55.252L306.447 68.9813L302.24 69.7387L301.89 67.7949C301.595 68.5084 301.114 69.1285 300.447 69.655C299.796 70.1786 298.987 70.5275 298.019 70.7017C296.904 70.9025 295.835 70.7985 294.813 70.3897C293.788 69.9645 292.909 69.2676 292.176 68.2988C291.456 67.3107 290.969 66.1113 290.715 64.7006ZM301.004 62.874C300.815 61.8242 300.371 61.049 299.671 60.5484C298.988 60.0448 298.228 59.8683 297.391 60.0189C296.555 60.1695 295.896 60.6013 295.415 61.3146C294.947 62.0084 294.808 62.8802 294.996 63.93C295.185 64.9798 295.623 65.7647 296.309 66.2847C297.009 66.7853 297.777 66.9603 298.614 66.8097C299.45 66.6592 300.101 66.2287 300.566 65.5185C301.047 64.8053 301.193 63.9238 301.004 62.874ZM315.112 67.6249C313.915 67.8405 312.811 67.8273 311.803 67.5856C310.794 67.3438 309.955 66.9189 309.287 66.311C308.616 65.6867 308.168 64.9376 307.943 64.0637L312.101 63.3152C312.236 63.782 312.527 64.1276 312.973 64.352C313.42 64.5764 313.931 64.6369 314.505 64.5336C315.03 64.4391 315.414 64.2684 315.657 64.0213C315.914 63.7549 316.013 63.4577 315.954 63.1297C315.883 62.736 315.626 62.4858 315.184 62.3792C314.738 62.2562 314.036 62.1625 313.076 62.0982C312.05 62.0458 311.187 61.9555 310.487 61.8276C309.783 61.6832 309.145 61.3832 308.572 60.9276C307.996 60.4555 307.624 59.752 307.456 58.817C307.314 58.0296 307.399 57.2777 307.71 56.5612C308.035 55.8254 308.581 55.1935 309.35 54.6657C310.135 54.1349 311.11 53.7647 312.275 53.555C313.997 53.245 315.427 53.4279 316.565 54.1037C317.719 54.7766 318.497 55.805 318.898 57.1891L315.011 57.8889C314.859 57.425 314.578 57.0861 314.167 56.8722C313.773 56.6554 313.288 56.5986 312.714 56.702C312.222 56.7905 311.862 56.9569 311.635 57.2009C311.405 57.4286 311.32 57.7065 311.379 58.0345C311.45 58.4282 311.708 58.6866 312.154 58.8096C312.615 58.9297 313.307 59.0084 314.228 59.0458C315.292 59.1252 316.168 59.2385 316.855 59.3858C317.539 59.5167 318.17 59.8264 318.75 60.3149C319.342 60.784 319.732 61.4928 319.92 62.4412C320.064 63.245 319.965 64.008 319.621 64.7304C319.29 65.4335 318.731 66.0422 317.943 66.5566C317.171 67.068 316.227 67.4241 315.112 67.6249ZM321.139 59.2497C320.882 57.8227 320.945 56.5244 321.327 55.3548C321.726 54.1823 322.39 53.216 323.32 52.4559C324.266 51.6928 325.412 51.1903 326.757 50.9481C328.48 50.6381 329.996 50.8309 331.307 51.5263C332.634 52.2189 333.625 53.3528 334.281 54.9282L329.803 55.7342C329.237 54.7523 328.413 54.3588 327.33 54.5537C326.559 54.6925 325.999 55.1066 325.649 55.7962C325.296 56.4694 325.219 57.3637 325.42 58.4791C325.621 59.5945 326.006 60.4143 326.574 60.9386C327.14 61.4464 327.808 61.631 328.579 61.4922C329.662 61.2973 330.297 60.641 330.485 59.5233L334.963 58.7173C334.892 60.3897 334.356 61.7901 333.357 62.9183C332.358 64.0465 331.005 64.7641 329.299 65.0712C327.954 65.3133 326.705 65.2418 325.552 64.8566C324.415 64.4685 323.456 63.7945 322.673 62.8346C321.907 61.8718 321.396 60.6768 321.139 59.2497ZM340.257 51.0838C340.613 50.2407 341.122 49.5395 341.783 48.9802C342.441 48.4044 343.222 48.0353 344.124 47.8729L344.925 52.3264L343.769 52.5345C342.719 52.7235 341.973 53.0949 341.531 53.6486C341.086 54.186 340.965 55.0206 341.169 56.1524L342.316 62.525L338.109 63.2823L335.637 49.5529L339.845 48.7956L340.257 51.0838ZM348.021 45.8506C347.282 45.9835 346.637 45.8795 346.085 45.5386C345.546 45.1784 345.219 44.6785 345.103 44.0388C344.985 43.3826 345.118 42.8 345.5 42.2908C345.896 41.7623 346.463 41.4317 347.201 41.2988C347.923 41.1689 348.553 41.284 349.092 41.6442C349.645 41.9851 349.98 42.4836 350.098 43.1397C350.213 43.7794 350.073 44.3635 349.677 44.892C349.294 45.4012 348.742 45.7207 348.021 45.8506ZM350.369 46.9012L352.84 60.6306L348.633 61.3879L346.161 47.6586L350.369 46.9012ZM357.975 47.5388C358.27 46.8253 358.743 46.2068 359.394 45.6832C360.045 45.1596 360.854 44.8107 361.822 44.6365C362.954 44.4328 364.031 44.5353 365.052 44.944C366.074 45.3528 366.944 46.043 367.661 47.0148C368.394 47.9835 368.887 49.1732 369.141 50.5839C369.395 51.9946 369.349 53.2899 369.002 54.4699C368.669 55.6306 368.097 56.5889 367.285 57.3447C366.469 58.0842 365.496 58.5558 364.364 58.7595C363.413 58.9308 362.532 58.886 361.723 58.6252C360.931 58.3614 360.273 57.9548 359.751 57.4053L361.275 65.8693L357.067 66.6266L353.418 46.3524L357.625 45.5951L357.975 47.5388ZM364.86 51.3545C364.671 50.3047 364.228 49.5377 363.531 49.0535C362.848 48.5499 362.08 48.3749 361.227 48.5284C360.39 48.679 359.731 49.1109 359.25 49.8241C358.785 50.5344 358.647 51.4144 358.836 52.4642C359.025 53.514 359.461 54.2907 360.145 54.7942C360.845 55.2949 361.613 55.4699 362.449 55.3193C363.286 55.1687 363.945 54.7368 364.426 54.0236C364.904 53.294 365.049 52.4043 364.86 51.3545ZM379.598 52.1308L380.241 55.6985L378.1 56.0838C376.575 56.3584 375.319 56.2034 374.333 55.6188C373.344 55.0178 372.698 53.8725 372.394 52.183L371.411 46.7208L369.737 47.0219L369.109 43.5281L370.782 43.2269L370.179 39.8807L374.387 39.1234L374.989 42.4696L377.745 41.9736L378.374 45.4674L375.618 45.9634L376.61 51.4749C376.684 51.885 376.835 52.1625 377.065 52.3075C377.294 52.4525 377.638 52.4837 378.098 52.401L379.598 52.1308ZM247.225 112.613L247.854 116.107L237.028 118.056L236.399 114.562L247.225 112.613ZM268.203 116.407L261.757 117.567L261.273 120.804L256.868 121.597L260.009 103.199L264.881 102.322L274.239 118.47L269.786 119.272L268.203 116.407ZM266.536 113.354L263.257 107.416L262.28 114.12L266.536 113.354ZM287.197 104.046C287.377 105.047 287.312 106.007 287.004 106.926C286.692 107.829 286.106 108.62 285.247 109.3C284.387 109.98 283.251 110.446 281.841 110.7L279.233 111.17L280.349 117.37L276.141 118.128L273.032 100.855L279.848 99.6283C281.226 99.3803 282.433 99.4085 283.47 99.7129C284.507 100.017 285.339 100.545 285.965 101.296C286.591 102.047 287.002 102.964 287.197 104.046ZM280.919 107.412C281.722 107.267 282.287 106.971 282.613 106.523C282.939 106.074 283.039 105.506 282.915 104.817C282.791 104.128 282.499 103.63 282.037 103.324C281.576 103.018 280.943 102.937 280.139 103.081L277.851 103.493L278.63 107.824L280.919 107.412ZM292.594 97.3341L295.703 114.606L291.495 115.364L288.386 98.0914L292.594 97.3341ZM259.287 154.133L259.916 157.627L249.09 159.575L248.461 156.081L259.287 154.133ZM286.515 142.119L289.624 159.392L285.416 160.149L283.552 149.791L281.553 160.844L278.158 161.456L272.401 151.772L274.27 162.155L270.063 162.913L266.954 145.64L271.924 144.746L278.924 155.831L281.569 143.01L286.515 142.119ZM290.573 152.108C290.319 150.698 290.358 149.412 290.691 148.251C291.041 147.088 291.623 146.136 292.438 145.397C293.253 144.657 294.227 144.186 295.359 143.982C296.327 143.808 297.207 143.853 297.999 144.116C298.808 144.377 299.467 144.792 299.976 145.361L299.626 143.417L303.834 142.66L306.305 156.389L302.097 157.146L301.748 155.203C301.453 155.916 300.972 156.536 300.304 157.063C299.653 157.586 298.844 157.935 297.876 158.109C296.761 158.31 295.692 158.206 294.67 157.797C293.645 157.372 292.766 156.675 292.033 155.707C291.313 154.718 290.827 153.519 290.573 152.108ZM300.862 150.282C300.673 149.232 300.228 148.457 299.529 147.956C298.845 147.453 298.085 147.276 297.249 147.427C296.412 147.577 295.753 148.009 295.272 148.722C294.804 149.416 294.665 150.288 294.854 151.338C295.043 152.388 295.48 153.172 296.167 153.692C296.867 154.193 297.635 154.368 298.471 154.218C299.308 154.067 299.958 153.637 300.423 152.926C300.905 152.213 301.051 151.332 300.862 150.282ZM311.497 143.643C311.853 142.8 312.362 142.098 313.023 141.539C313.682 140.963 314.462 140.594 315.364 140.432L316.166 144.885L315.009 145.093C313.959 145.282 313.213 145.654 312.771 146.208C312.326 146.745 312.205 147.579 312.409 148.711L313.556 155.084L309.349 155.841L306.877 142.112L311.085 141.355L311.497 143.643ZM328.263 152.437L323.044 147.432L324.08 153.19L319.873 153.947L316.596 135.739L320.803 134.982L322.614 145.045L325.767 138.712L330.959 137.777L326.491 145.694L333.479 151.498L328.263 152.437ZM346.168 135.039L348.64 148.769L344.432 149.526L344.096 147.656C343.778 148.34 343.285 148.937 342.615 149.447C341.958 149.938 341.186 150.263 340.301 150.422C339.251 150.611 338.283 150.548 337.396 150.234C336.507 149.903 335.761 149.334 335.159 148.528C334.557 147.722 334.148 146.72 333.932 145.523L332.488 137.502L336.671 136.749L338.013 144.204C338.178 145.123 338.545 145.793 339.112 146.216C339.679 146.639 340.365 146.778 341.168 146.634C341.988 146.486 342.591 146.115 342.975 145.521C343.359 144.927 343.468 144.171 343.303 143.252L341.961 135.797L346.168 135.039ZM353.748 135.682C354.043 134.968 354.516 134.35 355.166 133.826C355.817 133.303 356.627 132.954 357.594 132.78C358.726 132.576 359.803 132.678 360.825 133.087C361.847 133.496 362.716 134.186 363.433 135.158C364.166 136.127 364.66 137.316 364.914 138.727C365.168 140.138 365.122 141.433 364.775 142.613C364.442 143.774 363.869 144.732 363.057 145.488C362.242 146.227 361.268 146.699 360.137 146.903C359.185 147.074 358.305 147.029 357.496 146.768C356.703 146.504 356.046 146.098 355.524 145.548L357.047 154.012L352.84 154.77L349.191 134.495L353.398 133.738L353.748 135.682ZM360.633 139.498C360.444 138.448 360.001 137.681 359.304 137.197C358.621 136.693 357.853 136.518 357 136.671C356.163 136.822 355.504 137.254 355.023 137.967C354.558 138.677 354.42 139.557 354.609 140.607C354.798 141.657 355.234 142.434 355.917 142.937C356.617 143.438 357.385 143.613 358.222 143.462C359.058 143.312 359.717 142.88 360.199 142.167C360.677 141.437 360.822 140.547 360.633 139.498Z" fill="#46265C"/>
</g>
<defs>
<clipPath id="clip0">
<rect width="628" height="438" fill="white"/>
</clipPath>
</defs>
</svg>
