<svg width="581" height="407" viewBox="0 0 581 407" fill="none" xmlns="http://www.w3.org/2000/svg">
<g clip-path="url(#clip0)">
<ellipse cx="21.014" cy="160.984" rx="5.17684" ry="5.94439" fill="#5E1043"/>
<ellipse cx="21.014" cy="68.846" rx="5.17684" ry="5.9444" fill="#5E1043"/>
<ellipse cx="21.014" cy="207.054" rx="5.17684" ry="5.9444" fill="#5E1043"/>
<ellipse cx="21.014" cy="114.915" rx="5.17684" ry="5.9444" fill="#5E1043"/>
<ellipse cx="21.014" cy="184.019" rx="5.17684" ry="5.94441" fill="#5E1043"/>
<ellipse cx="21.014" cy="91.8805" rx="5.17684" ry="5.94439" fill="#5E1043"/>
<ellipse cx="21.014" cy="230.088" rx="5.17684" ry="5.94441" fill="#5E1043"/>
<ellipse cx="21.014" cy="137.95" rx="5.17684" ry="5.9444" fill="#5E1043"/>
<ellipse cx="48.741" cy="160.984" rx="5.17678" ry="5.94439" fill="#5E1043"/>
<ellipse cx="48.741" cy="68.846" rx="5.17678" ry="5.9444" fill="#5E1043"/>
<ellipse cx="48.741" cy="207.054" rx="5.17678" ry="5.9444" fill="#5E1043"/>
<ellipse cx="48.741" cy="114.915" rx="5.17678" ry="5.9444" fill="#5E1043"/>
<ellipse cx="48.741" cy="184.019" rx="5.17678" ry="5.94441" fill="#5E1043"/>
<ellipse cx="48.741" cy="91.8805" rx="5.17678" ry="5.94439" fill="#5E1043"/>
<ellipse cx="48.741" cy="230.088" rx="5.17678" ry="5.94441" fill="#5E1043"/>
<ellipse cx="48.741" cy="137.95" rx="5.17678" ry="5.9444" fill="#5E1043"/>
<ellipse cx="76.468" cy="160.984" rx="5.17678" ry="5.94439" fill="#5E1043"/>
<ellipse cx="76.468" cy="68.846" rx="5.17678" ry="5.9444" fill="#5E1043"/>
<ellipse cx="76.468" cy="207.054" rx="5.17678" ry="5.9444" fill="#5E1043"/>
<ellipse cx="76.468" cy="114.915" rx="5.17678" ry="5.9444" fill="#5E1043"/>
<ellipse cx="76.468" cy="184.019" rx="5.17678" ry="5.94441" fill="#5E1043"/>
<ellipse cx="76.468" cy="91.8805" rx="5.17678" ry="5.94439" fill="#5E1043"/>
<ellipse cx="76.468" cy="230.088" rx="5.17678" ry="5.94441" fill="#5E1043"/>
<ellipse cx="76.468" cy="137.95" rx="5.17678" ry="5.9444" fill="#5E1043"/>
<ellipse cx="104.195" cy="160.984" rx="5.17678" ry="5.94439" fill="#5E1043"/>
<ellipse cx="104.195" cy="68.846" rx="5.17678" ry="5.9444" fill="#5E1043"/>
<ellipse cx="104.195" cy="207.054" rx="5.17678" ry="5.9444" fill="#5E1043"/>
<ellipse cx="104.195" cy="114.915" rx="5.17678" ry="5.9444" fill="#5E1043"/>
<ellipse cx="104.195" cy="184.019" rx="5.17678" ry="5.94441" fill="#5E1043"/>
<ellipse cx="104.195" cy="91.8805" rx="5.17678" ry="5.94439" fill="#5E1043"/>
<ellipse cx="104.195" cy="230.088" rx="5.17678" ry="5.94441" fill="#5E1043"/>
<ellipse cx="104.195" cy="137.95" rx="5.17678" ry="5.9444" fill="#5E1043"/>
<ellipse cx="131.922" cy="160.984" rx="5.17678" ry="5.94439" fill="#5E1043"/>
<ellipse cx="131.922" cy="68.846" rx="5.17678" ry="5.9444" fill="#5E1043"/>
<ellipse cx="131.922" cy="207.054" rx="5.17678" ry="5.9444" fill="#5E1043"/>
<ellipse cx="131.922" cy="114.915" rx="5.17678" ry="5.9444" fill="#5E1043"/>
<ellipse cx="131.922" cy="184.019" rx="5.17678" ry="5.94441" fill="#5E1043"/>
<ellipse cx="131.922" cy="91.8805" rx="5.17678" ry="5.94439" fill="#5E1043"/>
<ellipse cx="131.922" cy="230.088" rx="5.17678" ry="5.94441" fill="#5E1043"/>
<ellipse cx="131.922" cy="137.95" rx="5.17678" ry="5.9444" fill="#5E1043"/>
<ellipse cx="159.649" cy="160.984" rx="5.17684" ry="5.94439" fill="#5E1043"/>
<ellipse cx="159.649" cy="68.846" rx="5.17684" ry="5.9444" fill="#5E1043"/>
<ellipse cx="159.649" cy="207.054" rx="5.17684" ry="5.9444" fill="#5E1043"/>
<ellipse cx="159.649" cy="114.915" rx="5.17684" ry="5.9444" fill="#5E1043"/>
<ellipse cx="159.649" cy="184.019" rx="5.17684" ry="5.94441" fill="#5E1043"/>
<ellipse cx="159.649" cy="91.8805" rx="5.17684" ry="5.94439" fill="#5E1043"/>
<ellipse cx="159.649" cy="230.088" rx="5.17684" ry="5.94441" fill="#5E1043"/>
<ellipse cx="159.649" cy="137.95" rx="5.17684" ry="5.9444" fill="#5E1043"/>
<path d="M324.207 400.459C439.635 400.459 533.209 310.813 533.209 200.23C533.209 89.6458 439.635 0 324.207 0C208.779 0 115.206 89.6458 115.206 200.23C115.206 310.813 208.779 400.459 324.207 400.459Z" fill="#46265C"/>
<path d="M388.085 125.077C418.103 125.077 442.437 101.764 442.437 73.0066C442.437 44.2489 418.103 20.9362 388.085 20.9362C358.068 20.9362 333.734 44.2489 333.734 73.0066C333.734 101.764 358.068 125.077 388.085 125.077Z" fill="#FBF8CA"/>
<path d="M160.233 38.9098L161.718 68.5827C167.877 76.4518 174.521 85.4567 181.078 95.2708L182.014 50.0018L182.53 50.3181C174.946 45.1272 167.235 41.1558 159.716 38.6348L160.233 38.9098Z" fill="#C83B4C"/>
<path d="M160.636 67.2041L159.197 38.4608C150.752 35.7016 142.558 34.7862 135.068 36.0659C134.678 36.1325 134.295 36.2091 133.913 36.2869C135.816 38.2429 146.906 49.7947 160.636 67.2041Z" fill="#C83B4C"/>
<path d="M228.823 102.605L229.322 103.061C227.275 99.3727 225.105 95.7872 222.813 92.304L208.847 144.95L208.611 144.75C209.621 147.06 210.581 149.354 211.491 151.632L228.823 102.605Z" fill="#C83B4C"/>
<path d="M207.547 72.6747L208.062 73.0691C200.678 64.6877 192.284 57.1736 183.055 50.6838L182.101 96.8154C188.203 106.041 193.666 115.127 198.49 124.076L207.547 72.6747Z" fill="#C83B4C"/>
<path d="M106.239 87.0771C107.023 94.8527 108.626 102.532 111.022 109.999L194.304 118.229C189.957 110.548 185.468 103.342 181.111 96.7741L106.45 87.7045L106.239 87.0771Z" fill="#C83B4C"/>
<path d="M114.052 118.61L113.828 117.984L198.117 125.162C197.099 123.253 196.069 121.371 195.028 119.513L111.438 111.253L111.219 110.626C112.061 113.258 113.006 115.919 114.052 118.61Z" fill="#C83B4C"/>
<path d="M221.864 91.2062L222.371 91.6342C218.192 85.3376 213.574 79.3183 208.549 73.6173L199.369 125.713C202.551 131.698 205.433 137.598 208.014 143.414L221.864 91.2062Z" fill="#C83B4C"/>
<path d="M220.081 178.23C223.431 192.118 224.7 205.249 223.863 217.478C228.576 207.857 246.502 167.997 239.801 130.848L220.081 178.23Z" fill="#C83B4C"/>
<path d="M129.515 146.687C133.975 152.442 138.832 157.905 144.055 163.038L143.851 162.342L218.829 177.12C216.878 169.365 214.444 161.729 211.539 154.254L129.515 146.687Z" fill="#C83B4C"/>
<path d="M159.988 67.6889C145.129 48.8567 133.405 36.954 133.237 36.7836L133.43 36.3868C122.154 38.8393 114.193 46.189 109.812 56.8271L159.988 67.6889Z" fill="#C83B4C"/>
<path d="M212.185 153.399C212.462 154.107 212.744 154.817 213.011 155.523C215.586 162.281 217.775 169.168 219.568 176.155L239.101 129.222L239.578 129.68C238.341 123.15 236.246 116.795 233.342 110.769C232.19 108.406 230.984 106.079 229.724 103.788L212.185 153.399Z" fill="#C83B4C"/>
<path d="M180.239 95.4655C173.749 85.7672 167.181 76.8706 161.093 69.0941L109.765 57.9828L109.591 57.3622C106.387 65.4463 105.216 75.3776 106.186 86.4698L180.239 95.4655Z" fill="#C83B4C"/>
<path d="M219.132 178.352L144.704 163.683C176.01 194.472 219.809 218.084 222.605 219.576C223.909 206.011 222.43 192.078 219.132 178.352Z" fill="#C83B4C"/>
<path d="M211.011 152.99L211.028 152.943C207.449 143.904 203.365 135.056 198.793 126.438L114.297 119.243C115.731 122.882 117.353 126.56 119.161 130.278C121.794 135.574 124.926 140.629 128.518 145.379L211.011 152.99Z" fill="#C83B4C"/>
<path d="M318.495 138.856L299.884 162.618C299.388 172.442 298.51 183.437 297.027 195.002L327.886 160.709L328.073 161.268C325.687 152.635 322.393 144.865 318.28 138.329L318.495 138.856Z" fill="#C83B4C"/>
<path d="M299.968 160.895L317.996 137.878C313.328 130.592 307.627 124.88 301.006 121.289C300.662 121.103 300.316 120.928 299.97 120.754C300.133 123.423 300.984 139.097 299.968 160.895Z" fill="#C83B4C"/>
<path d="M328.917 229.826L328.997 230.481C329.876 226.39 330.592 222.303 331.146 218.22L285.34 250.233L285.291 249.935C284.531 252.331 283.743 254.684 282.928 256.995L328.917 229.826Z" fill="#C83B4C"/>
<path d="M332.457 193.773L332.591 194.391C332.484 183.424 331.021 172.508 328.234 161.871L296.787 196.817C295.344 207.651 293.502 217.988 291.261 227.828L332.457 193.773Z" fill="#C83B4C"/>
<path d="M244.842 142.962C240.269 149.43 236.391 156.324 233.265 163.539L291.929 220.767C293.694 212.194 295.035 203.902 296.052 196.181L244.587 143.574L244.842 142.962Z" fill="#C83B4C"/>
<path d="M229.866 172.022L230.11 171.403L290.25 228.436C290.736 226.344 291.197 224.265 291.632 222.198L232.751 164.759L232.999 164.142C231.896 166.684 230.851 169.31 229.866 172.022Z" fill="#C83B4C"/>
<path d="M331.146 216.794L331.251 217.433C332.225 210.03 332.675 202.573 332.601 195.111L290.847 229.626C289.314 236.179 287.605 242.484 285.722 248.541L331.146 216.794Z" fill="#C83B4C"/>
<path d="M271.836 282.73C265.17 295.473 257.406 306.362 248.619 315.269C258.655 310.739 298.998 290.992 318.569 258.287L271.836 282.73Z" fill="#C83B4C"/>
<path d="M223.083 203.095C222.686 210.253 222.79 217.428 223.395 224.573L223.702 223.913L271.611 281.109C275.271 273.945 278.48 266.576 281.219 259.044L223.083 203.095Z" fill="#C83B4C"/>
<path d="M299.147 160.873C300.24 137.289 299.135 120.957 299.118 120.723L299.531 120.536C289.214 115.534 278.189 116.33 267.733 121.847L299.147 160.873Z" fill="#C83B4C"/>
<path d="M282.286 258.78C282.028 259.495 281.772 260.214 281.508 260.92C278.992 267.699 276.093 274.341 272.823 280.818L319.112 256.606L319.175 257.251C322.57 251.465 325.187 245.291 326.962 238.875C327.648 236.351 328.268 233.822 328.823 231.287L282.286 258.78Z" fill="#C83B4C"/>
<path d="M296.251 194.64C297.709 183.205 298.573 172.339 299.062 162.63L266.927 122.708L267.207 122.124C259.357 126.393 251.843 133.326 245.205 142.462L296.251 194.64Z" fill="#C83B4C"/>
<path d="M271.024 282.244L223.466 225.467C227.08 268.309 245.094 313.259 246.253 316.116C256.289 306.466 264.426 294.83 271.024 282.244Z" fill="#C83B4C"/>
<path d="M281.655 257.748L281.699 257.722C284.96 248.573 287.705 239.263 289.921 229.832L229.633 172.659C228.315 176.339 227.115 180.162 226.033 184.13C224.535 189.818 223.582 195.625 223.186 201.479L281.655 257.748Z" fill="#C83B4C"/>
<path d="M132.931 170.581L143.917 198.36C152.313 204.02 161.537 210.617 170.939 218.009L157.224 174.679L157.817 174.827C148.929 172.137 140.315 170.643 132.351 170.472L132.931 170.581Z" fill="#C83B4C"/>
<path d="M142.443 197.37L131.801 170.46C122.879 170.337 114.791 171.893 108.081 175.328C107.732 175.507 107.392 175.693 107.054 175.88C109.495 177.177 123.769 184.879 142.443 197.37Z" fill="#C83B4C"/>
<path d="M218.713 210.845L219.334 211.131C216.198 208.23 212.978 205.462 209.674 202.828L213.377 257.032L213.088 256.912C214.794 258.81 216.447 260.707 218.048 262.604L218.713 210.845Z" fill="#C83B4C"/>
<path d="M188.823 188.681L189.439 188.904C179.713 183.119 169.306 178.459 158.435 175.02L172.411 219.175C181.191 226.141 189.318 233.165 196.793 240.247L188.823 188.681Z" fill="#C83B4C"/>
<path d="M97.1216 232.378C100.376 239.54 104.378 246.37 109.066 252.761L190.925 235.926C184.312 229.909 177.719 224.384 171.456 219.428L97.5254 232.912L97.1216 232.378Z" fill="#C83B4C"/>
<path d="M114.726 260.053L114.311 259.524L196.788 241.39C195.204 239.877 193.617 238.391 192.028 236.933L109.867 253.83L109.456 253.299C111.106 255.552 112.863 257.804 114.726 260.053Z" fill="#C83B4C"/>
<path d="M208.417 202.066L209.037 202.323C203.031 197.572 196.697 193.215 190.079 189.281L198.157 241.544C203.114 246.293 207.758 251.051 212.089 255.817L208.417 202.066Z" fill="#C83B4C"/>
<path d="M234.799 285.356C242.465 297.571 247.909 309.684 251.058 321.562C252.436 311.016 256.624 267.8 238.266 234.455L234.799 285.356Z" fill="#C83B4C"/>
<path d="M138.49 282.176C144.588 286.329 150.97 290.086 157.593 293.421L157.175 292.819L233.249 284.671C228.892 277.873 224.113 271.332 218.939 265.083L138.49 282.176Z" fill="#C83B4C"/>
<path d="M141.984 198.023C121.776 184.513 106.786 176.665 106.571 176.553L106.626 176.118C96.694 181.789 91.4939 191.137 90.7603 202.551L141.984 198.023Z" fill="#C83B4C"/>
<path d="M219.278 264.079C219.77 264.67 220.267 265.262 220.748 265.854C225.378 271.519 229.682 277.421 233.641 283.534L237.075 233.115L237.677 233.41C234.394 227.565 230.351 222.142 225.645 217.271C223.787 215.366 221.889 213.509 219.951 211.703L219.278 264.079Z" fill="#C83B4C"/>
<path d="M170.204 218.442C160.903 211.141 151.786 204.625 143.487 199.032L91.0885 203.664L90.7228 203.125C90.2837 211.762 92.3737 221.554 96.8754 231.816L170.204 218.442Z" fill="#C83B4C"/>
<path d="M233.936 285.753L158.419 293.842C198.125 313.852 247.398 323.338 250.539 323.93C247.402 310.643 241.5 297.83 233.936 285.753Z" fill="#C83B4C"/>
<path d="M218.03 264.037L218.03 263.988C211.71 256.451 204.972 249.246 197.843 242.404L115.163 260.582C117.701 263.618 120.43 266.637 123.349 269.637C127.562 273.893 132.172 277.773 137.121 281.228L218.03 264.037Z" fill="#C83B4C"/>
<path d="M580.837 340.337C580.837 364.351 451.892 406.901 292.83 406.901C133.768 406.901 4.82324 364.351 4.82324 340.337C4.82324 316.323 133.768 319.939 292.83 319.939C451.892 319.939 580.837 316.323 580.837 340.337Z" fill="#5E1043"/>
<path opacity="0.1" d="M580.837 340.337C580.837 364.351 451.892 406.901 292.83 406.901C133.768 406.901 4.82324 364.351 4.82324 340.337C4.82324 316.323 133.768 319.939 292.83 319.939C451.892 319.939 580.837 316.323 580.837 340.337Z" fill="#46265C"/>
<path d="M292.83 383.819C451.892 383.819 580.837 364.351 580.837 340.337C580.837 316.323 451.892 296.856 292.83 296.856C133.768 296.856 4.82324 316.323 4.82324 340.337C4.82324 364.351 133.768 383.819 292.83 383.819Z" fill="#FBF8CA"/>
<path opacity="0.1" d="M342.762 294.89C342.762 321.052 304.697 312.96 258.09 312.96C211.483 312.96 173.983 321.052 173.983 294.89C173.983 268.727 212.043 263.037 258.65 263.037C305.258 263.037 342.762 268.727 342.762 294.89Z" fill="#5E1043"/>
<path d="M342.762 288.448C342.762 314.611 304.697 306.518 258.09 306.518C211.483 306.518 173.983 314.611 173.983 288.448C173.983 262.285 212.043 256.595 258.65 256.595C305.258 256.595 342.762 262.285 342.762 288.448Z" fill="#A13F80"/>
<path d="M192.829 216.459C193.854 215.76 194.986 215.216 196.184 214.847C203.779 212.14 211.737 210.48 219.819 209.918C226.847 209.441 234.464 210.008 239.953 214.239C240.807 214.84 241.506 215.619 241.996 216.519C242.686 217.947 242.477 219.606 242.253 221.165C242.203 221.77 242.044 222.361 241.783 222.914C241.045 224.261 239.226 224.733 237.646 224.572C236.067 224.41 234.584 223.77 233.026 223.473C232.062 223.312 231.087 223.217 230.109 223.188L220.337 222.682C214.26 222.366 208.104 222.057 202.143 223.231C200.308 223.547 198.535 224.133 196.886 224.967C195.525 225.699 194.608 226.75 193.345 225.397C191.126 223.021 189.897 218.654 192.829 216.459Z" fill="#5E1043"/>
<path d="M207.972 220.599C207.972 220.599 221.115 214.954 226.101 221.467C231.086 227.98 223.381 225.375 223.381 225.375L214.77 227.98L205.252 226.243L207.972 220.599Z" fill="#5E1043"/>
<path d="M208.651 216.474C208.651 216.474 210.464 224.724 209.105 226.895C207.745 229.066 216.809 232.105 216.809 232.105L225.421 228.631C225.421 228.631 223.155 215.171 225.421 212.566L208.651 216.474Z" fill="#FFB9B9"/>
<path opacity="0.1" d="M208.651 216.474C208.651 216.474 210.464 224.724 209.105 226.895C207.745 229.066 216.809 232.105 216.809 232.105L225.421 228.631C225.421 228.631 223.155 215.171 225.421 212.566L208.651 216.474Z" fill="#5E1043"/>
<path d="M200.159 315.673C201.377 318.094 202.379 320.609 203.154 323.193C203.166 323.278 203.198 323.36 203.246 323.433C203.294 323.505 203.357 323.568 203.432 323.616C203.507 323.663 203.592 323.695 203.68 323.709C203.769 323.724 203.86 323.72 203.947 323.698L212.009 323.69C213.004 323.688 214.338 323.382 214.328 322.429C214.321 321.76 213.606 321.342 213.075 320.907C211.599 319.701 211.215 317.712 210.603 315.948C209.415 312.55 207.126 309.604 204.069 307.54C203.655 307.23 203.18 307.004 202.672 306.878C202.161 306.807 201.64 306.834 201.14 306.958C199.725 307.231 194.44 308.167 195.439 310.139C195.868 310.988 197.461 311.872 198.129 312.665C198.908 313.601 199.587 314.609 200.159 315.673Z" fill="#575A89"/>
<path d="M228.192 306.716C227.908 307.288 227.592 307.845 227.245 308.385C226.077 310.23 224.698 311.952 223.611 313.841C222.878 314.996 222.425 316.294 222.286 317.639C222.224 318.311 222.332 318.988 222.599 319.613C222.867 320.237 223.287 320.791 223.825 321.227C224.995 322.078 226.6 322.117 228.054 321.919C229.509 321.721 230.955 321.322 232.419 321.427C231.926 318.749 234.283 316.393 234.872 313.733C235.038 312.986 235.062 312.211 235.284 311.477C235.523 310.807 235.829 310.159 236.197 309.544C237.371 307.354 238.2 305.01 238.659 302.588C238.714 302.294 231.493 302.246 230.815 302.386C228.701 302.824 229.011 305.036 228.192 306.716Z" fill="#575A89"/>
<path d="M172.531 264.648C170.47 267.739 170.945 271.835 172.393 275.231C173.841 278.626 176.145 281.628 177.722 284.97C178.728 287.101 179.433 289.36 180.565 291.432C181.968 293.997 184.015 296.258 184.956 299.01C185.555 300.764 185.693 302.686 186.665 304.28C187.252 305.132 187.922 305.929 188.666 306.659C190.759 308.956 192.33 311.645 193.28 314.555C194.168 312.02 196.827 310.359 199.558 309.811C202.289 309.263 205.119 309.635 207.882 310.009C206.34 307.721 204.784 305.405 203.866 302.829C202.977 300.337 202.715 297.686 202.116 295.116C200.889 289.846 198.267 284.985 195.671 280.192L209.013 279.179C211.191 278.969 213.38 278.891 215.568 278.946C219.011 279.101 222.385 279.91 225.81 280.284C229.236 280.657 232.859 280.56 235.912 279.025C230.075 287.048 227.035 296.634 227.227 306.412C228.531 305.444 230.045 304.767 231.658 304.432C233.271 304.097 234.942 304.111 236.548 304.474C238.154 304.837 239.655 305.54 240.941 306.531C242.228 307.522 243.266 308.775 243.981 310.2C249.21 303.355 248.588 293.826 252.731 286.33C253.583 284.789 254.627 283.353 255.546 281.848C257.284 278.825 258.771 275.676 259.995 272.43C261.154 269.59 262.321 266.43 261.21 263.573C260.748 262.489 260.076 261.499 259.229 260.655C256.839 258.131 253.512 256.263 249.954 256.185C244.494 256.066 239.983 259.943 235.193 262.458C229.475 265.369 223.007 266.654 216.552 266.161C209.972 265.715 203.688 263.652 197.42 261.835C194.284 260.883 191.096 260.096 187.872 259.475C185.183 258.992 182.623 259.527 179.974 260.186C177.09 260.903 174.191 262.16 172.531 264.648Z" fill="#46265C"/>
<path d="M229.5 208.224C229.497 211.678 228.063 214.989 225.514 217.432C222.965 219.874 219.508 221.247 215.903 221.25C215.093 221.251 214.284 221.182 213.487 221.042C210.943 220.601 208.582 219.475 206.682 217.795C204.782 216.115 203.421 213.95 202.76 211.556C202.098 209.161 202.163 206.635 202.947 204.274C203.731 201.914 205.202 199.816 207.186 198.228C209.17 196.639 211.586 195.626 214.15 195.307C216.714 194.987 219.32 195.375 221.663 196.424C224.005 197.473 225.986 199.141 227.375 201.231C228.763 203.321 229.5 205.747 229.5 208.224Z" fill="#FFB9B9"/>
<path d="M207.972 220.599C207.972 220.599 210.464 221.684 211.371 222.553C212.277 223.421 214.997 228.197 219.529 225.158C224.061 222.118 224.514 220.382 225.874 220.382C227.234 220.382 229.047 222.987 229.047 222.987L241.51 258.809C238.151 262.441 234.258 265.586 229.953 268.144C222.701 272.486 214.09 274.657 210.011 272.92C205.932 271.184 198.227 269.881 196.868 266.407C195.508 262.934 193.242 252.513 193.242 252.513L199.587 226.026L207.972 220.599Z" fill="#5E1043"/>
<path d="M206.222 256.828C207.21 254.783 207.353 252.469 207.437 250.217C207.57 247.987 207.508 245.75 207.252 243.529C206.851 240.625 205.864 237.827 205.24 234.958C204.693 232.443 204.428 229.878 204.447 227.309C204.457 226.136 204.545 224.902 205.212 223.919C205.677 223.233 206.405 222.702 206.696 221.933C207.266 220.425 205.857 218.846 204.314 218.225C202.434 217.549 200.377 217.47 198.447 217.999C196.532 218.529 194.682 219.254 192.928 220.162C191.602 220.704 190.382 221.459 189.322 222.395C187.915 223.79 187.297 225.732 186.797 227.612C186.397 229.116 186.042 230.685 186.346 232.21C186.84 234.686 188.947 236.548 190.07 238.828C191.375 241.475 191.287 244.56 190.768 247.445C190.249 250.33 189.328 253.15 189.044 256.065C188.76 258.979 189.196 262.112 191.102 264.4C191.879 265.333 193.986 267.542 195.408 267.292C196.525 267.096 198.145 264.74 199.045 263.993C201.644 261.836 204.729 259.917 206.222 256.828Z" fill="#5E1043"/>
<path d="M229.968 219.183C230.007 221.604 228.893 223.906 227.583 225.978C226.272 228.049 224.733 230.008 223.767 232.246C222.567 235.048 222.322 238.142 223.067 241.085C223.344 242.088 223.678 243.075 224.067 244.043L226.55 250.568C226.885 251.594 227.369 252.569 227.99 253.465C228.552 254.15 229.211 254.757 229.947 255.268C231.834 256.727 234.004 257.812 236.333 258.459C238.677 259.102 241.18 258.965 243.433 258.071C243.672 249.225 245.156 240.45 247.843 231.984C248.34 230.421 248.882 228.775 248.499 227.183C248.07 225.4 246.575 224.061 245.154 222.839C240.808 219.1 236.028 215.172 230.211 214.668C226.843 214.376 229.939 217.432 229.968 219.183Z" fill="#5E1043"/>
<path d="M200.225 269.665C200.569 270.312 200.784 271.016 201.125 271.664C201.628 272.534 202.25 273.335 202.974 274.046C206.004 277.266 209.709 280.473 214.229 280.667C214.678 280.707 215.131 280.652 215.556 280.507C215.938 280.319 216.266 280.045 216.512 279.708C216.759 279.371 216.915 278.981 216.967 278.573C217.288 276.891 216.513 275.214 215.737 273.674C214.056 270.338 212.164 266.917 209.016 264.766C207.444 263.734 205.649 263.056 203.764 262.785C201.88 262.513 199.956 262.654 198.136 263.197C196.497 263.681 193.778 264.526 195.949 265.96C197.596 267.047 199.27 267.875 200.225 269.665Z" fill="#FFB9B9"/>
<path d="M219.765 227.191C219.293 225.97 218.57 224.853 217.638 223.905C216.698 223.144 215.586 222.604 214.389 222.328C212.839 221.904 211.235 221.684 209.623 221.674C207.703 221.662 205.478 222.156 204.663 223.821C204.015 225.143 204.517 226.708 205.169 228.028C205.447 228.712 205.911 229.312 206.512 229.767C207.34 230.303 208.411 230.286 209.392 230.465C210.914 230.836 212.354 231.461 213.648 232.313L217.01 234.26L222.784 237.604C222.632 237.516 222.686 233.722 222.509 233.1C221.938 231.097 220.651 229.088 219.765 227.191Z" fill="#FFB9B9"/>
<path d="M202.944 322.21C201.593 323.969 201.864 326.483 200.667 328.342C199.629 329.953 197.674 330.798 196.376 332.226C195.962 332.7 195.593 333.209 195.273 333.746C194.069 335.678 193.091 338.154 194.276 340.096C195.23 341.658 197.235 342.269 199.073 342.685C201.397 343.211 203.812 343.632 206.162 343.23C208.513 342.828 210.81 341.449 211.648 339.307C211.813 338.768 212.009 338.239 212.235 337.721C213.509 335.318 217.505 335.292 218.809 332.904C219.722 331.233 218.883 329.213 218.045 327.506L215.484 322.294C214.634 320.564 211.189 321.559 209.393 321.144C207.05 320.604 204.629 320.008 202.944 322.21Z" fill="#5E1043"/>
<path d="M222.751 317.732C221.703 318.523 220.901 319.575 220.434 320.773C219.167 323.574 218.732 326.645 218.309 329.671C218.068 330.875 218.043 332.109 218.236 333.321C218.782 335.792 221.12 337.612 223.636 338.368C226.152 339.123 228.85 339.007 231.484 338.883C232.334 338.904 233.177 338.74 233.951 338.403C235.275 337.704 235.792 336.06 235.565 334.629C235.338 333.197 234.521 331.924 233.722 330.694C232.923 329.465 232.106 328.192 231.877 326.761C231.492 324.353 232.579 320.819 231.035 318.641C229.487 316.458 224.816 316.345 222.751 317.732Z" fill="#5E1043"/>
<path d="M229.158 201.435C228.916 200.656 228.383 199.99 227.661 199.564C227.698 198.729 227.591 197.894 227.345 197.093C226.522 194.761 224.571 194.895 222.73 193.864C221.932 193.416 221.981 193.021 221.566 192.286C221.021 191.323 220.205 190.526 219.211 189.985C218.03 189.264 216.784 188.522 215.387 188.43C212.451 188.239 210.2 190.884 207.395 191.733C206.158 192.107 204.829 192.122 203.586 192.476C202.343 192.83 201.102 193.675 200.917 194.904C200.832 195.472 200.983 196.054 200.896 196.622C200.723 197.75 199.69 198.54 198.999 199.468C197.469 201.52 197.644 204.418 198.867 206.651C199.125 207.113 199.42 207.555 199.749 207.973C199.851 209.028 200.167 210.054 200.68 210.993C201.903 213.225 204.008 214.893 206.206 216.279C206.026 215.539 205.917 214.784 205.88 214.025C205.849 213.772 205.883 213.515 205.98 213.278C206.225 212.788 206.872 212.657 207.365 212.389C208.386 211.833 208.787 210.602 208.817 209.476C208.846 208.351 208.597 207.224 208.72 206.104C208.725 205.847 208.786 205.593 208.899 205.36C209.013 205.126 209.176 204.918 209.379 204.749C209.756 204.543 210.186 204.445 210.62 204.466C212.713 204.384 214.9 204.347 216.746 203.399C217.342 203.02 217.982 202.71 218.653 202.474C220.222 202.082 221.826 203.136 222.73 204.426C223.634 205.715 224.085 207.249 224.919 208.582C225.754 209.914 227.195 211.101 228.808 210.944C228.899 210.944 228.989 210.926 229.072 210.89C229.155 210.855 229.229 210.803 229.29 210.738C229.36 210.619 229.39 210.482 229.379 210.345L229.469 204.438C229.544 203.427 229.439 202.412 229.158 201.435Z" fill="#A0616A"/>
<path d="M186.128 232.336C184.831 234.169 183.335 235.932 182.622 238.039C182.203 239.278 182.073 240.587 181.769 241.856C180.759 246.083 177.839 249.838 177.545 254.165C177.442 255.126 177.59 256.097 177.974 256.991C178.812 258.737 180.816 259.656 182.729 260.235C184.641 260.814 186.694 261.231 188.22 262.477C188.989 263.182 189.686 263.956 190.301 264.788C192.791 267.755 196.141 269.951 199.93 271.099C199.631 269.124 199.49 266.742 201.139 265.521C202.031 264.86 203.224 264.742 204.348 264.649L209.658 264.21C206.117 260.919 202.214 258.006 198.017 255.522C196.549 254.653 194.95 253.736 194.28 252.212C193.933 251.231 193.79 250.194 193.856 249.159C193.82 245.376 193.486 241.6 192.856 237.864C192.419 235.271 191.84 232.7 191.178 230.15C190.992 229.435 189.894 226.224 188.541 226.975C188.223 227.152 187.925 229.189 187.739 229.612C187.296 230.568 186.757 231.48 186.128 232.336Z" fill="#5E1043"/>
<path d="M247.291 225.407L249.46 229.728C250.505 231.504 250.98 233.536 250.827 235.57L250.956 248.531C251.056 250.263 250.906 252 250.511 253.693C250.376 254.25 250.121 254.775 249.763 255.234C249.395 255.629 248.962 255.963 248.481 256.224C244.376 258.68 239.054 260.077 234.718 258.018C233.725 257.511 232.781 256.92 231.896 256.253C230.168 255.027 228.414 253.777 227.122 252.131C225.768 250.408 224.993 248.345 224.083 246.373C222.449 242.835 220.338 239.518 217.804 236.507C217.384 236.109 217.111 235.59 217.026 235.03C216.999 233.894 218.406 233.335 219.503 232.903C221.377 232.164 223.145 230.739 223.458 228.821C227.444 233.828 231.842 239.118 238.13 240.948C238.229 241.008 238.343 241.042 238.46 241.045C238.577 241.049 238.693 241.022 238.795 240.967C238.897 240.913 238.982 240.833 239.041 240.736C239.1 240.639 239.13 240.529 239.129 240.416C239.485 238.986 239.612 237.512 239.873 236.062C240.352 233.422 241.274 230.874 242.604 228.517C243.349 227.195 245.761 222.357 247.291 225.407Z" fill="#5E1043"/>
<path opacity="0.1" d="M193.477 237.902C193.537 240.969 192.857 244.008 191.49 246.782C191.134 247.395 190.872 248.054 190.711 248.739C190.473 250.198 191.341 251.612 192.332 252.743C194.287 254.97 196.823 256.66 199.681 257.642" fill="#5E1043"/>
<path opacity="0.1" d="M240.568 235.317C240.249 236.14 240.539 237.05 240.785 237.896C241.499 240.35 241.832 242.891 241.774 245.438C241.784 245.482 241.783 245.529 241.77 245.573C241.757 245.617 241.732 245.657 241.699 245.689C241.666 245.722 241.625 245.746 241.579 245.76C241.534 245.773 241.485 245.776 241.439 245.767C240.393 245.828 239.195 245.835 238.485 245.096" fill="#5E1043"/>
<path opacity="0.1" d="M418.343 358.052C457.335 358.052 488.944 351.563 488.944 343.558C488.944 335.553 457.335 329.064 418.343 329.064C379.351 329.064 347.742 335.553 347.742 343.558C347.742 351.563 379.351 358.052 418.343 358.052Z" fill="#5E1043"/>
<path d="M453.644 214.187L448.601 219.018L453.644 223.85L458.686 214.187H453.644Z" fill="#A0616A"/>
<path d="M454.779 172.294C456.194 172.849 456.867 174.366 457.401 175.739L463.942 192.58L465.216 195.857C465.84 197.465 466.465 199.074 466.993 200.712C467.327 201.749 467.622 202.796 467.878 203.854C468.143 204.76 468.245 205.702 468.179 206.64C468.002 207.672 467.609 208.659 467.023 209.542C464.747 213.339 461.506 216.524 457.601 218.8C457.376 217.408 456.79 216.092 455.896 214.972C455.003 213.853 453.831 212.966 452.487 212.393L455.87 210.61C456.585 210.289 457.229 209.837 457.765 209.28C458.093 208.846 458.326 208.353 458.45 207.831C458.575 207.309 458.588 206.768 458.489 206.24C458.286 205.188 457.949 204.164 457.485 203.19C456.35 200.477 455.365 197.708 454.535 194.895C454.043 193.231 453.592 191.521 452.618 190.064C451.735 188.744 450.456 187.687 449.653 186.32C448.43 184.236 448.462 181.67 449.002 179.336C449.458 177.365 450.222 175.469 450.866 173.55C451.371 172.043 453.264 171.7 454.779 172.294Z" fill="#FBF8CA"/>
<path d="M423.59 127.301C420.989 128.143 418.632 130.111 418.099 132.691C417.852 133.887 418.004 135.131 417.796 136.334C417.314 139.123 415.028 141.254 412.92 143.233C410.812 145.212 408.635 147.512 408.481 150.335C408.312 153.428 410.653 156.324 410.248 159.396C409.777 162.966 405.843 165.278 404.87 168.753C404.22 171.073 405.016 173.572 406.326 175.621C408.821 179.524 413.086 182.175 417.628 183.595C422.17 185.016 427.008 185.315 431.786 185.363C437.603 185.421 443.92 184.943 448.291 181.265C450.787 179.145 452.355 176.199 452.68 173.018C453.095 168.757 451.239 164.354 452.519 160.255C453.325 157.674 455.346 155.318 455.045 152.64C454.75 150.022 452.363 148.167 450.725 146.052C449.197 144.077 448.269 141.745 447.36 139.446L444.249 131.579C443.637 130.032 442.966 128.406 441.603 127.391C439.052 125.491 434.949 125.864 431.966 126.256C429.198 126.62 426.251 126.44 423.59 127.301Z" fill="#141533"/>
<path d="M425.996 153.226C425.996 153.226 426.301 161.978 425.387 162.853C424.474 163.728 429.041 169.562 429.041 169.562L437.262 169.271L441.525 166.062L437.871 161.394C437.871 161.394 436.349 153.81 437.567 152.06C438.785 150.309 425.996 153.226 425.996 153.226Z" fill="#A0616A"/>
<path opacity="0.1" d="M425.996 153.226C425.996 153.226 426.301 161.978 425.387 162.853C424.474 163.728 429.041 169.562 429.041 169.562L437.262 169.271L441.525 166.062L437.871 161.394C437.871 161.394 436.349 153.81 437.567 152.06C438.785 150.309 425.996 153.226 425.996 153.226Z" fill="#5E1043"/>
<path d="M406.966 220.757L412.142 231.842L416.101 227.175L408.184 217.256L406.966 220.757Z" fill="#A0616A"/>
<path d="M393.112 331.752L390.98 343.129L387.326 348.089L389.458 349.255L393.112 348.672L397.374 347.213L399.201 340.504L402.551 331.752H393.112Z" fill="#A0616A"/>
<path d="M432.086 324.751L430.868 341.087L433.913 343.421L438.785 339.337V327.377L432.086 324.751Z" fill="#A0616A"/>
<path d="M431.02 156.581C437.074 156.581 441.982 151.879 441.982 146.08C441.982 140.28 437.074 135.578 431.02 135.578C424.966 135.578 420.059 140.28 420.059 146.08C420.059 151.879 424.966 156.581 431.02 156.581Z" fill="#A0616A"/>
<path d="M439.479 160.204C439.15 160.053 438.792 159.971 438.427 159.964C438.063 159.957 437.701 160.026 437.367 160.165C436.702 160.447 436.056 160.77 435.434 161.13C433.834 161.928 432.02 162.244 430.23 162.037C430.02 162.022 429.814 161.971 429.622 161.887C429.418 161.766 429.231 161.621 429.065 161.456C428.415 160.951 427.587 160.707 426.753 160.776C425.92 160.845 425.147 161.221 424.598 161.825C424.276 162.209 424.056 162.668 423.704 163.028C422.794 163.96 421.293 163.998 419.961 163.996C417.199 163.922 414.437 164.164 411.736 164.718C409.021 165.279 406.522 166.548 404.513 168.385C403.965 168.878 403.528 169.475 403.23 170.137C402.862 171.045 402.911 172.064 402.581 172.985C402.213 174.01 401.398 174.851 401.068 175.889C400.82 176.67 400.855 177.539 400.439 178.252C402.219 179.728 403.726 181.696 405.506 183.171C406.684 184.148 407.917 185.205 408.36 186.636C408.559 187.519 408.648 188.421 408.624 189.323C408.844 193.638 411.286 197.552 414.018 200.99C414.767 202.009 415.663 202.921 416.68 203.699C418.061 204.6 419.629 205.203 421.276 205.467C424.387 206.077 427.588 206.074 430.763 206.043C434.045 206.012 437.383 205.945 440.502 204.969C442.09 204.544 443.518 203.695 444.619 202.52C445.902 201.01 446.402 198.827 448.153 197.838C448.576 197.652 448.978 197.422 449.35 197.153C449.706 196.782 449.958 196.331 450.083 195.842C450.695 194.009 451.033 192.103 451.085 190.18C451.04 189.026 451.122 187.871 451.329 186.733C451.632 185.73 452.073 184.771 452.64 183.88L456.267 177.578C456.562 177.066 456.486 176.312 456.512 175.728C456.485 174.886 456.215 174.067 455.732 173.362C453.38 169.379 449.684 166.28 445.252 164.573C444.902 164.459 444.569 164.303 444.262 164.108C443.899 163.816 443.592 163.465 443.355 163.072C442.393 161.683 441.217 160.117 439.479 160.204Z" fill="#FBF8CA"/>
<path d="M394.274 194.526C393.559 196.192 393.034 197.927 392.708 199.701C392.358 202.152 392.77 204.648 393.894 206.875C395.848 210.73 399.697 213.344 402.413 216.749C404.936 219.913 406.439 223.705 408.624 227.091C408.243 226.229 408.706 225.231 409.33 224.51C409.953 223.789 410.75 223.191 411.208 222.364C411.519 221.723 411.714 221.037 411.786 220.333C412.112 218.233 412.289 215.951 411.171 214.118C410.33 212.738 408.877 211.821 407.726 210.664C406.575 209.486 405.73 208.066 405.257 206.518C404.784 204.97 404.698 203.337 405.005 201.751C405.226 200.659 405.634 199.611 405.939 198.538C406.316 197.096 406.602 195.633 406.795 194.157L408.166 185.135C408.531 182.735 408.839 180.079 407.42 178.071C407.144 177.651 406.761 177.304 406.307 177.062C405.932 176.898 405.533 176.79 405.123 176.743C403.631 176.509 401.61 175.883 400.881 177.415C400.002 179.264 399.389 181.279 398.653 183.186L394.274 194.526Z" fill="#FBF8CA"/>
<path d="M446.533 199.462C446.533 199.462 428.432 202.817 424.169 202.817H416.557C416.557 202.817 413.817 207.484 413.817 212.152C413.817 216.819 395.852 282.162 395.852 282.162C395.852 282.162 378.8 335.837 397.679 336.128C416.557 336.42 428.432 337.295 428.737 331.169C429.041 325.043 430.868 245.99 430.868 245.99L433.71 286.639C434.474 296.702 433.658 306.818 431.29 316.649C429.927 322.161 430.139 328.204 436.958 329.419C450.051 331.753 466.493 329.711 466.493 325.335C466.493 320.959 457.968 223.82 457.968 223.82C457.968 223.82 453.705 209.526 451.269 208.36C448.833 207.193 446.533 199.462 446.533 199.462Z" fill="#C83B4C"/>
<path d="M389.762 347.505L396.461 345.171L401.028 334.086L405.9 333.503C405.9 333.503 403.16 339.045 401.637 339.92C400.115 340.796 397.679 348.088 397.679 348.088C397.679 348.088 398.897 351.005 393.111 352.172C387.326 353.339 383.063 354.214 383.063 354.214C383.063 354.214 382.454 353.047 385.195 350.13C387.935 347.213 391.135 342.302 391.135 342.302L389.762 347.505Z" fill="#5E1043"/>
<path d="M430.868 334.086L429.65 342.838C429.65 342.838 433 347.505 433.913 347.505C434.826 347.505 439.698 343.421 439.698 343.421C439.698 343.421 439.394 339.045 439.698 337.879C440.003 336.712 440.612 331.169 439.698 330.878C438.785 330.586 438.785 337.379 438.785 337.379L434.826 341.379L431.01 339.187L430.868 334.086Z" fill="#5E1043"/>
<path d="M431.934 146.08C438.492 146.08 443.809 143.337 443.809 139.954C443.809 136.57 438.492 133.828 431.934 133.828C425.375 133.828 420.059 136.57 420.059 139.954C420.059 143.337 425.375 146.08 431.934 146.08Z" fill="#141533"/>
<path d="M0 260.17C0 294.534 22.5028 322.341 50.312 322.341L0 260.17Z" fill="#5E1043"/>
<path d="M50.312 322.341C50.312 287.591 75.4239 259.471 106.457 259.471L50.312 322.341Z" fill="#C83B4C"/>
<path d="M18.229 263.285C18.229 295.927 32.5787 322.341 50.3121 322.341L18.229 263.285Z" fill="#C83B4C"/>
<path d="M50.312 322.341C50.312 277.938 79.3374 242.007 115.207 242.007L50.312 322.341Z" fill="#5E1043"/>
<path d="M39.7278 322.78C39.7278 322.78 46.8629 322.569 49.0132 321.102C51.1635 319.635 59.9887 317.883 60.5222 320.236C61.0556 322.589 71.2449 331.937 63.1894 332C55.1339 332.062 44.4721 330.797 42.3259 329.545C40.1797 328.293 39.7278 322.78 39.7278 322.78Z" fill="#A8A8A8"/>
<path opacity="0.2" d="M63.3332 331.181C55.2777 331.243 44.6159 329.978 42.4697 328.726C40.8352 327.772 40.1839 324.35 39.966 322.771C39.8151 322.777 39.7278 322.78 39.7278 322.78C39.7278 322.78 40.1797 328.293 42.3259 329.545C44.4721 330.797 55.1339 332.062 63.1894 332C65.5147 331.982 66.3179 331.189 66.2738 330.015C65.9508 330.724 65.0639 331.167 63.3332 331.181Z" fill="#5E1043"/>
</g>
<defs>
<clipPath id="clip0">
<rect width="580.837" height="406.901" fill="white"/>
</clipPath>
</defs>
</svg>
