<svg width="419" height="283" viewBox="0 0 419 283" fill="none" xmlns="http://www.w3.org/2000/svg">
<g clip-path="url(#clip0)">
<path d="M416.265 233.735H208.971C208.246 233.734 207.551 233.446 207.038 232.932C206.526 232.419 206.237 231.724 206.237 230.998V2.73694C206.237 2.01132 206.526 1.31565 207.038 0.802549C207.551 0.289452 208.246 0.000830143 208.971 0H416.265C416.99 0.000830143 417.685 0.289452 418.198 0.802549C418.711 1.31565 418.999 2.01132 419 2.73694V230.998C418.999 231.724 418.711 232.419 418.198 232.932C417.685 233.446 416.99 233.734 416.265 233.735ZM208.971 1.09478C208.536 1.09525 208.119 1.26842 207.812 1.57628C207.504 1.88414 207.331 2.30156 207.33 2.73694V230.998C207.331 231.433 207.504 231.851 207.812 232.159C208.119 232.467 208.536 232.64 208.971 232.64H416.265C416.7 232.64 417.117 232.467 417.425 232.159C417.733 231.851 417.906 231.433 417.906 230.998V2.73694C417.906 2.30156 417.733 1.88414 417.425 1.57628C417.117 1.26842 416.7 1.09525 416.265 1.09478H208.971Z" fill="white"/>
<path d="M298.398 87.0349H246.984C246.259 87.034 245.564 86.7454 245.051 86.2323C244.539 85.7192 244.25 85.0236 244.25 84.2979V32.8434C244.25 32.1178 244.539 31.4221 245.051 30.909C245.564 30.3959 246.259 30.1073 246.984 30.1064H298.398C299.123 30.1073 299.818 30.3959 300.33 30.909C300.843 31.4221 301.132 32.1178 301.132 32.8434V84.2979C301.132 85.0236 300.843 85.7192 300.33 86.2323C299.818 86.7454 299.123 87.034 298.398 87.0349ZM246.984 31.2012C246.549 31.2017 246.132 31.3749 245.825 31.6827C245.517 31.9906 245.344 32.408 245.343 32.8434V84.2979C245.344 84.7333 245.517 85.1507 245.825 85.4586C246.132 85.7665 246.549 85.9396 246.984 85.9401H298.398C298.833 85.9396 299.25 85.7665 299.557 85.4586C299.865 85.1507 300.038 84.7333 300.038 84.2979V32.8434C300.038 32.408 299.865 31.9906 299.557 31.6827C299.25 31.3749 298.833 31.2017 298.398 31.2012H246.984Z" fill="#C83B4C"/>
<path d="M283.63 93.3298H232.217C231.564 93.329 230.939 93.0693 230.477 92.6075C230.016 92.1457 229.756 91.5196 229.755 90.8665V39.412C229.756 38.7589 230.016 38.1328 230.477 37.671C230.939 37.2092 231.564 36.9495 232.217 36.9487H283.63C284.282 36.9495 284.908 37.2092 285.37 37.671C285.831 38.1328 286.09 38.7589 286.091 39.412V90.8665C286.09 91.5196 285.831 92.1457 285.37 92.6075C284.908 93.0693 284.282 93.329 283.63 93.3298Z" fill="#C83B4C"/>
<path d="M393.02 118.51H232.217C231.564 118.51 230.938 118.25 230.476 117.788C230.015 117.326 229.755 116.7 229.755 116.046C229.755 115.393 230.015 114.767 230.476 114.305C230.938 113.843 231.564 113.583 232.217 113.583H393.02C393.673 113.583 394.299 113.843 394.76 114.305C395.222 114.767 395.481 115.393 395.481 116.046C395.481 116.7 395.222 117.326 394.76 117.788C394.299 118.25 393.673 118.51 393.02 118.51Z" fill="#5E1043"/>
<path d="M354.186 135.479H232.217C231.564 135.479 230.938 135.219 230.476 134.757C230.015 134.295 229.755 133.669 229.755 133.015C229.755 132.362 230.015 131.736 230.476 131.274C230.938 130.812 231.564 130.552 232.217 130.552H354.186C354.839 130.552 355.465 130.812 355.927 131.274C356.388 131.736 356.648 132.362 356.648 133.015C356.648 133.669 356.388 134.295 355.927 134.757C355.465 135.219 354.839 135.479 354.186 135.479Z" fill="#5E1043"/>
<path d="M392.473 56.1074H321.37C320.717 56.1074 320.091 55.8479 319.629 55.3859C319.168 54.924 318.908 54.2975 318.908 53.6442C318.908 52.9909 319.168 52.3643 319.629 51.9024C320.091 51.4404 320.717 51.1809 321.37 51.1809H392.473C393.126 51.1809 393.752 51.4404 394.213 51.9024C394.675 52.3643 394.934 52.9909 394.934 53.6442C394.934 54.2975 394.675 54.924 394.213 55.3859C393.752 55.8479 393.126 56.1074 392.473 56.1074Z" fill="#5E1043"/>
<path d="M374.728 73.0764H321.37C320.717 73.0764 320.091 72.8169 319.629 72.3549C319.168 71.893 318.908 71.2664 318.908 70.6132C318.908 69.9599 319.168 69.3333 319.629 68.8714C320.091 68.4094 320.717 68.1499 321.37 68.1499H374.728C375.381 68.1499 376.007 68.4094 376.468 68.8714C376.93 69.3333 377.189 69.9599 377.189 70.6132C377.189 71.2664 376.93 71.893 376.468 72.3549C376.007 72.8169 375.381 73.0764 374.728 73.0764Z" fill="#5E1043"/>
<path d="M393.02 152.448H232.217C231.564 152.448 230.938 152.188 230.476 151.726C230.015 151.264 229.755 150.638 229.755 149.984C229.755 149.331 230.015 148.705 230.476 148.243C230.938 147.781 231.564 147.521 232.217 147.521H393.02C393.673 147.521 394.299 147.781 394.76 148.243C395.222 148.705 395.481 149.331 395.481 149.984C395.481 150.638 395.222 151.264 394.76 151.726C394.299 152.188 393.673 152.448 393.02 152.448Z" fill="#5E1043"/>
<path d="M354.186 169.417H232.217C231.564 169.417 230.938 169.157 230.476 168.695C230.015 168.233 229.755 167.607 229.755 166.953C229.755 166.3 230.015 165.674 230.476 165.212C230.938 164.75 231.564 164.49 232.217 164.49H354.186C354.839 164.49 355.465 164.75 355.927 165.212C356.388 165.674 356.648 166.3 356.648 166.953C356.648 167.607 356.388 168.233 355.927 168.695C355.465 169.157 354.839 169.417 354.186 169.417Z" fill="#5E1043"/>
<path d="M393.02 186.386H232.217C231.564 186.386 230.938 186.126 230.476 185.665C230.015 185.203 229.755 184.576 229.755 183.923C229.755 183.269 230.015 182.643 230.476 182.181C230.938 181.719 231.564 181.459 232.217 181.459H393.02C393.673 181.459 394.299 181.719 394.76 182.181C395.222 182.643 395.481 183.269 395.481 183.923C395.481 184.576 395.222 185.203 394.76 185.665C394.299 186.126 393.673 186.386 393.02 186.386Z" fill="#5E1043"/>
<path d="M393.02 203.355H232.217C231.564 203.355 230.938 203.095 230.476 202.634C230.015 202.172 229.755 201.545 229.755 200.892C229.755 200.238 230.015 199.612 230.476 199.15C230.938 198.688 231.564 198.428 232.217 198.428H393.02C393.673 198.428 394.299 198.688 394.76 199.15C395.222 199.612 395.481 200.238 395.481 200.892C395.481 201.545 395.222 202.172 394.76 202.634C394.299 203.095 393.673 203.355 393.02 203.355Z" fill="#5E1043"/>
<path d="M263.354 212.557H145.76C145.035 212.556 144.34 212.268 143.827 211.755C143.314 211.241 143.026 210.546 143.025 209.82V137.017C143.026 136.292 143.314 135.596 143.827 135.083C144.34 134.57 145.035 134.281 145.76 134.281H263.354C264.079 134.281 264.774 134.57 265.287 135.083C265.8 135.596 266.088 136.292 266.089 137.017V209.82C266.088 210.546 265.8 211.241 265.287 211.755C264.774 212.268 264.079 212.556 263.354 212.557Z" fill="white"/>
<path d="M263.354 212.557H145.76C145.035 212.556 144.34 212.268 143.827 211.755C143.314 211.241 143.026 210.546 143.025 209.82V137.017C143.026 136.292 143.314 135.596 143.827 135.083C144.34 134.57 145.035 134.281 145.76 134.281H263.354C264.079 134.281 264.774 134.57 265.287 135.083C265.8 135.596 266.088 136.292 266.089 137.017V209.82C266.088 210.546 265.8 211.241 265.287 211.755C264.774 212.268 264.079 212.556 263.354 212.557ZM145.76 135.375C145.325 135.376 144.908 135.549 144.6 135.857C144.293 136.165 144.12 136.582 144.119 137.017V209.82C144.12 210.256 144.293 210.673 144.6 210.981C144.908 211.289 145.325 211.462 145.76 211.462H263.354C263.789 211.462 264.206 211.289 264.514 210.981C264.821 210.673 264.994 210.256 264.995 209.82V137.017C264.994 136.582 264.821 136.165 264.514 135.857C264.206 135.549 263.789 135.376 263.354 135.375H145.76Z" fill="#3F3D56"/>
<path d="M240.109 167.397H169.005C168.353 167.397 167.726 167.138 167.265 166.676C166.803 166.214 166.544 165.588 166.544 164.934C166.544 164.281 166.803 163.654 167.265 163.192C167.726 162.73 168.353 162.471 169.005 162.471H240.109C240.761 162.471 241.388 162.73 241.849 163.192C242.311 163.654 242.57 164.281 242.57 164.934C242.57 165.588 242.311 166.214 241.849 166.676C241.388 167.138 240.761 167.397 240.109 167.397Z" fill="#5E1043"/>
<path d="M240.109 184.366H169.005C168.353 184.366 167.726 184.107 167.265 183.645C166.803 183.183 166.544 182.556 166.544 181.903C166.544 181.25 166.803 180.623 167.265 180.161C167.726 179.699 168.353 179.44 169.005 179.44H240.109C240.761 179.44 241.388 179.699 241.849 180.161C242.311 180.623 242.57 181.25 242.57 181.903C242.57 182.556 242.311 183.183 241.849 183.645C241.388 184.107 240.761 184.366 240.109 184.366Z" fill="#5E1043"/>
<path d="M125.982 276.372H132.687L135.877 250.487L125.981 250.487L125.982 276.372Z" fill="#A0616A"/>
<path d="M124.271 274.181L137.477 274.18H137.477C139.709 274.18 141.85 275.068 143.428 276.647C145.006 278.227 145.893 280.369 145.893 282.602V282.876L124.272 282.877L124.271 274.181Z" fill="#FBF8CA"/>
<path d="M73.7704 273.467L80.4005 274.47L87.4212 249.353L78.7296 247.873L73.7704 273.467Z" fill="#A0616A"/>
<path d="M72.4063 271.044L85.4636 273.02L85.4641 273.02C87.6709 273.354 89.6548 274.551 90.9793 276.349C92.3039 278.147 92.8606 280.398 92.5271 282.606L92.4863 282.877L71.1078 279.643L72.4063 271.044Z" fill="#FBF8CA"/>
<path d="M94.4452 148.092L101.89 150.045L101.395 162.125L101.334 184.12C102.067 184.628 102.63 185.347 102.946 186.181C103.263 187.015 103.319 187.926 103.107 188.793C102.894 189.66 102.424 190.443 101.759 191.036C101.093 191.63 100.262 192.008 99.3775 192.119C98.4926 192.23 97.5948 192.07 96.8028 191.66C96.0109 191.249 95.3621 190.608 94.9423 189.82C94.5225 189.033 94.3516 188.136 94.452 187.249C94.5524 186.362 94.9195 185.527 95.5047 184.853L93.2168 162.778L94.4452 148.092Z" fill="#A0616A"/>
<path d="M93.1492 134.255C93.1903 133.088 93.5664 131.957 94.2327 130.998C94.8989 130.038 95.8271 129.291 96.9063 128.846C97.9164 128.394 99.0366 128.246 100.129 128.422C101.222 128.598 102.239 129.089 103.057 129.836C103.644 130.361 104.11 131.009 104.422 131.733C104.734 132.457 104.885 133.241 104.863 134.029C104.882 141.106 103.286 151.422 103.27 151.525L103.244 151.689L92.3619 155.356L93.1492 134.255Z" fill="#C83B4C"/>
<path d="M112.608 154.344L129.253 150.032L136.947 175.966L137.22 272.58L124.492 272.501L119.171 194.304L85.2601 266.559L71.5864 264.917L101.395 187.461C101.395 187.461 99.7543 173.777 104.95 166.934L103.856 159.818L112.608 154.344Z" fill="#FBF8CA"/>
<path d="M101.384 160.796C101.151 160.513 100.982 160.183 100.888 159.829C100.795 159.475 100.778 159.104 100.84 158.743L93.2476 135.947C92.8931 134.882 92.8555 133.736 93.1392 132.649C93.4229 131.563 94.0158 130.582 94.8458 129.826L98.1418 126.828L100.375 117.886L113.213 121.027L112.155 125.261L117.965 124.204L130.203 151.482L104.623 161.714L103.364 161.734C102.985 161.735 102.611 161.651 102.268 161.489C101.926 161.327 101.624 161.09 101.384 160.796Z" fill="#C83B4C"/>
<path d="M119.203 141.55L126.538 139.217L132.571 149.691L144.267 168.313C145.158 168.35 146.017 168.657 146.73 169.192C147.444 169.728 147.977 170.468 148.261 171.315C148.545 172.161 148.566 173.073 148.32 173.931C148.074 174.789 147.574 175.553 146.886 176.12C146.197 176.687 145.353 177.032 144.465 177.109C143.576 177.186 142.685 176.991 141.91 176.55C141.134 176.109 140.511 175.443 140.122 174.639C139.733 173.836 139.597 172.933 139.732 172.051L126.008 154.618L119.203 141.55Z" fill="#A0616A"/>
<path d="M110.717 130.548C110.128 129.539 109.842 128.382 109.893 127.215C109.943 126.048 110.329 124.92 111.003 123.967C111.615 123.044 112.484 122.321 113.501 121.885C114.518 121.449 115.64 121.32 116.73 121.513C117.507 121.643 118.247 121.941 118.897 122.386C119.548 122.831 120.093 123.413 120.496 124.091C124.292 130.061 128.452 139.634 128.494 139.729L128.56 139.882L121.321 148.803L110.717 130.548Z" fill="#C83B4C"/>
<path d="M109.874 116.223C115.507 116.223 120.074 111.652 120.074 106.014C120.074 100.377 115.507 95.8062 109.874 95.8062C104.24 95.8062 99.6736 100.377 99.6736 106.014C99.6736 111.652 104.24 116.223 109.874 116.223Z" fill="#A0616A"/>
<path d="M91.848 101.708C97.2743 101.708 101.673 97.306 101.673 91.8753C101.673 86.4447 97.2743 82.0422 91.848 82.0422C86.4217 82.0422 82.0228 86.4447 82.0228 91.8753C82.0228 97.306 86.4217 101.708 91.848 101.708Z" fill="#FBF8CA"/>
<path d="M83.3732 100.018C84.6449 100.938 86.1182 101.539 87.6699 101.772C89.2216 102.006 90.8065 101.863 92.2921 101.358C93.7776 100.852 95.1206 99.9982 96.2086 98.8668C97.2967 97.7353 98.0981 96.3595 98.546 94.8545C98.3765 96.2032 97.9295 97.5021 97.2331 98.6693C96.5367 99.8364 95.6062 100.846 94.5001 101.635C93.3941 102.424 92.1365 102.975 90.807 103.253C89.4775 103.531 88.1048 103.531 86.7756 103.251C85.4463 102.971 84.1895 102.419 83.0844 101.629C81.9793 100.838 81.0499 99.8272 80.3549 98.6592C79.6599 97.4913 79.2144 96.1919 79.0466 94.8429C78.8787 93.494 78.9921 92.1249 79.3796 90.822C79.1595 92.5724 79.4142 94.3498 80.1169 95.9678C80.8195 97.5857 81.9443 98.9846 83.3732 100.018V100.018Z" fill="#FBF8CA"/>
<path d="M122.148 100.029C120.433 96.9556 119.776 95.6718 117.565 93.803C115.609 92.1503 113.203 91.6649 111.263 93.2309C108.968 92.2384 106.414 92.0133 103.98 92.5892C101.547 93.1651 99.3642 94.5111 97.7562 96.4274C96.1481 98.3437 95.2006 100.728 95.0543 103.226C94.9081 105.724 95.5709 108.203 96.9444 110.294C98.3179 112.385 100.329 113.977 102.678 114.834C105.028 115.69 107.59 115.765 109.986 115.047C112.381 114.33 114.482 112.858 115.975 110.851C117.468 108.844 118.274 106.408 118.274 103.905C118.272 103.466 118.246 103.027 118.195 102.591C119.882 102.354 120.461 100.266 122.148 100.029Z" fill="#FBF8CA"/>
<path d="M208.935 283H0.54695C0.40189 283 0.26277 282.942 0.160197 282.84C0.0576245 282.737 0 282.598 0 282.453C0 282.307 0.0576245 282.168 0.160197 282.066C0.26277 281.963 0.40189 281.905 0.54695 281.905H208.935C209.08 281.905 209.219 281.963 209.321 282.066C209.424 282.168 209.482 282.307 209.482 282.453C209.482 282.598 209.424 282.737 209.321 282.84C209.219 282.942 209.08 283 208.935 283Z" fill="#5E1043"/>
</g>
<defs>
<clipPath id="clip0">
<rect width="419" height="283" fill="white"/>
</clipPath>
</defs>
</svg>
