<svg width="522" height="425" viewBox="0 0 522 425" fill="none" xmlns="http://www.w3.org/2000/svg">
<ellipse cx="277.745" cy="335.101" rx="6.5484" ry="7.86836" fill="#46265C"/>
<ellipse cx="277.745" cy="226.074" rx="6.5484" ry="7.86839" fill="#46265C"/>
<ellipse cx="277.745" cy="389.614" rx="6.5484" ry="7.86836" fill="#46265C"/>
<ellipse cx="277.745" cy="280.588" rx="6.5484" ry="7.86844" fill="#46265C"/>
<ellipse cx="277.745" cy="362.358" rx="6.5484" ry="7.86839" fill="#46265C"/>
<ellipse cx="277.745" cy="253.332" rx="6.5484" ry="7.86839" fill="#46265C"/>
<ellipse cx="277.745" cy="416.87" rx="6.5484" ry="7.86842" fill="#46265C"/>
<ellipse cx="277.745" cy="307.845" rx="6.5484" ry="7.86845" fill="#46265C"/>
<ellipse cx="311.703" cy="335.101" rx="6.54846" ry="7.86836" fill="#46265C"/>
<ellipse cx="311.703" cy="226.074" rx="6.54846" ry="7.86839" fill="#46265C"/>
<ellipse cx="311.703" cy="389.615" rx="6.54846" ry="7.86839" fill="#46265C"/>
<ellipse cx="311.703" cy="280.588" rx="6.54846" ry="7.86841" fill="#46265C"/>
<ellipse cx="311.703" cy="362.358" rx="6.54846" ry="7.86839" fill="#46265C"/>
<ellipse cx="311.703" cy="253.331" rx="6.54846" ry="7.86839" fill="#46265C"/>
<ellipse cx="311.703" cy="416.87" rx="6.54846" ry="7.86847" fill="#46265C"/>
<ellipse cx="311.703" cy="307.844" rx="6.54846" ry="7.86842" fill="#46265C"/>
<ellipse cx="345.661" cy="335.101" rx="6.54846" ry="7.86836" fill="#46265C"/>
<ellipse cx="345.661" cy="226.074" rx="6.54846" ry="7.86839" fill="#46265C"/>
<ellipse cx="345.661" cy="389.615" rx="6.54846" ry="7.86839" fill="#46265C"/>
<ellipse cx="345.661" cy="280.588" rx="6.54846" ry="7.86841" fill="#46265C"/>
<ellipse cx="345.661" cy="362.358" rx="6.54846" ry="7.86839" fill="#46265C"/>
<ellipse cx="345.661" cy="253.331" rx="6.54846" ry="7.86839" fill="#46265C"/>
<ellipse cx="345.661" cy="416.87" rx="6.54846" ry="7.86847" fill="#46265C"/>
<ellipse cx="345.661" cy="307.844" rx="6.54846" ry="7.86842" fill="#46265C"/>
<ellipse cx="379.619" cy="335.101" rx="6.5484" ry="7.86836" fill="#46265C"/>
<ellipse cx="379.619" cy="226.074" rx="6.5484" ry="7.86839" fill="#46265C"/>
<ellipse cx="379.619" cy="389.615" rx="6.5484" ry="7.86839" fill="#46265C"/>
<ellipse cx="379.619" cy="280.588" rx="6.5484" ry="7.86841" fill="#46265C"/>
<ellipse cx="379.619" cy="362.358" rx="6.5484" ry="7.86839" fill="#46265C"/>
<ellipse cx="379.619" cy="253.331" rx="6.5484" ry="7.86839" fill="#46265C"/>
<ellipse cx="379.619" cy="416.87" rx="6.5484" ry="7.86847" fill="#46265C"/>
<ellipse cx="379.619" cy="307.844" rx="6.5484" ry="7.86842" fill="#46265C"/>
<ellipse cx="413.578" cy="335.101" rx="6.5484" ry="7.86836" fill="#46265C"/>
<ellipse cx="413.578" cy="226.074" rx="6.5484" ry="7.86839" fill="#46265C"/>
<ellipse cx="413.578" cy="389.615" rx="6.5484" ry="7.86839" fill="#46265C"/>
<ellipse cx="413.578" cy="280.588" rx="6.5484" ry="7.86841" fill="#46265C"/>
<ellipse cx="413.578" cy="362.358" rx="6.5484" ry="7.86839" fill="#46265C"/>
<ellipse cx="413.578" cy="253.331" rx="6.5484" ry="7.86839" fill="#46265C"/>
<ellipse cx="413.578" cy="416.87" rx="6.5484" ry="7.86847" fill="#46265C"/>
<ellipse cx="413.578" cy="307.844" rx="6.5484" ry="7.86842" fill="#46265C"/>
<ellipse cx="447.536" cy="335.101" rx="6.5484" ry="7.86836" fill="#46265C"/>
<ellipse cx="447.536" cy="226.074" rx="6.5484" ry="7.86839" fill="#46265C"/>
<ellipse cx="447.536" cy="389.615" rx="6.5484" ry="7.86839" fill="#46265C"/>
<ellipse cx="447.536" cy="280.588" rx="6.5484" ry="7.86841" fill="#46265C"/>
<ellipse cx="447.536" cy="362.358" rx="6.5484" ry="7.86839" fill="#46265C"/>
<ellipse cx="447.536" cy="253.331" rx="6.5484" ry="7.86839" fill="#46265C"/>
<ellipse cx="447.536" cy="416.87" rx="6.5484" ry="7.86847" fill="#46265C"/>
<ellipse cx="447.536" cy="307.844" rx="6.5484" ry="7.86842" fill="#46265C"/>
<ellipse cx="481.494" cy="335.101" rx="6.54846" ry="7.86836" fill="#46265C"/>
<ellipse cx="481.494" cy="226.074" rx="6.54846" ry="7.86839" fill="#46265C"/>
<ellipse cx="481.494" cy="389.615" rx="6.54846" ry="7.86839" fill="#46265C"/>
<ellipse cx="481.494" cy="280.588" rx="6.54846" ry="7.86841" fill="#46265C"/>
<ellipse cx="481.494" cy="362.358" rx="6.54846" ry="7.86839" fill="#46265C"/>
<ellipse cx="481.494" cy="253.331" rx="6.54846" ry="7.86839" fill="#46265C"/>
<ellipse cx="481.494" cy="416.87" rx="6.54846" ry="7.86847" fill="#46265C"/>
<ellipse cx="481.494" cy="307.844" rx="6.54846" ry="7.86842" fill="#46265C"/>
<ellipse cx="515.452" cy="335.101" rx="6.54852" ry="7.86836" fill="#46265C"/>
<ellipse cx="515.452" cy="226.074" rx="6.54852" ry="7.86839" fill="#46265C"/>
<ellipse cx="515.452" cy="389.615" rx="6.54852" ry="7.86839" fill="#46265C"/>
<ellipse cx="515.452" cy="280.588" rx="6.54852" ry="7.86841" fill="#46265C"/>
<ellipse cx="515.452" cy="362.358" rx="6.54852" ry="7.86839" fill="#46265C"/>
<ellipse cx="515.452" cy="253.331" rx="6.54852" ry="7.86839" fill="#46265C"/>
<ellipse cx="515.452" cy="416.87" rx="6.54852" ry="7.86847" fill="#46265C"/>
<ellipse cx="515.452" cy="307.844" rx="6.54852" ry="7.86842" fill="#46265C"/>
<ellipse cx="277.745" cy="116.894" rx="6.5484" ry="7.86839" fill="#46265C"/>
<ellipse cx="277.745" cy="7.8684" rx="6.5484" ry="7.8684" fill="#46265C"/>
<ellipse cx="277.745" cy="171.407" rx="6.5484" ry="7.86841" fill="#46265C"/>
<ellipse cx="277.745" cy="62.3811" rx="6.5484" ry="7.86842" fill="#46265C"/>
<ellipse cx="277.745" cy="144.151" rx="6.5484" ry="7.86841" fill="#46265C"/>
<ellipse cx="277.745" cy="35.1247" rx="6.5484" ry="7.86839" fill="#46265C"/>
<ellipse cx="277.745" cy="198.664" rx="6.5484" ry="7.86839" fill="#46265C"/>
<ellipse cx="277.745" cy="89.6379" rx="6.5484" ry="7.8684" fill="#46265C"/>
<ellipse cx="311.703" cy="116.895" rx="6.54846" ry="7.86839" fill="#46265C"/>
<ellipse cx="311.703" cy="7.8684" rx="6.54846" ry="7.8684" fill="#46265C"/>
<ellipse cx="311.703" cy="171.407" rx="6.54846" ry="7.86841" fill="#46265C"/>
<ellipse cx="311.703" cy="62.3811" rx="6.54846" ry="7.86841" fill="#46265C"/>
<ellipse cx="311.703" cy="144.151" rx="6.54846" ry="7.86841" fill="#46265C"/>
<ellipse cx="311.703" cy="35.1247" rx="6.54846" ry="7.86839" fill="#46265C"/>
<ellipse cx="311.703" cy="198.664" rx="6.54846" ry="7.86842" fill="#46265C"/>
<ellipse cx="311.703" cy="89.6379" rx="6.54846" ry="7.8684" fill="#46265C"/>
<ellipse cx="345.661" cy="116.895" rx="6.54846" ry="7.86839" fill="#46265C"/>
<ellipse cx="345.661" cy="7.8684" rx="6.54846" ry="7.8684" fill="#46265C"/>
<ellipse cx="345.661" cy="171.407" rx="6.54846" ry="7.86841" fill="#46265C"/>
<ellipse cx="345.661" cy="62.3811" rx="6.54846" ry="7.86841" fill="#46265C"/>
<ellipse cx="345.661" cy="144.151" rx="6.54846" ry="7.86841" fill="#46265C"/>
<ellipse cx="345.661" cy="35.1247" rx="6.54846" ry="7.86839" fill="#46265C"/>
<ellipse cx="345.661" cy="198.664" rx="6.54846" ry="7.86842" fill="#46265C"/>
<ellipse cx="345.661" cy="89.6379" rx="6.54846" ry="7.8684" fill="#46265C"/>
<ellipse cx="379.619" cy="116.895" rx="6.5484" ry="7.86839" fill="#46265C"/>
<ellipse cx="379.619" cy="7.8684" rx="6.5484" ry="7.8684" fill="#46265C"/>
<ellipse cx="379.619" cy="171.407" rx="6.5484" ry="7.86841" fill="#46265C"/>
<ellipse cx="379.619" cy="62.3811" rx="6.5484" ry="7.86841" fill="#46265C"/>
<ellipse cx="379.619" cy="144.151" rx="6.5484" ry="7.86841" fill="#46265C"/>
<ellipse cx="379.619" cy="35.1247" rx="6.5484" ry="7.86839" fill="#46265C"/>
<ellipse cx="379.619" cy="198.664" rx="6.5484" ry="7.86842" fill="#46265C"/>
<ellipse cx="379.619" cy="89.6379" rx="6.5484" ry="7.8684" fill="#46265C"/>
<ellipse cx="413.578" cy="116.895" rx="6.5484" ry="7.86839" fill="#46265C"/>
<ellipse cx="413.578" cy="7.8684" rx="6.5484" ry="7.8684" fill="#46265C"/>
<ellipse cx="413.578" cy="171.407" rx="6.5484" ry="7.86841" fill="#46265C"/>
<ellipse cx="413.578" cy="62.3811" rx="6.5484" ry="7.86841" fill="#46265C"/>
<ellipse cx="413.578" cy="144.151" rx="6.5484" ry="7.86841" fill="#46265C"/>
<ellipse cx="413.578" cy="35.1247" rx="6.5484" ry="7.86839" fill="#46265C"/>
<ellipse cx="413.578" cy="198.664" rx="6.5484" ry="7.86842" fill="#46265C"/>
<ellipse cx="413.578" cy="89.6379" rx="6.5484" ry="7.8684" fill="#46265C"/>
<ellipse cx="447.536" cy="116.895" rx="6.5484" ry="7.86839" fill="#46265C"/>
<ellipse cx="447.536" cy="7.8684" rx="6.5484" ry="7.8684" fill="#46265C"/>
<ellipse cx="447.536" cy="171.407" rx="6.5484" ry="7.86841" fill="#46265C"/>
<ellipse cx="447.536" cy="62.3811" rx="6.5484" ry="7.86841" fill="#46265C"/>
<ellipse cx="447.536" cy="144.151" rx="6.5484" ry="7.86841" fill="#46265C"/>
<ellipse cx="447.536" cy="35.1247" rx="6.5484" ry="7.86839" fill="#46265C"/>
<ellipse cx="447.536" cy="198.664" rx="6.5484" ry="7.86842" fill="#46265C"/>
<ellipse cx="447.536" cy="89.6379" rx="6.5484" ry="7.8684" fill="#46265C"/>
<ellipse cx="481.494" cy="116.895" rx="6.54846" ry="7.86839" fill="#46265C"/>
<ellipse cx="481.494" cy="7.8684" rx="6.54846" ry="7.8684" fill="#46265C"/>
<ellipse cx="481.494" cy="171.407" rx="6.54846" ry="7.86841" fill="#46265C"/>
<ellipse cx="481.494" cy="62.3811" rx="6.54846" ry="7.86841" fill="#46265C"/>
<ellipse cx="481.494" cy="144.151" rx="6.54846" ry="7.86841" fill="#46265C"/>
<ellipse cx="481.494" cy="35.1247" rx="6.54846" ry="7.86839" fill="#46265C"/>
<ellipse cx="481.494" cy="198.664" rx="6.54846" ry="7.86842" fill="#46265C"/>
<ellipse cx="481.494" cy="89.6379" rx="6.54846" ry="7.8684" fill="#46265C"/>
<ellipse cx="515.452" cy="116.895" rx="6.54852" ry="7.86839" fill="#46265C"/>
<ellipse cx="515.452" cy="7.8684" rx="6.54852" ry="7.8684" fill="#46265C"/>
<ellipse cx="515.452" cy="171.407" rx="6.54852" ry="7.86841" fill="#46265C"/>
<ellipse cx="515.452" cy="62.3811" rx="6.54852" ry="7.86841" fill="#46265C"/>
<ellipse cx="515.452" cy="144.151" rx="6.54852" ry="7.86841" fill="#46265C"/>
<ellipse cx="515.452" cy="35.1247" rx="6.54852" ry="7.86839" fill="#46265C"/>
<ellipse cx="515.452" cy="198.664" rx="6.54852" ry="7.86842" fill="#46265C"/>
<ellipse cx="515.452" cy="89.6379" rx="6.54852" ry="7.8684" fill="#46265C"/>
<ellipse cx="6.54843" cy="116.894" rx="6.54843" ry="7.86839" fill="#46265C"/>
<ellipse cx="6.54843" cy="7.8684" rx="6.54843" ry="7.8684" fill="#46265C"/>
<ellipse cx="6.54843" cy="171.407" rx="6.54843" ry="7.86841" fill="#46265C"/>
<ellipse cx="6.54843" cy="62.3811" rx="6.54843" ry="7.86842" fill="#46265C"/>
<ellipse cx="6.54843" cy="144.151" rx="6.54843" ry="7.86841" fill="#46265C"/>
<ellipse cx="6.54843" cy="35.1247" rx="6.54843" ry="7.86839" fill="#46265C"/>
<ellipse cx="6.54843" cy="198.664" rx="6.54843" ry="7.86839" fill="#46265C"/>
<ellipse cx="6.54843" cy="89.6379" rx="6.54843" ry="7.8684" fill="#46265C"/>
<ellipse cx="40.5065" cy="116.895" rx="6.54846" ry="7.86839" fill="#46265C"/>
<ellipse cx="40.5065" cy="7.8684" rx="6.54846" ry="7.8684" fill="#46265C"/>
<ellipse cx="40.5065" cy="171.407" rx="6.54846" ry="7.86841" fill="#46265C"/>
<ellipse cx="40.5065" cy="62.3811" rx="6.54846" ry="7.86841" fill="#46265C"/>
<ellipse cx="40.5065" cy="144.151" rx="6.54846" ry="7.86841" fill="#46265C"/>
<ellipse cx="40.5065" cy="35.1247" rx="6.54846" ry="7.86839" fill="#46265C"/>
<ellipse cx="40.5065" cy="198.664" rx="6.54846" ry="7.86842" fill="#46265C"/>
<ellipse cx="40.5065" cy="89.6379" rx="6.54846" ry="7.8684" fill="#46265C"/>
<ellipse cx="74.4645" cy="116.895" rx="6.54849" ry="7.86839" fill="#46265C"/>
<ellipse cx="74.4645" cy="7.8684" rx="6.54849" ry="7.8684" fill="#46265C"/>
<ellipse cx="74.4645" cy="171.407" rx="6.54849" ry="7.86841" fill="#46265C"/>
<ellipse cx="74.4645" cy="62.3811" rx="6.54849" ry="7.86841" fill="#46265C"/>
<ellipse cx="74.4645" cy="144.151" rx="6.54849" ry="7.86841" fill="#46265C"/>
<ellipse cx="74.4645" cy="35.1247" rx="6.54849" ry="7.86839" fill="#46265C"/>
<ellipse cx="74.4645" cy="198.664" rx="6.54849" ry="7.86842" fill="#46265C"/>
<ellipse cx="74.4645" cy="89.6379" rx="6.54849" ry="7.8684" fill="#46265C"/>
<ellipse cx="108.422" cy="116.895" rx="6.54846" ry="7.86839" fill="#46265C"/>
<ellipse cx="108.423" cy="7.8684" rx="6.54843" ry="7.8684" fill="#46265C"/>
<ellipse cx="108.422" cy="171.407" rx="6.54846" ry="7.86841" fill="#46265C"/>
<ellipse cx="108.422" cy="62.3811" rx="6.54846" ry="7.86841" fill="#46265C"/>
<ellipse cx="108.422" cy="144.151" rx="6.54846" ry="7.86841" fill="#46265C"/>
<ellipse cx="108.422" cy="35.1247" rx="6.54846" ry="7.86839" fill="#46265C"/>
<ellipse cx="108.422" cy="198.664" rx="6.54846" ry="7.86842" fill="#46265C"/>
<ellipse cx="108.422" cy="89.6379" rx="6.54846" ry="7.8684" fill="#46265C"/>
<ellipse cx="142.381" cy="116.895" rx="6.54846" ry="7.86839" fill="#46265C"/>
<ellipse cx="142.381" cy="7.8684" rx="6.54846" ry="7.8684" fill="#46265C"/>
<ellipse cx="142.381" cy="171.407" rx="6.54846" ry="7.86841" fill="#46265C"/>
<ellipse cx="142.381" cy="62.3811" rx="6.54846" ry="7.86841" fill="#46265C"/>
<ellipse cx="142.381" cy="144.151" rx="6.54846" ry="7.86841" fill="#46265C"/>
<ellipse cx="142.381" cy="35.1247" rx="6.54846" ry="7.86839" fill="#46265C"/>
<ellipse cx="142.381" cy="198.664" rx="6.54846" ry="7.86842" fill="#46265C"/>
<ellipse cx="142.381" cy="89.6379" rx="6.54846" ry="7.8684" fill="#46265C"/>
<ellipse cx="176.339" cy="116.895" rx="6.54846" ry="7.86839" fill="#46265C"/>
<ellipse cx="176.339" cy="7.8684" rx="6.54846" ry="7.8684" fill="#46265C"/>
<ellipse cx="176.339" cy="171.407" rx="6.54846" ry="7.86841" fill="#46265C"/>
<ellipse cx="176.339" cy="62.3811" rx="6.54846" ry="7.86841" fill="#46265C"/>
<ellipse cx="176.339" cy="144.151" rx="6.54846" ry="7.86841" fill="#46265C"/>
<ellipse cx="176.339" cy="35.1247" rx="6.54846" ry="7.86839" fill="#46265C"/>
<ellipse cx="176.339" cy="198.664" rx="6.54846" ry="7.86842" fill="#46265C"/>
<ellipse cx="176.339" cy="89.6379" rx="6.54846" ry="7.8684" fill="#46265C"/>
<ellipse cx="210.297" cy="116.895" rx="6.5484" ry="7.86839" fill="#46265C"/>
<ellipse cx="210.297" cy="7.8684" rx="6.5484" ry="7.8684" fill="#46265C"/>
<ellipse cx="210.297" cy="171.407" rx="6.5484" ry="7.86841" fill="#46265C"/>
<ellipse cx="210.297" cy="62.3811" rx="6.5484" ry="7.86841" fill="#46265C"/>
<ellipse cx="210.297" cy="144.151" rx="6.5484" ry="7.86841" fill="#46265C"/>
<ellipse cx="210.297" cy="35.1247" rx="6.5484" ry="7.86839" fill="#46265C"/>
<ellipse cx="210.297" cy="198.664" rx="6.5484" ry="7.86842" fill="#46265C"/>
<ellipse cx="210.297" cy="89.6379" rx="6.5484" ry="7.8684" fill="#46265C"/>
<ellipse cx="244.256" cy="116.895" rx="6.54852" ry="7.86839" fill="#46265C"/>
<ellipse cx="244.256" cy="7.8684" rx="6.54852" ry="7.8684" fill="#46265C"/>
<ellipse cx="244.256" cy="171.407" rx="6.54852" ry="7.86841" fill="#46265C"/>
<ellipse cx="244.256" cy="62.3811" rx="6.54852" ry="7.86841" fill="#46265C"/>
<ellipse cx="244.256" cy="144.151" rx="6.54852" ry="7.86841" fill="#46265C"/>
<ellipse cx="244.256" cy="35.1247" rx="6.54852" ry="7.86839" fill="#46265C"/>
<ellipse cx="244.256" cy="198.664" rx="6.54852" ry="7.86842" fill="#46265C"/>
<ellipse cx="244.256" cy="89.6379" rx="6.54852" ry="7.8684" fill="#46265C"/>
<ellipse cx="6.54843" cy="335.101" rx="6.54843" ry="7.86836" fill="#46265C"/>
<ellipse cx="6.54843" cy="226.074" rx="6.54843" ry="7.86839" fill="#46265C"/>
<ellipse cx="6.54843" cy="389.614" rx="6.54843" ry="7.86836" fill="#46265C"/>
<ellipse cx="6.54843" cy="280.588" rx="6.54843" ry="7.86844" fill="#46265C"/>
<ellipse cx="6.54843" cy="362.358" rx="6.54843" ry="7.86839" fill="#46265C"/>
<ellipse cx="6.54843" cy="253.332" rx="6.54843" ry="7.86839" fill="#46265C"/>
<ellipse cx="6.54843" cy="416.87" rx="6.54843" ry="7.86842" fill="#46265C"/>
<ellipse cx="6.54843" cy="307.845" rx="6.54843" ry="7.86845" fill="#46265C"/>
<ellipse cx="40.5065" cy="335.101" rx="6.54846" ry="7.86836" fill="#46265C"/>
<ellipse cx="40.5065" cy="226.074" rx="6.54846" ry="7.86839" fill="#46265C"/>
<ellipse cx="40.5065" cy="389.615" rx="6.54846" ry="7.86839" fill="#46265C"/>
<ellipse cx="40.5065" cy="280.588" rx="6.54846" ry="7.86841" fill="#46265C"/>
<ellipse cx="40.5065" cy="362.358" rx="6.54846" ry="7.86839" fill="#46265C"/>
<ellipse cx="40.5065" cy="253.331" rx="6.54846" ry="7.86839" fill="#46265C"/>
<ellipse cx="40.5065" cy="416.87" rx="6.54846" ry="7.86847" fill="#46265C"/>
<ellipse cx="40.5065" cy="307.844" rx="6.54846" ry="7.86842" fill="#46265C"/>
<ellipse cx="74.4645" cy="335.101" rx="6.54849" ry="7.86836" fill="#46265C"/>
<ellipse cx="74.4645" cy="226.074" rx="6.54849" ry="7.86839" fill="#46265C"/>
<ellipse cx="74.4645" cy="389.615" rx="6.54849" ry="7.86839" fill="#46265C"/>
<ellipse cx="74.4645" cy="280.588" rx="6.54849" ry="7.86841" fill="#46265C"/>
<ellipse cx="74.4645" cy="362.358" rx="6.54849" ry="7.86839" fill="#46265C"/>
<ellipse cx="74.4645" cy="253.331" rx="6.54849" ry="7.86839" fill="#46265C"/>
<ellipse cx="74.4645" cy="416.87" rx="6.54849" ry="7.86847" fill="#46265C"/>
<ellipse cx="74.4645" cy="307.844" rx="6.54849" ry="7.86842" fill="#46265C"/>
<ellipse cx="108.422" cy="335.101" rx="6.54846" ry="7.86836" fill="#46265C"/>
<ellipse cx="108.423" cy="226.074" rx="6.54843" ry="7.86839" fill="#46265C"/>
<ellipse cx="108.422" cy="389.615" rx="6.54846" ry="7.86839" fill="#46265C"/>
<ellipse cx="108.422" cy="280.588" rx="6.54846" ry="7.86841" fill="#46265C"/>
<ellipse cx="108.422" cy="362.358" rx="6.54846" ry="7.86839" fill="#46265C"/>
<ellipse cx="108.422" cy="253.331" rx="6.54846" ry="7.86839" fill="#46265C"/>
<ellipse cx="108.422" cy="416.87" rx="6.54846" ry="7.86847" fill="#46265C"/>
<ellipse cx="108.422" cy="307.844" rx="6.54846" ry="7.86842" fill="#46265C"/>
<ellipse cx="142.381" cy="335.101" rx="6.54846" ry="7.86836" fill="#46265C"/>
<ellipse cx="142.381" cy="226.074" rx="6.54846" ry="7.86839" fill="#46265C"/>
<ellipse cx="142.381" cy="389.615" rx="6.54846" ry="7.86839" fill="#46265C"/>
<ellipse cx="142.381" cy="280.588" rx="6.54846" ry="7.86841" fill="#46265C"/>
<ellipse cx="142.381" cy="362.358" rx="6.54846" ry="7.86839" fill="#46265C"/>
<ellipse cx="142.381" cy="253.331" rx="6.54846" ry="7.86839" fill="#46265C"/>
<ellipse cx="142.381" cy="416.87" rx="6.54846" ry="7.86847" fill="#46265C"/>
<ellipse cx="142.381" cy="307.844" rx="6.54846" ry="7.86842" fill="#46265C"/>
<ellipse cx="176.339" cy="335.101" rx="6.54846" ry="7.86836" fill="#46265C"/>
<ellipse cx="176.339" cy="226.074" rx="6.54846" ry="7.86839" fill="#46265C"/>
<ellipse cx="176.339" cy="389.615" rx="6.54846" ry="7.86839" fill="#46265C"/>
<ellipse cx="176.339" cy="280.588" rx="6.54846" ry="7.86841" fill="#46265C"/>
<ellipse cx="176.339" cy="362.358" rx="6.54846" ry="7.86839" fill="#46265C"/>
<ellipse cx="176.339" cy="253.331" rx="6.54846" ry="7.86839" fill="#46265C"/>
<ellipse cx="176.339" cy="416.87" rx="6.54846" ry="7.86847" fill="#46265C"/>
<ellipse cx="176.339" cy="307.844" rx="6.54846" ry="7.86842" fill="#46265C"/>
<ellipse cx="210.297" cy="335.101" rx="6.5484" ry="7.86836" fill="#46265C"/>
<ellipse cx="210.297" cy="226.074" rx="6.5484" ry="7.86839" fill="#46265C"/>
<ellipse cx="210.297" cy="389.615" rx="6.5484" ry="7.86839" fill="#46265C"/>
<ellipse cx="210.297" cy="280.588" rx="6.5484" ry="7.86841" fill="#46265C"/>
<ellipse cx="210.297" cy="362.358" rx="6.5484" ry="7.86839" fill="#46265C"/>
<ellipse cx="210.297" cy="253.331" rx="6.5484" ry="7.86839" fill="#46265C"/>
<ellipse cx="210.297" cy="416.87" rx="6.5484" ry="7.86847" fill="#46265C"/>
<ellipse cx="210.297" cy="307.844" rx="6.5484" ry="7.86842" fill="#46265C"/>
<ellipse cx="244.256" cy="335.101" rx="6.54852" ry="7.86836" fill="#46265C"/>
<ellipse cx="244.256" cy="226.074" rx="6.54852" ry="7.86839" fill="#46265C"/>
<ellipse cx="244.256" cy="389.615" rx="6.54852" ry="7.86839" fill="#46265C"/>
<ellipse cx="244.256" cy="280.588" rx="6.54852" ry="7.86841" fill="#46265C"/>
<ellipse cx="244.256" cy="362.358" rx="6.54852" ry="7.86839" fill="#46265C"/>
<ellipse cx="244.256" cy="253.331" rx="6.54852" ry="7.86839" fill="#46265C"/>
<ellipse cx="244.256" cy="416.87" rx="6.54852" ry="7.86847" fill="#46265C"/>
<ellipse cx="244.256" cy="307.844" rx="6.54852" ry="7.86842" fill="#46265C"/>
</svg>
