<svg width="37" height="37" viewBox="0 0 37 37" fill="none" xmlns="http://www.w3.org/2000/svg">
<path d="M30.3052 6.59467C27.1423 3.45834 22.9538 1.73438 18.5028 1.73438C18.4785 1.73438 18.4537 1.73438 18.4294 1.73438C13.9512 1.75345 9.74768 3.515 6.59458 6.69527C3.44149 9.87553 1.71521 14.093 1.73429 18.5711C1.75337 23.0493 3.51491 27.2522 6.6946 30.4053C9.85752 33.5417 14.046 35.2656 18.497 35.2656C18.5213 35.2656 18.5462 35.2656 18.5704 35.2656C23.0486 35.2465 27.2521 33.485 30.4052 30.3047C33.5583 27.1245 35.2846 22.907 35.2655 18.4289C35.2465 13.9507 33.4849 9.74777 30.3052 6.59467ZM18.5658 34.1094C17.8143 34.1117 17.0714 34.0597 16.3395 33.9585V22.3307H12.7632V18.5312H16.3395V16.0031C16.3395 11.8175 18.3785 9.98017 21.8571 9.98017C23.5232 9.98017 24.4037 10.1039 24.8211 10.16V13.4761H22.4485C20.972 13.4761 20.4563 14.8763 20.4563 16.4546V18.5312H24.7841L24.1968 22.3307H20.4563V33.9839C19.8336 34.0614 19.2035 34.1065 18.5658 34.1094ZM29.5843 29.4907C27.3776 31.7165 24.6182 33.1954 21.6125 33.8001V23.4869H24.1968C24.7674 23.4869 25.2524 23.0712 25.3397 22.5076L25.9178 18.7683C25.934 18.6919 25.9421 18.6127 25.9421 18.5318C25.9421 17.893 25.4258 17.3755 24.7876 17.3755H24.7847H21.6131V16.4552C21.6131 15.7747 21.7218 14.6329 22.4491 14.6329H24.8217C25.4605 14.6329 25.978 14.1155 25.978 13.4767V10.1605C25.978 9.58184 25.5501 9.09217 24.9761 9.0147C24.502 8.95053 23.5683 8.8245 21.8577 8.8245C17.5541 8.8245 15.1838 11.374 15.1838 16.0037V17.3755H12.7638C12.1249 17.3755 11.6075 17.893 11.6075 18.5318V22.3312C11.6075 22.9701 12.1249 23.4875 12.7638 23.4875H15.1838V33.7527C12.3036 33.1318 9.65229 31.7096 7.50976 29.585C4.54802 26.6487 2.90788 22.7353 2.89054 18.5659C2.87319 14.3965 4.4798 10.4698 7.41552 7.50927C10.3512 4.54869 14.2646 2.90855 18.434 2.89062C18.4571 2.89062 18.4797 2.89062 18.5028 2.89062C22.6462 2.89062 26.5463 4.49608 29.4906 7.41561C32.4518 10.3513 34.0919 14.2647 34.1093 18.4341C34.1266 22.6035 32.52 26.5302 29.5843 29.4907ZM30.5446 25.3878C30.544 25.3884 30.5434 25.3895 30.5434 25.3895C30.3839 25.6653 30.0324 25.7607 29.7554 25.6023L28.7518 25.0288C28.4749 24.8704 28.3783 24.5171 28.5367 24.2402C28.5373 24.239 28.5379 24.2385 28.5385 24.2379C28.698 23.9621 29.0495 23.8667 29.3265 24.0251L30.3301 24.5986C30.607 24.7576 30.7036 25.1103 30.5446 25.3878ZM31.8309 22.2451C31.8176 22.296 31.7979 22.3434 31.7725 22.3879C31.6453 22.6082 31.3829 22.7255 31.125 22.6573L30.0069 22.3625C29.6976 22.2815 29.5144 21.9653 29.5953 21.656C29.6774 21.3496 29.9925 21.1628 30.3018 21.2444L31.4193 21.5386C31.728 21.6196 31.9118 21.9358 31.8309 22.2451ZM26.0121 29.3786C26.1202 29.5636 26.1127 29.7856 26.0126 29.959C25.9641 30.0434 25.893 30.1163 25.8034 30.1689C25.527 30.329 25.1732 30.2359 25.0125 29.9608L24.4303 28.9618C24.2696 28.686 24.3627 28.3322 24.6384 28.1715C24.9142 28.0102 25.2686 28.1032 25.4299 28.3802L26.0121 29.3786ZM32.261 18.8769C32.261 18.9833 32.2333 19.0827 32.1836 19.1683C32.0841 19.3406 31.8985 19.4562 31.6846 19.4574L30.5284 19.462C30.2093 19.4632 29.9491 19.2059 29.9479 18.8868C29.9462 18.5659 30.2035 18.3075 30.5238 18.3057L31.6806 18.3017C32.0003 18.3005 32.2599 18.5578 32.261 18.8769ZM28.4853 27.2736C28.6761 27.4627 28.7073 27.7517 28.5795 27.9732C28.5547 28.0159 28.524 28.0552 28.4888 28.0917C28.2639 28.3183 27.8979 28.32 27.6713 28.0946L26.8504 27.28C26.6231 27.0545 26.6266 26.6857 26.8475 26.4625C27.0723 26.2359 27.4383 26.2347 27.6649 26.4596L28.4853 27.2736ZM15.7018 5.55752C15.7544 5.7772 15.6735 5.9992 15.511 6.13564C15.4445 6.19172 15.3653 6.23334 15.2751 6.25473C14.845 6.35822 14.4183 6.48598 14.0056 6.63514C13.7044 6.74325 13.3731 6.58773 13.2656 6.28769C13.1569 5.98706 13.3136 5.6558 13.613 5.54769C14.0663 5.38466 14.534 5.24417 15.004 5.13144C15.315 5.05628 15.6272 5.24706 15.7018 5.55752ZM12.0365 6.8768C12.2018 7.14967 12.1174 7.50059 11.8411 7.67114C9.47538 9.10547 7.65429 11.3191 6.71426 13.9056C6.67841 14.0045 6.61887 14.0872 6.54371 14.1502C6.39051 14.2791 6.17487 14.3254 5.97483 14.2519C5.67421 14.1433 5.51985 13.8114 5.62854 13.5108C6.6576 10.6774 8.6504 8.25216 11.2421 6.68139C11.5156 6.51663 11.8717 6.60392 12.0365 6.8768Z" fill="#46265C"/>
</svg>
