<svg width="271" height="79" viewBox="0 0 271 79" fill="none" xmlns="http://www.w3.org/2000/svg">
<path d="M58.6112 13.0245L55.4762 8.68301L45.0075 23.1034V0H40.5298V23.1034L30.0611 8.68301L26.9266 13.0252L40.5298 31.941V40.624L30.0611 26.2044L18.0814 9.53592V0H13.6031V9.53592L0 28.4524L3.135 32.7946L13.6036 18.3743V27.0573L0 45.9738L3.135 50.3153L13.6036 35.8949V79H18.0814V35.8956L28.5501 50.3153L31.6845 45.9731L18.0814 27.0573V18.3743L26.9266 30.5459L27.822 31.7864L28.5501 32.7939L40.5298 49.4624V79H45.008V49.4624L58.6112 30.5459L55.4762 26.2037L45.0075 40.624V31.9417L58.6112 13.0245ZM71.3184 59.2306H76.357V42.8728H88.9524V36.5155H76.3565V26.1267H89.6795V19.7694H71.3179L71.3184 59.2306ZM118.454 24.3432C117.11 22.4828 115.431 21.0876 113.639 20.157C111.688 19.1554 109.617 18.6819 107.538 18.7619C105.466 18.7619 103.451 19.2265 101.492 20.2347C99.7007 21.1646 98.0773 22.5604 96.7335 24.4216C95.3902 26.282 94.3266 28.5301 93.5985 31.0112C92.808 33.7441 92.427 36.6722 92.4789 39.6165C92.423 42.4852 92.8145 45.3532 93.5985 48.0665C94.9982 53.0286 97.909 56.9049 101.492 58.7653C103.451 59.7735 105.466 60.2388 107.538 60.2388C109.609 60.2388 111.68 59.6959 113.639 58.6883C115.431 57.7578 117.055 56.2849 118.454 54.4238C119.798 52.5633 120.861 50.3922 121.589 47.9119C122.372 45.1985 122.764 42.3298 122.708 39.4612C122.764 36.5155 122.373 33.5692 121.589 30.8558C120.861 28.3748 119.798 26.2044 118.454 24.3432V24.3432ZM116.718 45.1209C116.271 46.8267 115.599 48.4541 114.703 49.7723C113.853 51.1074 112.802 52.1662 111.624 52.8733C110.337 53.6485 108.993 53.9592 107.594 53.9592C106.194 54.0369 104.851 53.6485 103.563 52.8733C102.385 52.1663 101.334 51.1075 100.484 49.7723C99.5883 48.4541 98.9167 46.8267 98.4688 45.1209C97.9654 43.2604 97.7412 41.3223 97.7412 39.3065C97.7412 37.4454 97.9649 35.5849 98.4688 33.8022C98.9167 32.174 99.5883 30.6235 100.484 29.3046C101.324 27.9871 102.388 26.9796 103.563 26.282C104.851 25.5061 106.194 25.1961 107.594 25.1961C108.993 25.1961 110.337 25.5068 111.624 26.282C112.8 26.9796 113.864 27.9871 114.703 29.3053C115.599 30.6235 116.271 32.174 116.718 33.8022C117.222 35.5849 117.446 37.4454 117.446 39.3065C117.446 41.3216 117.222 43.2604 116.718 45.1209ZM145.436 38.2983C146.612 36.2825 147.228 33.7245 147.172 31.0881C147.228 29.15 146.892 27.2896 146.276 25.5837C145.716 24.1886 144.932 22.9481 143.925 22.0959C142.861 21.2422 141.742 20.6223 140.51 20.3124C139.222 19.924 137.879 19.7694 136.535 19.7694H126.627V59.2306H131.721V42.5621H135.416L142.022 59.3082H148.123L140.566 41.7869C142.458 41.5642 144.209 40.3102 145.436 38.299V38.2983ZM137.823 36.3602L135.64 36.5155H131.721V25.8167H136.088L138.103 25.9721C138.718 26.0497 139.391 26.282 139.95 26.6696C140.51 26.9796 140.958 27.5218 141.294 28.2201C141.681 29.0466 141.858 30.0288 141.797 31.0112C141.853 32.0964 141.63 33.1039 141.238 34.0345C140.846 34.732 140.342 35.3527 139.782 35.6626C139.162 36.0482 138.5 36.2842 137.823 36.3602V36.3602ZM156.688 42.1745H169.788V35.8172H156.688V26.1267H170.515V19.7694H151.65V59.2306H171.243V52.8733H156.689L156.688 42.1745ZM190.332 38.6083C189.316 37.7486 188.225 37.0713 187.086 36.5925L183.839 35.1197C182.944 34.6553 182.097 34.0298 181.319 33.2592C180.648 32.484 180.256 31.3211 180.312 30.1582C180.312 29.383 180.424 28.5301 180.703 27.8325C180.983 27.2119 181.319 26.6696 181.767 26.282C182.215 25.8937 182.719 25.5837 183.279 25.4291C183.838 25.1961 184.454 25.1185 185.014 25.1185C185.966 25.1185 186.973 25.3515 187.869 25.8944C188.709 26.359 189.493 27.2119 189.996 28.2971L193.691 22.8704C192.628 21.4752 191.284 20.3893 189.885 19.7694C188.485 19.1495 186.973 18.8388 185.518 18.8388C184.23 18.8388 182.887 19.0718 181.656 19.5371C180.424 20.0017 179.304 20.7 178.296 21.7075C177.345 22.7158 176.505 23.9556 175.945 25.4284C175.33 27.0573 174.994 28.84 175.049 30.7005C174.994 32.6386 175.329 34.5767 176.057 36.2825C176.729 37.6784 177.569 38.7636 178.576 39.6165C179.593 40.4762 180.684 41.1535 181.823 41.6323L185.07 43.1821C185.965 43.6473 186.861 44.3449 187.588 45.1978C188.261 46.0507 188.652 47.2906 188.596 48.5311C188.596 49.384 188.428 50.2369 188.149 50.9345C187.869 51.6321 187.477 52.175 186.973 52.6403C186.469 53.1056 185.909 53.4156 185.349 53.6478C183.67 54.2685 181.879 53.9585 180.367 52.8726C179.415 52.175 178.576 51.0898 177.96 49.8493L174.098 54.8884C175.217 56.7488 176.672 58.1447 178.296 58.9976C179.919 59.8505 181.655 60.2381 183.39 60.2381C184.734 60.2381 186.077 60.0051 187.365 59.4629C188.563 58.9883 189.684 58.1985 190.668 57.1364C191.619 56.0512 192.403 54.7338 192.963 53.1826C193.578 51.3998 193.858 49.5393 193.803 47.6012C193.858 45.5855 193.523 43.6473 192.795 41.9415C192.163 40.5889 191.322 39.4497 190.332 38.6076V38.6083ZM195.986 26.1267H204.719V59.2306H209.758V26.1267H218.49V19.7694H195.986L195.986 26.1267ZM241.778 38.2983C242.953 36.2825 243.57 33.7245 243.513 31.0881C243.569 29.15 243.233 27.2896 242.618 25.5837C242.058 24.1886 241.274 22.9481 240.266 22.0959C239.203 21.2422 238.083 20.6223 236.852 20.3124C235.564 19.924 234.22 19.7694 232.877 19.7694H222.968V59.2306H228.062V42.5621H231.757L238.363 59.3082H244.465L236.908 41.7869C238.799 41.5644 240.551 40.3103 241.778 38.299L241.778 38.2983ZM234.165 36.3602L231.981 36.5155H228.063V25.8167H232.429L234.445 25.9721C235.06 26.0497 235.732 26.282 236.292 26.6696C236.852 26.9796 237.3 27.5218 237.636 28.2201C238.023 29.0466 238.2 30.0289 238.139 31.0112C238.195 32.0964 237.971 33.1039 237.58 34.0345C237.188 34.732 236.684 35.3527 236.124 35.6626C235.504 36.0483 234.841 36.2842 234.165 36.3602V36.3602ZM264.954 19.7694L257.844 35.5073L250.847 19.7694H244.521L255.213 42.3299V59.2306H260.252V42.3299L271 19.7694H264.954Z" fill="black"/>
</svg>
