<svg width="213" height="88" viewBox="0 0 213 88" fill="none" xmlns="http://www.w3.org/2000/svg">
<path d="M93.3337 15.4163C113.299 40.1817 12.5643 132.726 74.2757 59.0816C73.9963 45.4358 70.7054 41.1203 67.2643 40.6556C53.0502 53.9094 60.4516 39.7355 67.2643 40.6556C69.1875 38.8624 71.5063 36.5671 74.2757 33.6645C84.164 23.3007 88.1497 15.3107 89.3616 9.82762C82.1405 -2.14964 91.9169 -1.7336 89.3616 9.82762C90.3454 11.4594 91.6447 13.3212 93.3337 15.4163Z" fill="#C83B4C"/>
<path d="M74.2757 33.6645C84.164 23.3007 88.1497 15.3107 89.3616 9.82762M74.2757 33.6645C71.5063 36.5671 69.1875 38.8624 67.2643 40.6556M74.2757 33.6645C105.013 1.44866 78.7158 -7.83007 89.3616 9.82762M74.2757 33.6645C51.0366 58.0211 59.5299 39.611 67.2643 40.6556M67.2643 40.6556C70.7054 41.1203 73.9963 45.4358 74.2757 59.0816C12.5643 132.726 113.299 40.1817 93.3337 15.4163C91.6447 13.3212 90.3454 11.4594 89.3616 9.82762M67.2643 40.6556C53.0502 53.9094 60.4516 39.7355 67.2643 40.6556ZM89.3616 9.82762C82.1405 -2.14964 91.9169 -1.7336 89.3616 9.82762Z" stroke="#C83B4C"/>
<path d="M13.11 37C12.88 37 12.581 36.7087 12.213 36.126C11.845 35.528 11.3313 34.585 10.672 33.297C10.1047 32.193 9.62933 31.3037 9.246 30.629C8.86267 29.9543 8.49467 29.3947 8.142 28.95L6.095 31.296V35.39L8.073 35.643V37H0.92V35.62L2.737 35.39V21.636L0.943 21.337V19.911H7.866V21.337L6.095 21.636V29.134L12.144 21.636L10.258 21.337V19.911H16.468V21.337L14.559 21.636L10.097 26.65C10.6337 27.1407 11.201 27.8383 11.799 28.743C12.397 29.6323 13.1253 30.7977 13.984 32.239C14.6127 33.297 15.088 34.0713 15.41 34.562C15.732 35.0373 15.9773 35.3133 16.146 35.39L17.227 35.643V37H13.11ZM19.8972 21.636L18.1262 21.337V19.911H25.4862V21.337L23.2782 21.636V35.367L28.2002 35.16L29.6492 30.859L31.5122 31.112L30.7992 37H18.0802V35.62L19.8972 35.39V21.636ZM37.6921 30.215L32.7701 21.636L31.4591 21.337V19.911H38.2211V21.337L36.5881 21.636L39.4631 27.271L40.1071 28.858L40.7741 27.271L43.4191 21.636L41.6251 21.337V19.911H47.2371V21.337L45.8111 21.613L41.2341 30.192V35.39L43.7411 35.62V37H35.2541V35.62L37.6921 35.39V30.215ZM50.4886 21.636L48.0046 21.337V19.911H55.1806L57.9176 29.801L58.5616 32.492L59.1136 29.801L61.8276 19.911H68.9346V21.337L66.4276 21.636L68.2676 35.367L70.1306 35.62V37H62.7936V35.62L64.8176 35.39L63.8056 25.316L63.3686 21.107L62.5176 24.649L59.1826 36.287H56.7446L53.3406 25.247L52.1676 21.107L51.8226 25.316L50.9486 35.39L53.2716 35.62V37H46.8776V35.62L48.8096 35.39L50.4886 21.636ZM72.9044 21.636L71.1104 21.337V19.911H74.5374C75.0588 19.911 75.7334 19.8803 76.5614 19.819C76.7608 19.8037 76.9984 19.7883 77.2744 19.773C77.5504 19.7577 77.8724 19.75 78.2404 19.75C80.5558 19.75 82.1734 20.0797 83.0934 20.739C84.0288 21.383 84.4964 22.349 84.4964 23.637C84.4964 24.7717 84.1514 25.7223 83.4614 26.489C82.7868 27.2403 81.8974 27.7003 80.7934 27.869C82.3114 27.8537 83.4998 28.1987 84.3584 28.904C85.2324 29.6093 85.6694 30.5907 85.6694 31.848C85.6694 33.4427 85.1098 34.723 83.9904 35.689C82.8711 36.655 81.0004 37.138 78.3784 37.138C77.6884 37.138 77.0521 37.115 76.4694 37.069C76.3161 37.069 76.0554 37.0537 75.6874 37.023C75.3194 37.0077 74.9438 37 74.5604 37H71.0874V35.62L72.9044 35.39V21.636ZM76.2394 27.363C76.4081 27.3783 76.7531 27.386 77.2744 27.386H78.3554C79.2908 27.386 79.9884 27.0947 80.4484 26.512C80.9084 25.9293 81.1384 25.109 81.1384 24.051C81.1384 23.039 80.9008 22.303 80.4254 21.843C79.9501 21.383 79.1604 21.153 78.0564 21.153C77.7651 21.153 77.1594 21.1837 76.2394 21.245V27.363ZM76.2394 35.482C76.5921 35.62 77.2668 35.689 78.2634 35.689C79.5668 35.689 80.5098 35.3823 81.0924 34.769C81.6751 34.1557 81.9664 33.2663 81.9664 32.101C81.9664 30.9817 81.6981 30.1843 81.1614 29.709C80.6401 29.2183 79.8044 28.973 78.6544 28.973C77.3664 28.973 76.5614 28.9883 76.2394 29.019V35.482ZM94.5792 21.636L92.8542 21.337V19.911H96.2122C96.7182 19.911 97.4006 19.8803 98.2592 19.819C98.4586 19.8037 98.7576 19.7883 99.1562 19.773C99.5702 19.7577 99.9382 19.75 100.26 19.75C103.082 19.75 105.19 20.4553 106.585 21.866C107.996 23.2767 108.701 25.2777 108.701 27.869C108.701 29.6783 108.349 31.2883 107.643 32.699C106.953 34.1097 105.964 35.2137 104.676 36.011C103.388 36.793 101.886 37.184 100.168 37.184C99.7236 37.184 99.0259 37.1533 98.0752 37.092C97.1859 37.0307 96.5802 37 96.2582 37H92.7622V35.62L94.5792 35.39V21.636ZM97.9142 35.459C98.4356 35.597 99.1639 35.666 100.099 35.666C101.633 35.6353 102.836 35.022 103.71 33.826C104.584 32.6147 105.021 30.8053 105.021 28.398C105.021 26.1133 104.592 24.35 103.733 23.108C102.875 21.8507 101.541 21.222 99.7312 21.222C99.3479 21.222 98.9799 21.245 98.6272 21.291C98.2899 21.337 98.0522 21.3677 97.9142 21.383V35.459ZM112.375 21.636L110.42 21.337V19.911H117.78V21.337L115.756 21.636V35.39L117.78 35.643V37H110.42V35.62L112.375 35.39V21.636ZM127.696 37.253C126.01 37.253 124.553 36.885 123.326 36.149C122.115 35.3977 121.195 34.3703 120.566 33.067C119.938 31.7637 119.623 30.2917 119.623 28.651C119.623 26.765 119.984 25.1473 120.704 23.798C121.44 22.4487 122.475 21.429 123.809 20.739C125.143 20.049 126.7 19.704 128.478 19.704C130.15 19.704 132.028 19.9417 134.113 20.417L133.86 24.695H131.537L130.916 21.751C130.763 21.5977 130.472 21.4597 130.042 21.337C129.613 21.199 129.053 21.13 128.363 21.13C126.861 21.13 125.68 21.7433 124.821 22.97C123.963 24.1813 123.533 25.937 123.533 28.237C123.533 30.491 123.901 32.3157 124.637 33.711C125.373 35.091 126.493 35.781 127.995 35.781C128.609 35.781 129.184 35.7043 129.72 35.551C130.257 35.3977 130.663 35.1983 130.939 34.953V30.008L128.501 29.778V28.237H135.493V29.778L134.274 29.985V36.08C133.952 36.0953 133.37 36.2257 132.526 36.471C131.545 36.7317 130.702 36.9233 129.996 37.046C129.306 37.184 128.54 37.253 127.696 37.253ZM138.947 21.636L136.992 21.337V19.911H144.352V21.337L142.328 21.636V35.39L144.352 35.643V37H136.992V35.62L138.947 35.39V21.636ZM151.876 21.429L148.587 21.544L147.69 26.558H145.758L146.149 19.911H160.984L161.26 26.558H159.443L158.546 21.544L155.303 21.429V35.39L158.523 35.62V37H148.932V35.62L151.876 35.39V21.429ZM168.043 19.819H171.562L176.875 35.39L178.209 35.62V37H171.424V35.62L173.149 35.39L172.252 32.4H166.295L165.398 35.413L167.261 35.62V37H161.396L161.373 35.62L162.753 35.39L168.043 19.819ZM169.63 23.706L169.216 21.912L168.779 23.729L166.732 30.79H171.792L169.63 23.706ZM180.65 21.636L178.879 21.337V19.911H186.239V21.337L184.031 21.636V35.367L188.953 35.16L190.402 30.859L192.265 31.112L191.552 37H178.833V35.62L180.65 35.39V21.636Z" fill="#46265C"/>
</svg>
