<svg width="594" height="441" viewBox="0 0 594 441" fill="none" xmlns="http://www.w3.org/2000/svg">
<g clip-path="url(#clip0)">
<path opacity="0.4" d="M402.359 274.212C426.855 274.212 446.714 252.47 446.714 225.65C446.714 198.83 426.855 177.087 402.359 177.087C377.862 177.087 358.004 198.83 358.004 225.65C358.004 252.47 377.862 274.212 402.359 274.212Z" fill="#C83B4C"/>
<path d="M403.371 292.845H156.032V366.24H403.371V292.845Z" fill="#46265C"/>
<path d="M387.529 111.004L377.653 116.122L386.394 108.966C384.973 106.538 383.377 104.239 381.622 102.09L338.79 113.746L377.479 97.5872C375.711 95.8794 373.833 94.3125 371.861 92.8987L306.595 104.409C299.666 113.896 295.888 125.681 295.883 137.829H394.125C394.121 128.408 391.846 119.154 387.529 111.004Z" fill="#46265C"/>
<path d="M395.352 32.3507C356.094 11.3865 312.979 0.523422 269.3 0.591135C180.402 0.591135 100.923 44.7249 48.1328 114.068C138.531 92.3822 295.922 54.8424 395.352 32.3507Z" fill="#46265C"/>
<path d="M589.454 439.635H0V440.901H589.454V439.635Z" fill="#5E1043"/>
<path d="M344.348 137.829L310.908 83.4463C310.908 83.4463 361.55 102.803 355.803 137.829H344.348Z" fill="#46265C"/>
<path d="M345.66 137.829L379.1 83.4463C379.1 83.4463 328.458 102.803 334.206 137.829H345.66Z" fill="#C83B4C"/>
<path d="M403.66 440.901H155.743V35.9612H403.66V440.901ZM156.899 439.635H402.504V37.2266H156.899V439.635Z" fill="#5E1043"/>
<path d="M403.371 45.5667H156.61V46.8321H403.371V45.5667Z" fill="#5E1043"/>
<path d="M162.967 43.5539C164.243 43.5539 165.278 42.4208 165.278 41.0231C165.278 39.6253 164.243 38.4922 162.967 38.4922C161.69 38.4922 160.655 39.6253 160.655 41.0231C160.655 42.4208 161.69 43.5539 162.967 43.5539Z" fill="#C83B4C"/>
<path d="M169.324 43.5539C170.6 43.5539 171.635 42.4208 171.635 41.0231C171.635 39.6253 170.6 38.4922 169.324 38.4922C168.047 38.4922 167.012 39.6253 167.012 41.0231C167.012 42.4208 168.047 43.5539 169.324 43.5539Z" fill="#C83B4C"/>
<path d="M175.68 43.5539C176.957 43.5539 177.992 42.4208 177.992 41.0231C177.992 39.6253 176.957 38.4922 175.68 38.4922C174.404 38.4922 173.369 39.6253 173.369 41.0231C173.369 42.4208 174.404 43.5539 175.68 43.5539Z" fill="#C83B4C"/>
<path d="M175.68 54.3101H165.278V60.6372H175.68V54.3101Z" fill="#C83B4C"/>
<path d="M216.133 104.295H165.278V110.622H216.133V104.295Z" fill="#C83B4C"/>
<path d="M346.16 60.6372L397.015 60.6372V54.31L346.16 54.31V60.6372Z" fill="#46265C"/>
<path d="M250.807 115.051H165.278V118.847H250.807V115.051Z" fill="#46265C"/>
<path d="M246.184 123.276H165.278V127.073H246.184V123.276Z" fill="#46265C"/>
<path d="M224.224 131.502H165.278V135.298H224.224V131.502Z" fill="#46265C"/>
<path d="M218.445 244.125H184.927V247.922H218.445V244.125Z" fill="#46265C"/>
<path d="M216.633 252.351H184.927V256.147H216.633V252.351Z" fill="#46265C"/>
<path d="M208.027 260.576H184.927V264.372H208.027V260.576Z" fill="#46265C"/>
<path d="M296.461 244.125H262.943V247.922H296.461V244.125Z" fill="#46265C"/>
<path d="M294.649 252.351H262.943V256.147H294.649V252.351Z" fill="#46265C"/>
<path d="M286.043 260.576H262.943V264.372H286.043V260.576Z" fill="#46265C"/>
<path d="M377.366 244.125H343.848V247.922H377.366V244.125Z" fill="#46265C"/>
<path d="M375.554 252.351H343.848V256.147H375.554V252.351Z" fill="#46265C"/>
<path d="M366.948 260.576H343.848V264.372H366.948V260.576Z" fill="#46265C"/>
<path d="M287.792 387.752H236.938V394.08H287.792V387.752Z" fill="#C83B4C"/>
<path d="M322.466 398.509H236.938V402.305H322.466V398.509Z" fill="#46265C"/>
<path d="M317.843 406.734H236.938V410.53H317.843V406.734Z" fill="#46265C"/>
<path d="M295.883 414.959H236.938V418.756H295.883V414.959Z" fill="#46265C"/>
<path opacity="0.3" d="M381.7 172.628H180.593V173.894H381.7V172.628Z" fill="#C83B4C"/>
<path opacity="0.3" d="M223.068 194.773H180.304V236.533H223.068V194.773Z" fill="#C83B4C"/>
<path d="M301.084 194.773H258.32V236.533H301.084V194.773Z" fill="#46265C"/>
<path d="M381.989 194.773H339.225V236.533H381.989V194.773Z" fill="#46265C"/>
<path d="M274.13 236.357L273.566 236.345C273.578 235.661 273.931 219.54 279.728 215.083L280.052 215.589C274.489 219.865 274.133 236.193 274.13 236.357Z" fill="#C83B4C"/>
<path d="M282.71 214.88C284.268 214.88 285.531 213.497 285.531 211.791C285.531 210.085 284.268 208.703 282.71 208.703C281.152 208.703 279.889 210.085 279.889 211.791C279.889 213.497 281.152 214.88 282.71 214.88Z" fill="#C83B4C"/>
<path d="M282.14 222.696C280.673 223.201 279.11 223.275 277.608 222.911C278.562 221.582 279.846 220.583 281.306 220.034C282.766 219.486 284.34 219.412 285.838 219.82C284.856 221.117 283.581 222.109 282.14 222.696Z" fill="#C83B4C"/>
<path d="M355.035 236.357L354.471 236.345C354.483 235.661 354.836 219.54 360.633 215.083L360.957 215.589C355.394 219.865 355.038 236.193 355.035 236.357Z" fill="#C83B4C"/>
<path d="M363.616 214.88C365.174 214.88 366.437 213.497 366.437 211.791C366.437 210.085 365.174 208.703 363.616 208.703C362.058 208.703 360.795 210.085 360.795 211.791C360.795 213.497 362.058 214.88 363.616 214.88Z" fill="#C83B4C"/>
<path d="M363.045 222.696C361.578 223.201 360.016 223.275 358.514 222.911C359.467 221.582 360.751 220.583 362.211 220.034C363.672 219.486 365.245 219.412 366.743 219.82C365.762 221.117 364.487 222.109 363.045 222.696Z" fill="#C83B4C"/>
<path d="M216.133 316.255H165.278V322.583H216.133V316.255Z" fill="#C83B4C"/>
<path d="M250.807 327.011H165.278V330.808H250.807V327.011Z" fill="#46265C"/>
<path d="M246.184 335.237H165.278V339.033H246.184V335.237Z" fill="#46265C"/>
<path d="M224.224 343.462H165.278V347.258H224.224V343.462Z" fill="#46265C"/>
<path opacity="0.4" d="M353.529 344.758C363.502 344.758 371.587 335.906 371.587 324.987C371.587 314.067 363.502 305.216 353.529 305.216C343.556 305.216 335.471 314.067 335.471 324.987C335.471 335.906 343.556 344.758 353.529 344.758Z" fill="#C83B4C"/>
<path opacity="0.4" d="M320.108 348.299C327.104 348.299 332.776 342.089 332.776 334.43C332.776 326.77 327.104 320.56 320.108 320.56C313.112 320.56 307.441 326.77 307.441 334.43C307.441 342.089 313.112 348.299 320.108 348.299Z" fill="#C83B4C"/>
<path d="M96.7976 419.072C122.012 419.072 142.451 396.693 142.451 369.087C142.451 341.481 122.012 319.103 96.7976 319.103C71.5837 319.103 51.1438 341.481 51.1438 369.087C51.1438 396.693 71.5837 419.072 96.7976 419.072Z" fill="#5E1043"/>
<path d="M89.8629 408.316H75.9934V435.523H89.8629V408.316Z" fill="#5E1043"/>
<path d="M117.602 408.316H103.732V435.523H117.602V408.316Z" fill="#5E1043"/>
<path d="M87.5513 440.585C93.9346 440.585 99.1093 438.46 99.1093 435.839C99.1093 433.218 93.9346 431.094 87.5513 431.094C81.1681 431.094 75.9934 433.218 75.9934 435.839C75.9934 438.46 81.1681 440.585 87.5513 440.585Z" fill="#5E1043"/>
<path d="M115.29 439.952C121.674 439.952 126.848 437.827 126.848 435.206C126.848 432.586 121.674 430.461 115.29 430.461C108.907 430.461 103.732 432.586 103.732 435.206C103.732 437.827 108.907 439.952 115.29 439.952Z" fill="#5E1043"/>
<path d="M97.9533 373.516C106.571 373.516 113.557 365.868 113.557 356.433C113.557 346.998 106.571 339.35 97.9533 339.35C89.3359 339.35 82.3501 346.998 82.3501 356.433C82.3501 365.868 89.3359 373.516 97.9533 373.516Z" fill="#FBF8CA"/>
<path d="M97.9535 354.535C100.826 354.535 103.155 351.985 103.155 348.84C103.155 345.695 100.826 343.146 97.9535 343.146C95.081 343.146 92.7524 345.695 92.7524 348.84C92.7524 351.985 95.081 354.535 97.9535 354.535Z" fill="#46265C"/>
<path d="M52.5119 322.603C48.8255 304.528 60.6093 286.263 78.8316 281.809C97.0539 277.354 114.814 288.395 118.501 306.47C122.187 324.546 110.11 331.212 91.8881 335.667C73.6658 340.122 56.1982 340.678 52.5119 322.603Z" fill="#C83B4C"/>
<path d="M137.841 317.084C143.153 304.567 144.551 292.939 140.961 291.113C137.372 289.287 130.156 297.954 124.843 310.472C119.531 322.989 118.134 334.617 121.723 336.443C125.312 338.269 132.528 329.602 137.841 317.084Z" fill="#5E1043"/>
<path d="M58.2262 351.052C61.7241 349.025 59.7786 337.492 53.8807 325.293C47.9829 313.093 40.3661 304.847 36.8682 306.874C33.3703 308.902 35.3158 320.434 41.2137 332.634C47.1116 344.833 54.7283 353.079 58.2262 351.052Z" fill="#5E1043"/>
<path d="M482.086 355.235C485.779 353.677 485.097 341.973 480.563 329.093C476.029 316.214 469.36 307.037 465.667 308.595C461.974 310.153 462.656 321.858 467.19 334.737C471.724 347.616 478.393 356.794 482.086 355.235Z" fill="#5E1043"/>
<path d="M516.171 419.516C541.385 419.516 561.825 397.137 561.825 369.531C561.825 341.926 541.385 319.547 516.171 319.547C490.957 319.547 470.517 341.926 470.517 369.531C470.517 397.137 490.957 419.516 516.171 419.516Z" fill="#5E1043"/>
<path d="M523.274 435.943L537.143 435.9L537.073 408.693L523.204 408.736L523.274 435.943Z" fill="#5E1043"/>
<path d="M495.536 436.03L509.406 435.988L509.336 408.781L495.467 408.824L495.536 436.03Z" fill="#5E1043"/>
<path d="M525.6 441C531.983 440.98 537.153 438.84 537.146 436.219C537.139 433.598 531.959 431.49 525.576 431.509C519.193 431.529 514.024 433.669 514.03 436.29C514.037 438.911 519.217 441.019 525.6 441Z" fill="#5E1043"/>
<path d="M497.86 440.452C504.243 440.433 509.412 438.292 509.405 435.671C509.399 433.051 504.219 430.942 497.835 430.962C491.452 430.981 486.283 433.122 486.289 435.742C486.296 438.363 491.476 440.472 497.86 440.452Z" fill="#5E1043"/>
<path d="M514.983 373.964C523.6 373.964 530.586 366.316 530.586 356.881C530.586 347.446 523.6 339.797 514.983 339.797C506.365 339.797 499.379 347.446 499.379 356.881C499.379 366.316 506.365 373.964 514.983 373.964Z" fill="#FBF8CA"/>
<path d="M514.983 362.575C517.855 362.575 520.184 360.026 520.184 356.881C520.184 353.736 517.855 351.186 514.983 351.186C512.11 351.186 509.781 353.736 509.781 356.881C509.781 360.026 512.11 362.575 514.983 362.575Z" fill="#46265C"/>
<path d="M560.338 322.911C563.978 304.825 552.147 286.597 533.914 282.198C515.68 277.799 497.948 288.895 494.308 306.981C490.668 325.068 502.761 331.697 520.995 336.096C539.228 340.495 556.697 340.998 560.338 322.911Z" fill="#C83B4C"/>
<path d="M570.622 353.26C581.997 347.31 589.836 339.317 588.13 335.407C586.424 331.498 575.819 333.151 564.444 339.101C553.068 345.051 545.229 353.044 546.935 356.954C548.641 360.864 559.246 359.21 570.622 353.26Z" fill="#5E1043"/>
<path d="M538.642 387.495C538.654 392.387 527.174 402.083 514.407 402.122C501.641 402.161 489.636 388.425 489.623 383.533C489.611 378.64 501.596 384.445 514.362 384.406C527.129 384.367 538.629 382.603 538.642 387.495Z" fill="#FBF8CA"/>
<path opacity="0.4" d="M530.074 366.903C565.261 366.903 593.786 335.672 593.786 297.147C593.786 258.622 565.261 227.391 530.074 227.391C494.887 227.391 466.362 258.622 466.362 297.147C466.362 335.672 494.887 366.903 530.074 366.903Z" fill="#C83B4C"/>
<path d="M110.034 271.135C135.248 271.135 155.688 248.756 155.688 221.15C155.688 193.545 135.248 171.166 110.034 171.166C84.8203 171.166 64.3804 193.545 64.3804 221.15C64.3804 248.756 84.8203 271.135 110.034 271.135Z" fill="#5E1043"/>
<path d="M96.8279 258.399L83.1802 255.694L78.7536 282.466L92.4013 285.171L96.8279 258.399Z" fill="#5E1043"/>
<path d="M124.123 263.809L110.476 261.104L106.049 287.876L119.697 290.581L124.123 263.809Z" fill="#5E1043"/>
<path d="M124.073 300.772C125.62 298.772 122.925 293.489 118.054 288.972C113.183 284.456 107.98 282.415 106.433 284.415C104.886 286.415 107.581 291.698 112.452 296.215C117.323 300.731 122.526 302.772 124.073 300.772Z" fill="#5E1043"/>
<path d="M97.3462 295.474C98.8932 293.474 96.1985 288.192 91.3274 283.675C86.4563 279.158 81.2534 277.118 79.7064 279.118C78.1594 281.118 80.8541 286.401 85.7252 290.917C90.5963 295.434 95.7992 297.474 97.3462 295.474Z" fill="#5E1043"/>
<path d="M113.23 226.007C121.848 226.007 128.834 218.359 128.834 208.924C128.834 199.489 121.848 191.841 113.23 191.841C104.613 191.841 97.6272 199.489 97.6272 208.924C97.6272 218.359 104.613 226.007 113.23 226.007Z" fill="#FBF8CA"/>
<path d="M119.643 208.495C122.516 208.495 124.844 205.945 124.844 202.8C124.844 199.655 122.516 197.106 119.643 197.106C116.771 197.106 114.442 199.655 114.442 202.8C114.442 205.945 116.771 208.495 119.643 208.495Z" fill="#46265C"/>
<path d="M74.0196 166.772C73.3331 148.267 87.8999 132.593 106.556 131.764C125.211 130.934 140.891 145.263 141.578 163.768C142.264 182.273 129.296 186.478 110.641 187.307C91.9849 188.137 74.7062 185.278 74.0196 166.772Z" fill="#C83B4C"/>
<path d="M153.79 219.691C166.078 216.608 175.323 210.684 174.439 206.46C173.555 202.236 162.876 201.313 150.588 204.396C138.3 207.48 129.055 213.404 129.939 217.628C130.823 221.851 141.502 222.775 153.79 219.691Z" fill="#5E1043"/>
<path d="M64.1737 236.008C76.4619 232.925 85.7067 227.001 84.8225 222.777C83.9382 218.553 73.2598 217.629 60.9716 220.713C48.6833 223.797 39.4385 229.721 40.3227 233.945C41.207 238.168 51.8854 239.092 64.1737 236.008Z" fill="#5E1043"/>
<path d="M97.4955 240.849C97.0041 243.821 97.6112 246.885 99.1833 249.367C100.755 251.85 103.164 253.546 105.878 254.084C108.593 254.622 111.392 253.958 113.659 252.237C115.926 250.515 117.476 247.879 117.967 244.906C118.99 238.717 114.62 236.527 108.967 235.406C103.314 234.286 98.5189 234.659 97.4955 240.849Z" fill="#FBF8CA"/>
<path d="M217.531 180.547L176.568 167.101L165.615 207.102L206.578 220.548L217.531 180.547Z" fill="#46265C"/>
<path d="M180.805 211.905L180.268 211.716C180.459 211.064 185.025 195.732 191.747 193.287L191.924 193.873C185.474 196.22 180.851 211.748 180.805 211.905Z" fill="#C83B4C"/>
<path d="M195.467 194.159C197.025 194.159 198.288 192.777 198.288 191.071C198.288 189.365 197.025 187.982 195.467 187.982C193.909 187.982 192.646 189.365 192.646 191.071C192.646 192.777 193.909 194.159 195.467 194.159Z" fill="#C83B4C"/>
<path d="M192.061 201.338C190.523 201.36 189.007 200.939 187.664 200.118C188.926 199.145 190.418 198.592 191.96 198.526C193.502 198.459 195.029 198.883 196.357 199.745C195.077 200.679 193.595 201.228 192.061 201.338Z" fill="#C83B4C"/>
<ellipse cx="431.222" cy="129.756" rx="5.22247" ry="5.81912" fill="#5E1043"/>
<ellipse cx="431.222" cy="17.8191" rx="5.22247" ry="5.81914" fill="#5E1043"/>
<ellipse cx="431.222" cy="185.725" rx="5.22247" ry="5.81914" fill="#5E1043"/>
<ellipse cx="431.222" cy="73.7876" rx="5.22247" ry="5.81914" fill="#5E1043"/>
<ellipse cx="431.222" cy="157.741" rx="5.22247" ry="5.81915" fill="#5E1043"/>
<ellipse cx="431.222" cy="45.8035" rx="5.22247" ry="5.81913" fill="#5E1043"/>
<ellipse cx="431.222" cy="213.709" rx="5.22247" ry="5.81915" fill="#5E1043"/>
<ellipse cx="431.222" cy="101.772" rx="5.22247" ry="5.81915" fill="#5E1043"/>
<ellipse cx="459.295" cy="129.756" rx="5.22241" ry="5.81912" fill="#5E1043"/>
<ellipse cx="459.295" cy="17.8191" rx="5.22241" ry="5.81914" fill="#5E1043"/>
<ellipse cx="459.295" cy="185.725" rx="5.22241" ry="5.81914" fill="#5E1043"/>
<ellipse cx="459.295" cy="73.7876" rx="5.22241" ry="5.81914" fill="#5E1043"/>
<ellipse cx="459.295" cy="157.741" rx="5.22241" ry="5.81915" fill="#5E1043"/>
<ellipse cx="459.295" cy="45.8035" rx="5.22241" ry="5.81913" fill="#5E1043"/>
<ellipse cx="459.295" cy="213.709" rx="5.22241" ry="5.81915" fill="#5E1043"/>
<ellipse cx="459.295" cy="101.772" rx="5.22241" ry="5.81915" fill="#5E1043"/>
<ellipse cx="487.368" cy="129.756" rx="5.22235" ry="5.81912" fill="#5E1043"/>
<ellipse cx="487.368" cy="17.8191" rx="5.22235" ry="5.81914" fill="#5E1043"/>
<ellipse cx="487.368" cy="185.725" rx="5.22235" ry="5.81914" fill="#5E1043"/>
<ellipse cx="487.368" cy="73.7876" rx="5.22235" ry="5.81914" fill="#5E1043"/>
<ellipse cx="487.368" cy="157.741" rx="5.22235" ry="5.81915" fill="#5E1043"/>
<ellipse cx="487.368" cy="45.8035" rx="5.22235" ry="5.81913" fill="#5E1043"/>
<ellipse cx="487.368" cy="213.709" rx="5.22235" ry="5.81915" fill="#5E1043"/>
<ellipse cx="487.368" cy="101.772" rx="5.22235" ry="5.81915" fill="#5E1043"/>
<ellipse cx="515.441" cy="129.756" rx="5.22241" ry="5.81912" fill="#5E1043"/>
<ellipse cx="515.441" cy="17.8191" rx="5.22241" ry="5.81914" fill="#5E1043"/>
<ellipse cx="515.441" cy="185.725" rx="5.22241" ry="5.81914" fill="#5E1043"/>
<ellipse cx="515.441" cy="73.7876" rx="5.22241" ry="5.81914" fill="#5E1043"/>
<ellipse cx="515.441" cy="157.741" rx="5.22241" ry="5.81915" fill="#5E1043"/>
<ellipse cx="515.441" cy="45.8035" rx="5.22241" ry="5.81913" fill="#5E1043"/>
<ellipse cx="515.441" cy="213.709" rx="5.22241" ry="5.81915" fill="#5E1043"/>
<ellipse cx="515.441" cy="101.772" rx="5.22241" ry="5.81915" fill="#5E1043"/>
<ellipse cx="543.514" cy="129.756" rx="5.22241" ry="5.81912" fill="#5E1043"/>
<ellipse cx="543.514" cy="17.8191" rx="5.22241" ry="5.81914" fill="#5E1043"/>
<ellipse cx="543.514" cy="185.725" rx="5.22241" ry="5.81914" fill="#5E1043"/>
<ellipse cx="543.514" cy="73.7876" rx="5.22241" ry="5.81914" fill="#5E1043"/>
<ellipse cx="543.514" cy="157.741" rx="5.22241" ry="5.81915" fill="#5E1043"/>
<ellipse cx="543.514" cy="45.8035" rx="5.22241" ry="5.81913" fill="#5E1043"/>
<ellipse cx="543.514" cy="213.709" rx="5.22241" ry="5.81915" fill="#5E1043"/>
<ellipse cx="543.514" cy="101.772" rx="5.22241" ry="5.81915" fill="#5E1043"/>
<ellipse cx="571.587" cy="129.756" rx="5.22247" ry="5.81912" fill="#5E1043"/>
<ellipse cx="571.587" cy="17.8191" rx="5.22247" ry="5.81914" fill="#5E1043"/>
<ellipse cx="571.587" cy="185.725" rx="5.22247" ry="5.81914" fill="#5E1043"/>
<ellipse cx="571.587" cy="73.7876" rx="5.22247" ry="5.81914" fill="#5E1043"/>
<ellipse cx="571.587" cy="157.741" rx="5.22247" ry="5.81915" fill="#5E1043"/>
<ellipse cx="571.587" cy="45.8035" rx="5.22247" ry="5.81913" fill="#5E1043"/>
<ellipse cx="571.587" cy="213.709" rx="5.22247" ry="5.81915" fill="#5E1043"/>
<ellipse cx="571.587" cy="101.772" rx="5.22247" ry="5.81915" fill="#5E1043"/>
</g>
<defs>
<clipPath id="clip0">
<rect width="593.786" height="440.409" fill="white" transform="translate(0 0.591064)"/>
</clipPath>
</defs>
</svg>
