<svg width="37" height="37" viewBox="0 0 37 37" fill="none" xmlns="http://www.w3.org/2000/svg">
<path d="M7.51562 3.46875C5.28442 3.46875 3.46875 5.28442 3.46875 7.51562V29.4844C3.46875 31.7156 5.28442 33.5312 7.51562 33.5312H29.4844C31.7156 33.5312 33.5312 31.7156 33.5312 29.4844V7.51562C33.5312 5.28442 31.7156 3.46875 29.4844 3.46875H7.51562ZM7.51562 4.625H29.4844C31.0787 4.625 32.375 5.92126 32.375 7.51562V29.4844C32.375 31.0787 31.0787 32.375 29.4844 32.375H7.51562C5.92126 32.375 4.625 31.0787 4.625 29.4844V7.51562C4.625 5.92126 5.92126 4.625 7.51562 4.625ZM6.9375 6.9375C6.61682 6.9375 6.35938 7.1972 6.35938 7.51562V8.67188C6.35938 8.9903 6.61682 9.25 6.9375 9.25C7.25818 9.25 7.51562 8.9903 7.51562 8.67188V7.51562C7.51562 7.1972 7.25818 6.9375 6.9375 6.9375ZM9.82812 6.9375C9.50745 6.9375 9.25 7.1972 9.25 7.51562V8.67188C9.25 8.9903 9.50745 9.25 9.82812 9.25C10.1488 9.25 10.4062 8.9903 10.4062 8.67188V7.51562C10.4062 7.1972 10.1488 6.9375 9.82812 6.9375ZM12.7188 6.9375C12.3981 6.9375 12.1406 7.1972 12.1406 7.51562V8.67188C12.1406 8.9903 12.3981 9.25 12.7188 9.25C13.0394 9.25 13.2969 8.9903 13.2969 8.67188V7.51562C13.2969 7.1972 13.0394 6.9375 12.7188 6.9375ZM15.6094 6.9375C15.2887 6.9375 15.0312 7.1972 15.0312 7.51562V8.67188C15.0312 8.9903 15.2887 9.25 15.6094 9.25C15.9301 9.25 16.1875 8.9903 16.1875 8.67188V7.51562C16.1875 7.1972 15.9301 6.9375 15.6094 6.9375ZM18.5 6.9375C18.1793 6.9375 17.9219 7.1972 17.9219 7.51562V8.67188C17.9219 8.9903 18.1793 9.25 18.5 9.25C18.8207 9.25 19.0781 8.9903 19.0781 8.67188V7.51562C19.0781 7.1972 18.8207 6.9375 18.5 6.9375ZM21.3906 6.9375C21.0699 6.9375 20.8125 7.1972 20.8125 7.51562V8.67188C20.8125 8.9903 21.0699 9.25 21.3906 9.25C21.7113 9.25 21.9688 8.9903 21.9688 8.67188V7.51562C21.9688 7.1972 21.7113 6.9375 21.3906 6.9375ZM24.2812 6.9375C23.9606 6.9375 23.7031 7.1972 23.7031 7.51562V8.67188C23.7031 8.9903 23.9606 9.25 24.2812 9.25C24.6019 9.25 24.8594 8.9903 24.8594 8.67188V7.51562C24.8594 7.1972 24.6019 6.9375 24.2812 6.9375ZM27.1719 6.9375C26.8512 6.9375 26.5938 7.1972 26.5938 7.51562V8.67188C26.5938 8.9903 26.8512 9.25 27.1719 9.25C27.4926 9.25 27.75 8.9903 27.75 8.67188V7.51562C27.75 7.1972 27.4926 6.9375 27.1719 6.9375ZM30.0625 6.9375C29.7418 6.9375 29.4844 7.1972 29.4844 7.51562V8.67188C29.4844 8.9903 29.7418 9.25 30.0625 9.25C30.3832 9.25 30.6406 8.9903 30.6406 8.67188V7.51562C30.6406 7.1972 30.3832 6.9375 30.0625 6.9375ZM11.2734 10.4062C9.83942 10.4062 8.67188 11.5738 8.67188 13.0078C8.67188 14.4418 9.83942 15.6094 11.2734 15.6094C12.7075 15.6094 13.875 14.4418 13.875 13.0078C13.875 11.5738 12.7075 10.4062 11.2734 10.4062ZM11.2734 11.3728C12.1745 11.3728 12.9084 12.1068 12.9084 13.0078C12.9084 13.9089 12.1745 14.6428 11.2734 14.6428C10.3724 14.6428 9.63843 13.9089 9.63843 13.0078C9.63843 12.1068 10.3724 11.3728 11.2734 11.3728ZM23.0527 15.8623C21.7136 15.8623 20.6544 16.3343 19.9069 16.9463V16.7498C19.9069 16.4314 19.6495 16.1717 19.3288 16.1717H15.6094C15.291 16.1717 15.0312 16.4314 15.0312 16.7498V29.4844C15.0312 29.8028 15.291 30.0625 15.6094 30.0625H19.4846C19.8053 30.0625 20.0627 29.8028 20.0627 29.4844V23.0595C20.0627 21.1445 20.537 20.4331 21.8129 20.4331C23.0414 20.4331 23.2492 21.2755 23.2492 23.1634V29.4844C23.2492 29.8028 23.5067 30.0625 23.8273 30.0625H27.7048C28.0255 30.0625 28.283 29.8028 28.283 29.4844V22.3865C28.2852 19.1617 27.6642 15.8623 23.0527 15.8623ZM9.25 16.1875C8.92932 16.1875 8.67188 16.4472 8.67188 16.7656V29.4844C8.67188 29.8028 8.92932 30.0625 9.25 30.0625H13.2969C13.6176 30.0625 13.875 29.8028 13.875 29.4844V16.7656C13.875 16.4472 13.6176 16.1875 13.2969 16.1875H9.25ZM23.0527 17.0186C26.447 17.0186 27.129 19.0714 27.129 22.3865V28.9062H24.4055V23.1611C24.4055 21.8039 24.4055 19.2746 21.8129 19.2746C18.9065 19.2746 18.9065 22.1223 18.9065 23.0595V28.9062H16.1875V17.3279H18.7529V18.4571C18.7529 18.7755 19.0623 19.0352 19.383 19.0352C19.5975 19.0352 19.794 18.9155 19.8934 18.7258C20.3089 17.9377 21.3861 17.0186 23.0527 17.0186ZM9.82812 17.3438H12.7188V28.9062H9.82812V17.3438Z" fill="#46265C"/>
</svg>
