<svg width="44" height="88" viewBox="0 0 44 88" fill="none" xmlns="http://www.w3.org/2000/svg">
<path d="M40.3337 15.4163C60.2991 40.1817 -40.4357 132.726 21.2757 59.0816C20.9963 45.4358 17.7054 41.1203 14.2643 40.6556C0.0501789 53.9094 7.45159 39.7355 14.2643 40.6556C16.1875 38.8624 18.5063 36.5671 21.2757 33.6645C31.164 23.3007 35.1497 15.3107 36.3616 9.82762C29.1405 -2.14964 38.9169 -1.7336 36.3616 9.82762C37.3454 11.4594 38.6447 13.3212 40.3337 15.4163Z" fill="#C83B4C"/>
<path d="M21.2757 33.6645C31.164 23.3007 35.1497 15.3107 36.3616 9.82762M21.2757 33.6645C18.5063 36.5671 16.1875 38.8624 14.2643 40.6556M21.2757 33.6645C52.0135 1.44866 25.7158 -7.83007 36.3616 9.82762M21.2757 33.6645C-1.96338 58.0211 6.52985 39.611 14.2643 40.6556M14.2643 40.6556C17.7054 41.1203 20.9963 45.4358 21.2757 59.0816C-40.4357 132.726 60.2991 40.1817 40.3337 15.4163C38.6447 13.3212 37.3454 11.4594 36.3616 9.82762M14.2643 40.6556C0.050179 53.9094 7.45159 39.7355 14.2643 40.6556ZM36.3616 9.82762C29.1405 -2.14964 38.9169 -1.7336 36.3616 9.82762Z" stroke="#C83B4C"/>
</svg>
