<svg width="156" height="124" viewBox="0 0 156 124" fill="none" xmlns="http://www.w3.org/2000/svg">
<g opacity="0.5">
<path opacity="0.5" d="M63.2861 0H9.40977C8.9982 0 8.66455 0.335066 8.66455 0.748391V83.3009C8.66455 83.7142 8.9982 84.0493 9.40977 84.0493H63.2861C63.6977 84.0493 64.0313 83.7142 64.0313 83.3009V0.748391C64.0313 0.335066 63.6977 0 63.2861 0Z" fill="url(#paint0_linear)"/>
</g>
<path d="M62.5756 0.617065H10.1185C9.70694 0.617065 9.37329 0.952131 9.37329 1.36546V82.2182C9.37329 82.6316 9.70694 82.9666 10.1185 82.9666H62.5756C62.9872 82.9666 63.3208 82.6316 63.3208 82.2182V1.36546C63.3208 0.952131 62.9872 0.617065 62.5756 0.617065Z" fill="#46265C"/>
<g opacity="0.5">
<path opacity="0.5" d="M24.8125 15.7877H15.5138C15.1022 15.7877 14.7686 16.1228 14.7686 16.5361V24.7917C14.7686 25.205 15.1022 25.5401 15.5138 25.5401H24.8125C25.2241 25.5401 25.5577 25.205 25.5577 24.7917V16.5361C25.5577 16.1228 25.2241 15.7877 24.8125 15.7877Z" fill="#C83B4C"/>
</g>
<path d="M57.46 15.7877H29.2624C29.0045 15.7877 28.7954 15.9977 28.7954 16.2567V16.4031C28.7954 16.6621 29.0045 16.8721 29.2624 16.8721H57.46C57.7179 16.8721 57.927 16.6621 57.927 16.4031V16.2567C57.927 15.9977 57.7179 15.7877 57.46 15.7877Z" fill="#FBF8CA"/>
<path d="M52.5448 19.0374H29.2624C29.0045 19.0374 28.7954 19.2473 28.7954 19.5063V19.6527C28.7954 19.9117 29.0045 20.1217 29.2624 20.1217H52.5448C52.8028 20.1217 53.0118 19.9117 53.0118 19.6527V19.5063C53.0118 19.2473 52.8028 19.0374 52.5448 19.0374Z" fill="#FBF8CA"/>
<g opacity="0.5">
<path opacity="0.5" d="M24.8125 30.9568H15.5138C15.1022 30.9568 14.7686 31.2919 14.7686 31.7052V39.9608C14.7686 40.3741 15.1022 40.7092 15.5138 40.7092H24.8125C25.2241 40.7092 25.5577 40.3741 25.5577 39.9608V31.7052C25.5577 31.2919 25.2241 30.9568 24.8125 30.9568Z" fill="#C83B4C"/>
</g>
<path d="M57.46 30.9568H29.2624C29.0045 30.9568 28.7954 31.1668 28.7954 31.4258V31.5721C28.7954 31.8311 29.0045 32.0411 29.2624 32.0411H57.46C57.7179 32.0411 57.927 31.8311 57.927 31.5721V31.4258C57.927 31.1668 57.7179 30.9568 57.46 30.9568Z" fill="#FBF8CA"/>
<path d="M57.46 34.2064H29.2624C29.0045 34.2064 28.7954 34.4164 28.7954 34.6754V34.8218C28.7954 35.0808 29.0045 35.2908 29.2624 35.2908H57.46C57.7179 35.2908 57.927 35.0808 57.927 34.8218V34.6754C57.927 34.4164 57.7179 34.2064 57.46 34.2064Z" fill="#FBF8CA"/>
<g opacity="0.5">
<path opacity="0.5" d="M24.8125 46.1259H15.5138C15.1022 46.1259 14.7686 46.4609 14.7686 46.8742V55.1298C14.7686 55.5431 15.1022 55.8782 15.5138 55.8782H24.8125C25.2241 55.8782 25.5577 55.5431 25.5577 55.1298V46.8742C25.5577 46.4609 25.2241 46.1259 24.8125 46.1259Z" fill="#C83B4C"/>
</g>
<path d="M57.46 46.1259H29.2624C29.0045 46.1259 28.7954 46.3358 28.7954 46.5948V46.7412C28.7954 47.0002 29.0045 47.2102 29.2624 47.2102H57.46C57.7179 47.2102 57.927 47.0002 57.927 46.7412V46.5948C57.927 46.3358 57.7179 46.1259 57.46 46.1259Z" fill="#FBF8CA"/>
<path d="M31.566 49.3771H29.2624C29.0045 49.3771 28.7954 49.5871 28.7954 49.8461V49.9924C28.7954 50.2514 29.0045 50.4614 29.2624 50.4614H31.566C31.8239 50.4614 32.033 50.2514 32.033 49.9924V49.8461C32.033 49.5871 31.8239 49.3771 31.566 49.3771Z" fill="#FBF8CA"/>
<g opacity="0.5">
<path opacity="0.5" d="M96.9088 27.0618H43.8622C43.4506 27.0618 43.1169 27.3968 43.1169 27.8102V75.7171C43.1169 76.1304 43.4506 76.4655 43.8622 76.4655H96.9088C97.3204 76.4655 97.654 76.1304 97.654 75.7171V27.8102C97.654 27.3968 97.3204 27.0618 96.9088 27.0618Z" fill="url(#paint1_linear)"/>
</g>
<path d="M96.1587 27.5574H44.7052C44.2936 27.5574 43.96 27.8924 43.96 28.3058V74.6611C43.96 75.0744 44.2936 75.4095 44.7052 75.4095H96.1587C96.5702 75.4095 96.9039 75.0744 96.9039 74.6611V28.3058C96.9039 27.8924 96.5702 27.5574 96.1587 27.5574Z" fill="#C4C4C4"/>
<g opacity="0.5">
<path opacity="0.5" d="M59.7884 37.8386H49.9034C49.4919 37.8386 49.1582 38.1737 49.1582 38.587V47.3715C49.1582 47.7848 49.4919 48.1198 49.9034 48.1198H59.7884C60.2 48.1198 60.5336 47.7848 60.5336 47.3715V38.587C60.5336 38.1737 60.2 37.8386 59.7884 37.8386Z" fill="#C83B4C"/>
</g>
<path d="M94.1664 37.8386H64.4403C64.1677 37.8386 63.9468 38.0605 63.9468 38.3342V38.4856C63.9468 38.7593 64.1677 38.9812 64.4403 38.9812H94.1664C94.4389 38.9812 94.6599 38.7593 94.6599 38.4856V38.3342C94.6599 38.0605 94.4389 37.8386 94.1664 37.8386Z" fill="#FBF8CA"/>
<path d="M94.1664 41.2662H64.4403C64.1677 41.2662 63.9468 41.4881 63.9468 41.7618V41.9132C63.9468 42.1869 64.1677 42.4088 64.4403 42.4088H94.1664C94.4389 42.4088 94.6599 42.1869 94.6599 41.9132V41.7618C94.6599 41.4881 94.4389 41.2662 94.1664 41.2662Z" fill="#FBF8CA"/>
<path d="M94.1664 53.7045H48.514C48.2415 53.7045 48.0205 53.9264 48.0205 54.2001V54.3514C48.0205 54.6251 48.2415 54.847 48.514 54.847H94.1664C94.4389 54.847 94.6599 54.6251 94.6599 54.3514V54.2001C94.6599 53.9264 94.4389 53.7045 94.1664 53.7045Z" fill="#FBF8CA"/>
<path d="M94.1664 57.1321H48.514C48.2415 57.1321 48.0205 57.354 48.0205 57.6277V57.779C48.0205 58.0527 48.2415 58.2746 48.514 58.2746H94.1664C94.4389 58.2746 94.6599 58.0527 94.6599 57.779V57.6277C94.6599 57.354 94.4389 57.1321 94.1664 57.1321Z" fill="#FBF8CA"/>
<path d="M94.1664 61.7007H48.514C48.2415 61.7007 48.0205 61.9226 48.0205 62.1963V62.3476C48.0205 62.6213 48.2415 62.8432 48.514 62.8432H94.1664C94.4389 62.8432 94.6599 62.6213 94.6599 62.3476V62.1963C94.6599 61.9226 94.4389 61.7007 94.1664 61.7007Z" fill="#FBF8CA"/>
<path d="M82.7909 65.1283H48.514C48.2415 65.1283 48.0205 65.3502 48.0205 65.6239V65.7752C48.0205 66.0489 48.2415 66.2708 48.514 66.2708H82.7909C83.0635 66.2708 83.2844 66.0489 83.2844 65.7752V65.6239C83.2844 65.3502 83.0635 65.1283 82.7909 65.1283Z" fill="#FBF8CA"/>
<g opacity="0.5">
<path opacity="0.5" d="M98.9722 45.5487L99.166 44.6806L98.8944 45.5288C91.831 43.6129 84.5497 42.6267 77.2332 42.5951C24.5178 42.2824 0 89.0701 0 89.0701L49.9564 115.54C49.9564 115.54 56.0838 96.4576 77.846 97.0796C79.3429 97.1205 80.836 97.2516 82.3173 97.472L75.6964 118.183C75.4135 118.587 75.2143 119.044 75.1106 119.528C75.007 120.011 75.001 120.51 75.093 120.995C75.185 121.481 75.3732 121.943 75.6464 122.354C75.9196 122.765 76.2722 123.117 76.6833 123.389C77.0944 123.661 77.5557 123.847 78.0397 123.936C78.5238 124.026 79.0208 124.016 79.5013 123.909C79.9818 123.802 80.436 123.599 80.8369 123.313C81.2379 123.026 81.5774 122.661 81.8354 122.24V122.23C82.179 121.67 82.3661 121.026 82.3769 120.368C82.3769 120.256 82.3769 120.145 82.3653 120.035L87.1513 98.558C101.41 102.962 105.731 115.538 105.731 115.538L156 90.3008C156 90.3008 137.121 55.953 98.9722 45.5487Z" fill="url(#paint2_linear)"/>
</g>
<path d="M77.2432 43.1139C25.2001 42.8096 0.993652 88.9969 0.993652 88.9969L50.3142 115.126C50.3142 115.126 56.3654 96.2862 77.8493 96.8932C79.3626 96.9343 80.8719 97.0688 82.3687 97.2957L98.7007 46.031C91.7048 44.1262 84.4915 43.1456 77.2432 43.1139Z" fill="#C83B4C"/>
<path d="M98.7006 46.031L82.3687 97.3007C100.191 100.02 105.383 115.126 105.383 115.126L155.006 90.2126C155.006 90.2126 136.361 56.3022 98.7006 46.031Z" fill="#FBF8CA"/>
<path d="M82.3158 119.568L98.8962 45.1729L75.7247 117.738C75.4408 118.138 75.24 118.59 75.1344 119.069C75.0287 119.548 75.0203 120.043 75.1097 120.525C75.1991 121.007 75.3844 121.466 75.6546 121.875C75.9248 122.283 76.2744 122.633 76.6822 122.902C77.0901 123.172 77.548 123.356 78.0285 123.444C78.5089 123.532 79.0021 123.522 79.4784 123.414C79.9548 123.305 80.4045 123.102 80.8007 122.815C81.1969 122.528 81.5314 122.164 81.7842 121.745V121.735C82.1233 121.182 82.3081 120.547 82.3191 119.897C82.329 119.782 82.3241 119.676 82.3158 119.568Z" fill="#535461"/>
<g opacity="0.7">
<path opacity="0.7" d="M88.3089 43.0257L87.875 42.9443L88.7312 39.7844C90.0792 29.6395 84.9868 28.6101 83.0774 28.5752C82.8578 28.4945 82.6339 28.4262 82.4067 28.3706V27.1732C83.6081 26.8755 84.6962 26.2307 85.5365 25.3185C86.3768 24.4063 86.9325 23.2668 87.1347 22.0409H87.1513C87.4543 22.0409 87.7011 21.5769 87.7011 21.0048C87.713 20.7015 87.6289 20.4023 87.461 20.1499C87.483 19.9282 87.4941 19.7064 87.4941 19.4847C87.4946 18.5893 87.3139 17.7031 86.9629 16.88C86.6119 16.057 86.0979 15.3141 85.4522 14.6967C85.364 14.2543 85.2064 13.8287 84.9852 13.436C84.5165 12.6045 83.7365 11.743 84.0545 10.8433L81.996 11.0562L81.9761 9.69409C81.3336 9.81051 81.0636 10.5572 80.6827 11.0894C79.7653 12.37 77.9254 12.548 76.7082 13.5458C76.2942 13.8784 75.3635 14.9162 75.5407 15.5931C74.7232 16.7225 74.2836 18.0834 74.2854 19.4797C74.2854 19.7015 74.2965 19.9232 74.3185 20.145C74.1506 20.3973 74.0666 20.6965 74.0784 20.9998C74.0784 21.5719 74.3252 22.0359 74.6282 22.0359H74.6448C74.847 23.2618 75.4027 24.4014 76.243 25.3135C77.0833 26.2257 78.1714 26.8705 79.3728 27.1682V28.3656C79.1456 28.4212 78.9217 28.4895 78.7021 28.5702C76.7927 28.6051 71.7003 29.6279 73.0483 39.7794L73.9045 42.9393L73.7008 42.9775C73.3979 43.0343 73.109 43.1504 72.8508 43.3193C72.5925 43.4882 72.3699 43.7065 72.1957 43.9618C72.0215 44.2171 71.899 44.5043 71.8353 44.8071C71.7716 45.1099 71.768 45.4224 71.8245 45.7266L75.2078 63.8859C75.2424 64.0718 75.3491 64.2362 75.5043 64.3432C75.6596 64.4501 75.8507 64.4908 76.0359 64.4563L76.6304 64.3449V64.6975C76.3005 64.8612 76.0227 65.1142 75.8284 65.4281C75.634 65.7419 75.531 66.1041 75.5308 66.4737V66.6982H79.5185V66.4737C79.5184 66.1307 79.4297 65.7937 79.261 65.4955C79.0924 65.1973 78.8496 64.9481 78.5564 64.7723V63.9824L79.0996 63.8809C79.2846 63.8462 79.4484 63.7391 79.5549 63.5832C79.6614 63.4273 79.7019 63.2353 79.6676 63.0494L76.4979 45.9894H85.2866L82.1202 63.051C82.0858 63.2369 82.1264 63.4289 82.2329 63.5848C82.3394 63.7408 82.5031 63.8478 82.6882 63.8826L83.2314 63.984V64.774C82.9382 64.9498 82.6954 65.1989 82.5268 65.4971C82.3581 65.7953 82.2694 66.1324 82.2692 66.4753V66.6998H86.257V66.4753C86.2568 66.1058 86.1537 65.7436 85.9594 65.4298C85.7651 65.1159 85.4873 64.8628 85.1574 64.6991V64.3466L85.7519 64.458C85.937 64.4925 86.1282 64.4518 86.2835 64.3449C86.4387 64.2379 86.5454 64.0734 86.5799 63.8876L89.998 45.5004C90.0491 45.2265 90.0459 44.9452 89.9886 44.6726C89.9313 44.4 89.821 44.1413 89.6642 43.9115C89.5073 43.6817 89.3068 43.4852 89.0743 43.3332C88.8417 43.1812 88.5816 43.0767 88.3089 43.0257Z" fill="url(#paint3_linear)"/>
</g>
<path d="M78.6459 62.0332H76.7944V64.5578H78.6459V62.0332Z" fill="#FDB797"/>
<path d="M84.9953 62.0332H83.1438V64.5578H84.9953V62.0332Z" fill="#FDB797"/>
<path d="M86.9809 41.3112H74.8105V45.6951H86.9809V41.3112Z" fill="#4D8AF0"/>
<g opacity="0.05">
<path opacity="0.05" d="M86.9809 41.3112H74.8105V45.6951H86.9809V41.3112Z" fill="#46265C"/>
</g>
<path opacity="0.1" d="M74.8105 42.1077C74.8105 42.1077 79.3514 43.1705 80.8949 43.1705C82.4383 43.1705 86.9792 42.1077 86.9792 42.1077V41.4425H74.8105V42.1077Z" fill="#46265C"/>
<path d="M86.9792 41.9747C86.9792 41.9747 82.4383 43.0375 80.8949 43.0375C79.3514 43.0375 74.8105 41.9747 74.8105 41.9747V34.6688C74.8105 33.0483 75.4516 31.4941 76.5926 30.3482C77.7336 29.2023 79.2812 28.5586 80.8949 28.5586C82.5085 28.5586 84.0561 29.2023 85.1972 30.3482C86.3382 31.4941 86.9792 33.0483 86.9792 34.6688V41.9747Z" fill="#F55F44"/>
<path d="M79.4407 25.5018H82.3503V29.0176C82.3503 29.3533 82.2176 29.6752 81.9812 29.9125C81.7449 30.1499 81.4243 30.2832 81.0901 30.2832H80.7026C80.3683 30.2832 80.0478 30.1499 79.8114 29.9125C79.5751 29.6752 79.4423 29.3533 79.4423 29.0176V25.5018H79.4407Z" fill="#FDB797"/>
<path d="M78.9936 62.9412L76.3853 63.4302C76.163 63.4706 75.9337 63.421 75.7476 63.2923C75.5615 63.1637 75.4336 62.9663 75.3917 62.7433L72.2816 46.006C72.2133 45.6396 72.2176 45.2633 72.2942 44.8986C72.3707 44.5339 72.5181 44.1879 72.7279 43.8804C72.9377 43.5729 73.2057 43.3099 73.5167 43.1065C73.8277 42.903 74.1756 42.7632 74.5405 42.6948L75.2129 42.5684C75.4352 42.528 75.6644 42.5776 75.8506 42.7063C76.0367 42.8349 76.1646 43.0323 76.2065 43.2553L79.6842 61.9367C79.705 62.0483 79.7036 62.1628 79.6801 62.2738C79.6565 62.3848 79.6114 62.49 79.5472 62.5834C79.483 62.6768 79.401 62.7565 79.306 62.8179C79.211 62.8793 79.1048 62.9212 78.9936 62.9412Z" fill="#4D8AF0"/>
<path d="M82.7894 62.9413L85.3976 63.4302C85.62 63.4706 85.8492 63.421 86.0353 63.2924C86.2215 63.1637 86.3494 62.9664 86.3913 62.7434L89.5543 45.7266C89.6777 45.0609 89.5328 44.3731 89.1515 43.8146C88.7702 43.256 88.1836 42.8724 87.5207 42.7481L86.5701 42.5701C86.3478 42.5298 86.1185 42.5793 85.9324 42.708C85.7463 42.8366 85.6183 43.034 85.5765 43.257L82.0988 61.9384C82.0782 62.0499 82.0798 62.1643 82.1035 62.275C82.1271 62.3858 82.1723 62.4909 82.2365 62.584C82.3006 62.6772 82.3825 62.7568 82.4774 62.8181C82.5723 62.8794 82.6783 62.9213 82.7894 62.9413Z" fill="#4D8AF0"/>
<path opacity="0.1" d="M79.4407 27.7171C80.3963 27.9532 81.3947 27.9532 82.3503 27.7171V25.6349H79.4407V27.7171Z" fill="#46265C"/>
<path d="M80.8947 26.5645C84.4013 26.5645 87.244 23.7097 87.244 20.1882C87.244 16.6667 84.4013 13.8119 80.8947 13.8119C77.3881 13.8119 74.5454 16.6667 74.5454 20.1882C74.5454 23.7097 77.3881 26.5645 80.8947 26.5645Z" fill="#333333"/>
<path d="M80.8949 27.7603C84.2552 27.7603 86.9792 25.0247 86.9792 21.6501C86.9792 18.2755 84.2552 15.5399 80.8949 15.5399C77.5346 15.5399 74.8105 18.2755 74.8105 21.6501C74.8105 25.0247 77.5346 27.7603 80.8949 27.7603Z" fill="#FDB797"/>
<path d="M76.8772 14.4789C78.048 13.5193 79.8184 13.348 80.6994 12.1156C81.0654 11.6034 81.3254 10.8833 81.9431 10.7719L81.9613 12.0824L83.9486 11.8778C83.6422 12.7426 84.3924 13.5742 84.8445 14.3724C85.1767 14.9623 85.3582 15.6257 85.3728 16.3033C84.6855 16.7174 83.8326 16.265 83.0675 16.0239C82.3024 15.7827 81.5324 15.7644 80.7491 15.7428C80.3493 15.7149 79.9476 15.7373 79.5534 15.8094C79.2122 15.9013 78.8797 16.0232 78.5598 16.1736C78.0331 16.3948 76.3688 17.2313 75.8803 16.6925C75.3305 16.0821 76.4251 14.8497 76.8772 14.4789Z" fill="#333333"/>
<path opacity="0.1" d="M77.2085 18.585C77.5411 18.7682 77.9073 18.8814 78.2849 18.9176C79.8437 19.1317 81.431 18.9528 82.9037 18.3971C83.1454 19.0108 83.7317 19.4332 84.3593 19.6328C84.987 19.8323 85.6527 19.8423 86.3102 19.8523C86.4546 19.8687 86.6007 19.8408 86.7291 19.7725C87.0223 19.5746 86.8798 19.1189 86.7093 18.8095L85.8614 17.2662C85.6113 16.8105 85.353 16.3448 84.9654 16.0006C84.4786 15.5682 83.8327 15.3653 83.1968 15.2372C81.6917 14.9362 80.1378 14.988 78.6559 15.3886C77.0711 15.8093 75.0358 17.2645 77.2085 18.585Z" fill="#46265C"/>
<path d="M77.2085 18.452C77.5411 18.6352 77.9073 18.7483 78.2849 18.7846C79.8437 18.9987 81.431 18.8198 82.9037 18.264C83.1454 18.8777 83.7317 19.3001 84.3593 19.4997C84.987 19.6993 85.6527 19.7093 86.3102 19.7192C86.4546 19.7356 86.6007 19.7078 86.7291 19.6394C87.0223 19.4415 86.8798 18.9858 86.7093 18.6765L85.8614 17.1331C85.6113 16.6774 85.353 16.2118 84.9654 15.8675C84.4786 15.4351 83.8327 15.2322 83.1968 15.1042C81.6917 14.8032 80.1378 14.855 78.6559 15.2555C77.0711 15.6729 75.0358 17.1331 77.2085 18.452Z" fill="#333333"/>
<path d="M86.9145 22.6463C87.2071 22.6463 87.4444 22.2003 87.4444 21.6501C87.4444 21.0999 87.2071 20.6539 86.9145 20.6539C86.6218 20.6539 86.3845 21.0999 86.3845 21.6501C86.3845 22.2003 86.6218 22.6463 86.9145 22.6463Z" fill="#FDB797"/>
<path d="M74.8766 22.6463C75.1693 22.6463 75.4065 22.2003 75.4065 21.6501C75.4065 21.0999 75.1693 20.6539 74.8766 20.6539C74.5839 20.6539 74.3467 21.0999 74.3467 21.6501C74.3467 22.2003 74.5839 22.6463 74.8766 22.6463Z" fill="#FDB797"/>
<path d="M79.4639 28.9644C79.4639 28.9644 71.7666 27.7603 73.3547 39.7163L74.2805 43.1439L76.9302 43.0375C76.9302 43.0375 75.2112 39.046 76.2677 36.3951C77.3243 33.7441 79.4639 28.9644 79.4639 28.9644Z" fill="#F55F44"/>
<path d="M82.3257 28.9644C82.3257 28.9644 90.023 27.7603 88.4349 39.7163L87.5091 43.1439L84.8594 43.0375C84.8594 43.0375 86.5784 39.046 85.5219 36.3951C84.4653 33.7441 82.3257 28.9644 82.3257 28.9644Z" fill="#F55F44"/>
<path d="M75.7362 45.0298C76.5401 45.0298 77.1918 44.3753 77.1918 43.5679C77.1918 42.7606 76.5401 42.1061 75.7362 42.1061C74.9322 42.1061 74.2805 42.7606 74.2805 43.5679C74.2805 44.3753 74.9322 45.0298 75.7362 45.0298Z" fill="#FDB797"/>
<path d="M86.3185 45.0298C87.1224 45.0298 87.7741 44.3753 87.7741 43.5679C87.7741 42.7606 87.1224 42.1061 86.3185 42.1061C85.5145 42.1061 84.8628 42.7606 84.8628 43.5679C84.8628 44.3753 85.5145 45.0298 86.3185 45.0298Z" fill="#FDB797"/>
<path d="M77.3988 63.4951H77.9105C78.3497 63.4951 78.7709 63.6703 79.0815 63.9822C79.3921 64.2941 79.5665 64.7171 79.5665 65.1582V65.6139H75.7361V65.1582C75.7361 64.9393 75.7791 64.7225 75.8628 64.5202C75.9464 64.318 76.069 64.1344 76.2235 63.9799C76.378 63.8254 76.5613 63.703 76.763 63.6198C76.9647 63.5366 77.1807 63.4943 77.3988 63.4951Z" fill="#333333"/>
<path d="M83.8807 63.4951H84.3924C84.8316 63.4951 85.2529 63.6703 85.5634 63.9822C85.874 64.2941 86.0485 64.7171 86.0485 65.1582V65.6139H82.218V65.1582C82.218 64.9393 82.2611 64.7225 82.3447 64.5202C82.4283 64.318 82.5509 64.1344 82.7054 63.9799C82.8599 63.8254 83.0432 63.703 83.2449 63.6198C83.4466 63.5366 83.6627 63.4943 83.8807 63.4951Z" fill="#333333"/>
<path opacity="0.1" d="M76.1336 35.3324C76.1336 35.3324 75.6037 38.1214 76.5311 39.3238L76.1336 35.3324Z" fill="#46265C"/>
<path opacity="0.1" d="M85.6577 35.3324C85.6577 35.3324 86.1876 38.1214 85.2603 39.3238L85.6577 35.3324Z" fill="#46265C"/>
<defs>
<linearGradient id="paint0_linear" x1="36.3471" y1="84.0493" x2="36.3471" y2="0" gradientUnits="userSpaceOnUse">
<stop stop-color="#808080" stop-opacity="0.25"/>
<stop offset="0.54" stop-color="#808080" stop-opacity="0.12"/>
<stop offset="1" stop-color="#808080" stop-opacity="0.1"/>
</linearGradient>
<linearGradient id="paint1_linear" x1="23222.5" y1="22741.9" x2="23222.5" y2="8066.04" gradientUnits="userSpaceOnUse">
<stop stop-color="#808080" stop-opacity="0.25"/>
<stop offset="0.54" stop-color="#808080" stop-opacity="0.12"/>
<stop offset="1" stop-color="#808080" stop-opacity="0.1"/>
</linearGradient>
<linearGradient id="paint2_linear" x1="93600" y1="67148.5" x2="93600" y2="27302.2" gradientUnits="userSpaceOnUse">
<stop stop-color="#808080" stop-opacity="0.25"/>
<stop offset="0.54" stop-color="#808080" stop-opacity="0.12"/>
<stop offset="1" stop-color="#808080" stop-opacity="0.1"/>
</linearGradient>
<linearGradient id="paint3_linear" x1="11342.4" y1="27362.2" x2="11342.4" y2="7822.33" gradientUnits="userSpaceOnUse">
<stop stop-color="#808080" stop-opacity="0.25"/>
<stop offset="0.54" stop-color="#808080" stop-opacity="0.12"/>
<stop offset="1" stop-color="#808080" stop-opacity="0.1"/>
</linearGradient>
</defs>
</svg>
