<svg width="310" height="277" viewBox="0 0 310 277" fill="none" xmlns="http://www.w3.org/2000/svg">
<g clip-path="url(#clip0)">
<path d="M1.737 62.156C1.12997 62.3265 0.615443 62.7305 0.306297 63.2794C-0.00284881 63.8283 -0.0813777 64.4773 0.0879406 65.084L39.8498 206.908C40.0206 207.514 40.4251 208.028 40.9747 208.337C41.5243 208.645 42.1741 208.724 42.7815 208.555L189.364 167.562C189.971 167.392 190.485 166.988 190.795 166.439C191.104 165.89 191.182 165.241 191.013 164.634L151.251 22.8102C151.08 22.204 150.676 21.6901 150.126 21.3814C149.577 21.0726 148.927 20.9942 148.319 21.1633L1.737 62.156Z" fill="#5E1043" fill-opacity="0.2"/>
<path d="M44.6237 201.858L184.308 162.794L146.477 27.8601L6.79346 66.9236L44.6237 201.858Z" fill="white"/>
<path d="M28.4983 79.8457C26.9368 80.2592 26.4339 81.8375 27.3773 83.3637C28.3206 84.89 30.3586 85.7954 31.9201 85.3819L138.663 57.1142C140.225 56.7007 140.727 55.1224 139.784 53.5962C138.841 52.0699 136.803 51.1646 135.241 51.5781L28.4983 79.8457Z" fill="#5E1043" fill-opacity="0.4"/>
<path d="M35.1842 99.4258C33.6034 99.801 33.054 101.404 33.9595 102.999C34.865 104.594 36.888 105.587 38.4688 105.212L146.536 79.567C148.117 79.1919 148.666 77.5888 147.761 75.9936C146.855 74.3985 144.832 73.4059 143.251 73.781L35.1842 99.4258Z" fill="#5E1043" fill-opacity="0.4"/>
<path d="M45.7624 121.616C44.3259 121.965 43.8241 123.521 44.6438 125.084C45.4635 126.647 47.2993 127.636 48.7358 127.287L146.935 103.453C148.371 103.104 148.873 101.549 148.054 99.9852C147.234 98.4219 145.398 97.4336 143.962 97.7822L45.7624 121.616Z" fill="#5E1043" fill-opacity="0.4"/>
<path d="M55.4987 145.669C54.0442 146 53.5127 147.587 54.3139 149.207C55.115 150.826 56.9502 151.873 58.4046 151.542L157.828 128.88C159.282 128.548 159.813 126.961 159.012 125.342C158.211 123.723 156.376 122.675 154.922 123.007L55.4987 145.669Z" fill="#5E1043" fill-opacity="0.4"/>
<path d="M80.0909 162.864C78.4286 163.23 76.8884 163.679 75.5583 164.186C74.2281 164.692 73.1342 165.246 72.339 165.816C71.5437 166.386 71.0627 166.96 70.9236 167.507C70.7845 168.053 70.99 168.56 71.5282 169C72.0664 169.439 72.9269 169.802 74.0604 170.067C75.1939 170.333 76.5782 170.496 78.1342 170.547C79.6902 170.598 81.3874 170.537 83.1287 170.366C84.8699 170.195 86.621 169.918 88.2821 169.551L138.858 158.396C142.211 157.656 144.996 156.594 146.599 155.444C148.202 154.294 148.492 153.15 147.406 152.263C146.32 151.376 143.946 150.82 140.807 150.716C137.667 150.612 134.02 150.969 130.666 151.708V151.708L80.0909 162.864Z" fill="#C83B4C"/>
<path d="M269.62 261.966L260.614 264.141L247.929 230.48L261.222 227.271L269.62 261.966Z" fill="#A0616A"/>
<path d="M245.075 277L245.014 276.748C244.3 273.785 244.793 270.66 246.383 268.059C247.973 265.457 250.532 263.592 253.497 262.873L271.119 258.618L273.885 270.044L245.075 277Z" fill="#2F2E41"/>
<path d="M229.749 268.094L220.483 268.094L216.075 232.399L229.75 232.399L229.749 268.094Z" fill="#A0616A"/>
<path d="M231.994 276.946L202.354 276.945V276.686C202.354 273.637 203.567 270.713 205.726 268.558C207.884 266.402 210.812 265.191 213.864 265.191H213.865L231.994 265.191L231.994 276.946Z" fill="#2F2E41"/>
<path d="M216.068 254.159L207.071 147.073L244.314 140.217L244.461 140.19L255.362 147.189L251.568 186.599L269.037 248.043L253.953 252.008L236.456 195.022L232.452 177.693L230.4 200.211L231.924 255.743L216.068 254.159Z" fill="#46265C"/>
<path d="M205.918 149.502L205.819 149.377L218.689 52.5996L218.706 52.4729L218.796 52.3822C218.986 52.1927 223.495 47.7425 228.133 47.7425C228.804 47.7425 229.441 47.7256 230.053 47.7101C233.602 47.618 236.405 47.5442 239.737 50.8725C243.132 54.2627 254.208 66.6424 254.208 83.5976C254.208 100.009 255.704 151.01 255.719 151.523L255.741 152.243L255.136 151.85C254.986 151.754 240.089 142.28 227.595 151.087C223.691 153.839 220.183 154.804 217.184 154.804C210.204 154.804 205.977 149.578 205.918 149.502Z" fill="#C83B4C"/>
<path d="M235.067 39.7573C244.063 34.8459 247.369 23.5812 242.451 14.5967C237.534 5.61228 226.255 2.31037 217.259 7.22172C208.263 12.1331 204.957 23.3978 209.875 32.3823C214.792 41.3667 226.071 44.6686 235.067 39.7573Z" fill="#A0616A"/>
<path d="M197.746 170.3C198.625 169.621 199.343 168.757 199.851 167.77C200.358 166.783 200.643 165.697 200.686 164.588C200.728 163.479 200.526 162.374 200.094 161.352C199.662 160.329 199.011 159.414 198.187 158.67L208.729 133.835L194.926 136.372L187.031 159.567C185.872 161.032 185.29 162.872 185.398 164.737C185.505 166.603 186.294 168.364 187.615 169.687C188.936 171.01 190.697 171.803 192.564 171.916C194.431 172.029 196.275 171.454 197.746 170.3H197.746Z" fill="#A0616A"/>
<path d="M187.562 150.982L190.956 143.825C190.746 143.698 190.573 143.52 190.455 143.306C187.283 137.816 206.441 92.2283 207.717 89.2045C207.523 87.5599 205.512 70.1322 206.982 64.2578C208.713 57.3425 212.267 54.1197 218.866 53.4813C226.144 52.7987 228.108 62.6692 228.126 62.7695L228.133 88.1445L219.781 117.354L200.732 156.164L187.562 150.982Z" fill="#C83B4C"/>
<path d="M228.537 30.4744C226.311 30.7635 224.633 28.4896 223.854 26.3876C223.076 24.2856 222.482 21.8385 220.548 20.7031C217.905 19.1518 214.523 21.0175 211.5 20.5057C208.087 19.9278 205.867 16.3146 205.693 12.8611C205.519 9.40762 206.895 6.0861 208.245 2.90201L208.717 6.85912C208.654 5.51795 208.936 4.18307 209.537 2.98215C210.139 1.78123 211.038 0.75444 212.15 0L211.543 5.80645C211.924 2.55353 215.433 0.0329591 218.642 0.707064L218.546 4.16675C222.488 3.69853 226.466 3.22965 230.42 3.58636C234.374 3.94308 238.356 5.19262 241.353 7.79354C245.836 11.6841 247.473 18.0904 246.924 23.9965C246.374 29.9027 243.933 35.4511 241.389 40.8108C240.749 42.1594 239.863 43.6811 238.379 43.8529C237.045 44.0072 235.825 42.8938 235.41 41.6184C234.996 40.343 235.198 38.9574 235.446 37.6396C235.821 35.6488 236.294 33.614 235.941 31.6192C235.589 29.6244 234.152 27.6531 232.138 27.4086C230.125 27.1641 228.065 29.4627 229.033 31.2428L228.537 30.4744Z" fill="#2F2E41"/>
<path d="M309.802 276.988H176.217V275.898H310L309.802 276.988Z" fill="#3F3D56"/>
</g>
<defs>
<clipPath id="clip0">
<rect width="310" height="277" fill="white"/>
</clipPath>
</defs>
</svg>
