<svg width="384" height="197" viewBox="0 0 384 197" fill="none" xmlns="http://www.w3.org/2000/svg">
<path d="M343.828 191.133L336.463 191.132L332.96 168.77L343.831 168.771L343.828 191.133Z" fill="#FFB8B8"/>
<path d="M331.202 189.476H345.407V196.516H322.258C322.258 195.591 322.489 194.676 322.938 193.822C323.388 192.967 324.047 192.191 324.877 191.538C325.708 190.884 326.694 190.365 327.779 190.011C328.864 189.658 330.027 189.476 331.202 189.476Z" fill="#2F2E41"/>
<path d="M314.513 191.133L307.147 191.132L303.645 168.77L314.516 168.771L314.513 191.133Z" fill="#FFB8B8"/>
<path d="M301.886 189.476H316.091V196.516H292.942C292.942 195.591 293.173 194.676 293.623 193.822C294.072 192.967 294.731 192.191 295.562 191.538C296.392 190.884 297.378 190.365 298.463 190.011C299.548 189.658 300.711 189.476 301.886 189.476Z" fill="#2F2E41"/>
<path d="M349.502 113.821C348.909 113.305 348.467 112.694 348.207 112.03C347.947 111.365 347.875 110.664 347.996 109.975C348.118 109.287 348.429 108.627 348.91 108.044C349.39 107.46 350.026 106.967 350.775 106.598L348.494 95.8807L356.43 93.2009L359.382 108.372C360.086 109.403 360.285 110.601 359.941 111.74C359.597 112.879 358.735 113.879 357.517 114.55C356.299 115.222 354.81 115.519 353.333 115.384C351.856 115.25 350.493 114.693 349.502 113.821V113.821Z" fill="#FFB8B8"/>
<path d="M287.368 108.756C288.061 108.325 288.625 107.78 289.021 107.158C289.417 106.537 289.635 105.855 289.66 105.16C289.685 104.465 289.515 103.774 289.164 103.136C288.813 102.498 288.289 101.929 287.628 101.468L292.127 91.1942L284.863 87.5193L278.767 102.098C277.857 103.023 277.409 104.179 277.509 105.347C277.609 106.515 278.25 107.613 279.31 108.434C280.37 109.255 281.776 109.741 283.261 109.8C284.746 109.86 286.207 109.488 287.368 108.756Z" fill="#FFB8B8"/>
<path d="M325.091 33.0729C333.831 33.0729 340.915 27.4963 340.915 20.6172C340.915 13.7382 333.831 8.16162 325.091 8.16162C316.351 8.16162 309.266 13.7382 309.266 20.6172C309.266 27.4963 316.351 33.0729 325.091 33.0729Z" fill="#FFB8B8"/>
<path d="M286.879 101.071C286.607 101.071 286.337 101.04 286.076 100.981L281.464 99.939C280.728 99.7714 280.105 99.3814 279.732 98.8541C279.36 98.3267 279.267 97.7047 279.475 97.1238L288.993 70.6708L302.267 45.0226C303.587 42.4729 306.345 40.8007 309.464 40.6588C310.889 40.604 312.303 40.8755 313.535 41.4405C314.768 42.0055 315.766 42.8396 316.408 43.842V43.842C317.122 44.9147 317.514 46.102 317.554 47.3126C317.594 48.5233 317.281 49.725 316.638 50.8254L301.551 76.7957L289.556 99.6589C289.338 100.076 288.967 100.433 288.49 100.685C288.013 100.936 287.453 101.07 286.879 101.071V101.071Z" fill="#FBF8CA"/>
<path d="M334.021 31.0627L325.229 31.1858C324.313 31.2 323.406 31.0446 322.58 30.7321C321.755 30.4197 321.034 29.9589 320.476 29.3869C319.918 28.815 319.539 28.1479 319.369 27.4394C319.199 26.731 319.243 26.001 319.497 25.3083C319.685 24.8078 319.826 24.2971 319.919 23.7804C320.018 23.2169 320.038 22.6466 319.977 22.0798C319.922 21.5121 319.622 20.9763 319.129 20.56C318.636 20.1438 317.977 19.8719 317.262 19.7888C316.546 19.7058 315.816 19.8166 315.191 20.1031C314.566 20.3896 314.083 20.8347 313.821 21.3655C312.343 21.3821 309.193 21.0028 307.715 21.0193C304.576 14.6854 311.416 6.39714 318.78 3.28407C326.287 0.110448 336.031 3.33919 338.909 9.95368C342.902 10.0102 346.147 13.1104 346.662 16.6003C347.177 20.0902 345.352 23.7343 342.562 26.4091C339.772 29.0839 336.108 31.0335 334.021 31.0627Z" fill="#2F2E41"/>
<path d="M305.12 189.045C304.407 189.042 303.721 188.833 303.191 188.459C302.662 188.084 302.325 187.569 302.245 187.012L298.983 100.68L340.081 102.983L340.112 103.191C349.4 164.382 346.225 185.565 346.192 185.772C346.169 186.085 346.064 186.391 345.885 186.671C345.705 186.95 345.454 187.198 345.147 187.398C344.84 187.598 344.484 187.746 344.101 187.833C343.718 187.92 343.317 187.944 342.922 187.903L333.839 188.074C333.151 188.013 332.513 187.759 332.041 187.36C331.57 186.96 331.296 186.441 331.269 185.896L322.783 123.367C322.731 123.204 322.607 123.062 322.434 122.964C322.262 122.866 322.051 122.819 321.838 122.831C321.62 122.83 321.408 122.89 321.239 122.999C321.07 123.108 320.954 123.259 320.911 123.428L317.633 186.162C317.667 186.744 317.417 187.315 316.932 187.756C316.447 188.196 315.766 188.474 315.029 188.53L305.408 189.034C305.312 189.041 305.216 189.045 305.12 189.045Z" fill="#2F2E41"/>
<path d="M322.173 110.995C321.927 110.995 321.681 110.993 321.435 110.987C309.617 110.707 300.372 103.669 297.82 101.519C297.495 101.245 297.261 100.911 297.139 100.549C297.018 100.186 297.012 99.8056 297.123 99.4409L303.941 76.7397L302.132 57.0037C301.848 54.2646 302.304 51.5092 303.471 48.919C304.637 46.3287 306.488 43.9624 308.901 41.9758C310.911 40.3041 313.354 38.9923 316.065 38.129C318.776 37.2658 321.691 36.8714 324.613 36.9725C336.116 37.4046 345.192 45.4982 345.274 55.3979C345.401 70.7309 344.828 71.7843 344.64 72.1304C338.898 82.6772 342.034 97.4815 343.132 101.768C343.23 102.15 343.202 102.546 343.051 102.918C342.901 103.289 342.632 103.625 342.27 103.891C335.956 108.607 329.198 110.995 322.173 110.995Z" fill="#FBF8CA"/>
<path d="M351.853 105.225C351.197 105.224 350.561 105.049 350.048 104.727C349.536 104.405 349.177 103.956 349.031 103.453L341.997 79.3352L332.571 51.769C332.168 50.6001 332.112 49.3742 332.405 48.1853C332.698 46.9965 333.334 45.8765 334.264 44.9113C335.108 44.0068 336.267 43.3142 337.601 42.9173C338.935 42.5204 340.387 42.4362 341.78 42.6748C344.827 43.2206 347.196 45.2283 347.962 47.9147L355.665 74.9087L359.506 102.264C359.589 102.864 359.367 103.465 358.889 103.937C358.41 104.408 357.715 104.712 356.953 104.782L352.185 105.21C352.075 105.22 351.964 105.225 351.853 105.225V105.225Z" fill="#FBF8CA"/>
<path d="M188.78 26.3959H16.7531C12.3103 26.3959 8.04945 25.0067 4.9079 22.534C1.76636 20.0613 0.00146484 16.7075 0.00146484 13.2105C0.00146484 9.71355 1.76636 6.35979 4.9079 3.88705C8.04945 1.41431 12.3103 0.0251465 16.7531 0.0251465H188.78C193.223 0.0251465 197.484 1.41431 200.625 3.88705C203.767 6.35979 205.532 9.71355 205.532 13.2105C205.532 16.7075 203.767 20.0613 200.625 22.534C197.484 25.0067 193.223 26.3959 188.78 26.3959V26.3959Z" fill="#46265C"/>
<path d="M16.7525 4.33569C13.7621 4.33569 10.8942 5.27071 8.77972 6.93506C6.66522 8.5994 5.47729 10.8567 5.47729 13.2105C5.47729 15.5642 6.66522 17.8216 8.77972 19.4859C10.8942 21.1502 13.7621 22.0853 16.7525 22.0853H188.779C191.77 22.0853 194.638 21.1502 196.752 19.4859C198.867 17.8216 200.055 15.5642 200.055 13.2105C200.055 10.8567 198.867 8.5994 196.752 6.93506C194.638 5.27071 191.77 4.33569 188.779 4.33569H16.7525Z" fill="white"/>
<path d="M249.572 0.877686C245.446 0.877673 241.489 2.16775 238.571 4.46413C235.654 6.7605 234.015 9.87506 234.015 13.1226C234.015 16.3702 235.654 19.4848 238.571 21.7812C241.489 24.0776 245.446 25.3677 249.572 25.3677H249.572C253.698 25.3677 257.655 24.0776 260.572 21.7812C263.49 19.4848 265.129 16.3703 265.129 13.1227C265.129 9.8751 263.49 6.76054 260.572 4.46416C257.655 2.16778 253.698 0.877686 249.572 0.877686V0.877686Z" fill="#C83B4C"/>
<path d="M248.095 18.2081C247.686 18.2086 247.287 18.1043 246.96 17.9109L246.939 17.8989L242.661 15.323C242.463 15.2035 242.296 15.0544 242.171 14.8842C242.046 14.714 241.965 14.5262 241.932 14.3313C241.9 14.1364 241.916 13.9384 241.981 13.7485C242.045 13.5586 242.156 13.3805 242.308 13.2245C242.46 13.0685 242.65 12.9376 242.866 12.8393C243.082 12.741 243.321 12.6771 243.569 12.6514C243.816 12.6257 244.068 12.6387 244.309 12.6895C244.55 12.7404 244.776 12.8281 244.975 12.9478L247.746 14.6204L254.294 7.89629C254.446 7.74039 254.635 7.60956 254.851 7.51127C255.067 7.41298 255.306 7.34915 255.553 7.32343C255.801 7.2977 256.052 7.31059 256.293 7.36135C256.534 7.41211 256.76 7.49976 256.958 7.61927L256.959 7.6196L256.918 7.66401L256.96 7.6196C257.359 7.86131 257.621 8.21793 257.687 8.61119C257.753 9.00444 257.618 9.40221 257.311 9.71721L249.609 17.6227C249.431 17.8048 249.202 17.9522 248.94 18.0534C248.678 18.1546 248.389 18.2069 248.097 18.2063L248.095 18.2081Z" fill="white"/>
<path d="M188.779 71.0234H16.7524C12.3096 71.0234 8.04872 69.6342 4.90717 67.1615C1.76562 64.6887 0.000732422 61.335 0.000732422 57.838C0.000732422 54.341 1.76562 50.9873 4.90717 48.5145C8.04872 46.0418 12.3096 44.6526 16.7524 44.6526H188.779C193.222 44.6526 197.483 46.0418 200.624 48.5145C203.766 50.9873 205.531 54.341 205.531 57.838C205.531 61.335 203.766 64.6887 200.624 67.1615C197.483 69.6342 193.222 71.0234 188.779 71.0234V71.0234Z" fill="#46265C"/>
<path d="M16.7525 48.9631C13.7621 48.9631 10.8942 49.8982 8.77972 51.5625C6.66522 53.2268 5.47729 55.4842 5.47729 57.8379C5.47729 60.1916 6.66522 62.449 8.77972 64.1133C10.8942 65.7777 13.7621 66.7127 16.7525 66.7127H188.779C191.77 66.7127 194.638 65.7777 196.752 64.1133C198.867 62.449 200.055 60.1916 200.055 57.8379C200.055 55.4842 198.867 53.2268 196.752 51.5625C194.638 49.8982 191.77 48.9631 188.779 48.9631H16.7525Z" fill="white"/>
<path d="M249.572 45.5051C245.446 45.5051 241.489 46.7952 238.571 49.0916C235.654 51.3879 234.015 54.5025 234.015 57.7501C234.015 60.9977 235.654 64.1122 238.571 66.4086C241.489 68.705 245.446 69.9951 249.572 69.9951H249.572C253.698 69.9951 257.655 68.705 260.572 66.4086C263.49 64.1123 265.129 60.9977 265.129 57.7501C265.129 54.5026 263.49 51.388 260.572 49.0916C257.655 46.7952 253.698 45.5051 249.572 45.5051V45.5051Z" fill="#C83B4C"/>
<path d="M248.095 62.8355C247.686 62.836 247.287 62.7318 246.96 62.5384L246.939 62.5264L242.661 59.9504C242.463 59.8309 242.296 59.6818 242.171 59.5116C242.046 59.3415 241.965 59.1536 241.932 58.9587C241.9 58.7639 241.916 58.5658 241.981 58.3759C242.045 58.186 242.156 58.008 242.308 57.852C242.46 57.696 242.65 57.5651 242.866 57.4667C243.082 57.3684 243.321 57.3046 243.569 57.2789C243.816 57.2532 244.068 57.2661 244.309 57.317C244.55 57.3678 244.776 57.4556 244.975 57.5752L247.746 59.2478L254.294 52.5237C254.446 52.3678 254.635 52.237 254.851 52.1387C255.067 52.0404 255.306 51.9766 255.553 51.9509C255.801 51.9251 256.052 51.938 256.293 51.9888C256.534 52.0396 256.76 52.1272 256.958 52.2467L256.959 52.247L256.918 52.2915L256.96 52.247C257.359 52.4888 257.621 52.8454 257.687 53.2386C257.753 53.6319 257.618 54.0297 257.311 54.3447L249.609 62.2501C249.431 62.4323 249.202 62.5797 248.94 62.6809C248.678 62.7821 248.389 62.8344 248.097 62.8337L248.095 62.8355Z" fill="white"/>
<path d="M188.779 119.708H16.7527C12.3098 119.708 8.04896 118.319 4.90742 115.846C1.76587 113.373 0.000976563 110.02 0.000976562 106.523C0.000976563 103.026 1.76587 99.6718 4.90742 97.1991C8.04896 94.7263 12.3098 93.3372 16.7527 93.3372H188.779C193.222 93.3372 197.483 94.7263 200.625 97.1991C203.766 99.6718 205.531 103.026 205.531 106.523C205.531 110.02 203.766 113.373 200.625 115.846C197.483 118.319 193.222 119.708 188.779 119.708V119.708Z" fill="#46265C"/>
<path d="M16.7522 97.6477C13.7619 97.6477 10.894 98.5827 8.77948 100.247C6.66497 101.911 5.47705 104.169 5.47705 106.522C5.47705 108.876 6.66497 111.134 8.77948 112.798C10.894 114.462 13.7619 115.397 16.7522 115.397H188.779C191.77 115.397 194.637 114.462 196.752 112.798C198.866 111.134 200.054 108.876 200.054 106.522C200.054 104.169 198.866 101.911 196.752 100.247C194.637 98.5827 191.77 97.6477 188.779 97.6477H16.7522Z" fill="white"/>
<path d="M249.572 94.1897C245.446 94.1897 241.489 95.4798 238.571 97.7761C235.654 100.073 234.015 103.187 234.015 106.435C234.015 109.682 235.654 112.797 238.571 115.093C241.489 117.39 245.446 118.68 249.572 118.68H249.572C253.698 118.68 257.655 117.39 260.572 115.093C263.49 112.797 265.129 109.682 265.129 106.435C265.129 103.187 263.49 100.073 260.572 97.7762C257.655 95.4798 253.698 94.1897 249.572 94.1897V94.1897Z" fill="#C83B4C"/>
<path d="M188.779 164.335H16.7522C12.3093 164.335 8.04848 162.946 4.90693 160.473C1.76538 158.001 0.000488281 154.647 0.000488281 151.15C0.000488281 147.653 1.76538 144.299 4.90693 141.827C8.04848 139.354 12.3093 137.965 16.7522 137.965H188.779C193.222 137.965 197.483 139.354 200.624 141.827C203.766 144.299 205.531 147.653 205.531 151.15C205.531 154.647 203.766 158.001 200.624 160.473C197.483 162.946 193.222 164.335 188.779 164.335V164.335Z" fill="#46265C"/>
<path d="M16.7522 142.275C13.7619 142.275 10.894 143.21 8.77948 144.875C6.66497 146.539 5.47705 148.796 5.47705 151.15C5.47705 153.504 6.66497 155.761 8.77948 157.425C10.894 159.09 13.7619 160.025 16.7522 160.025H188.779C191.77 160.025 194.637 159.09 196.752 157.425C198.866 155.761 200.054 153.504 200.054 151.15C200.054 148.796 198.866 146.539 196.752 144.875C194.637 143.21 191.77 142.275 188.779 142.275H16.7522Z" fill="white"/>
<path d="M249.572 138.817C245.446 138.817 241.489 140.107 238.571 142.404C235.654 144.7 234.015 147.815 234.015 151.062C234.015 154.31 235.654 157.424 238.571 159.721C241.489 162.017 245.446 163.307 249.572 163.307H249.572C253.698 163.307 257.655 162.017 260.572 159.721C263.49 157.424 265.129 154.31 265.129 151.062C265.129 147.815 263.49 144.7 260.572 142.404C257.655 140.107 253.698 138.817 249.572 138.817V138.817Z" fill="#C83B4C"/>
<path d="M383.356 196.792H248.698C248.527 196.792 248.363 196.739 248.243 196.644C248.122 196.548 248.054 196.419 248.054 196.285C248.054 196.15 248.122 196.021 248.243 195.926C248.363 195.831 248.527 195.777 248.698 195.777H383.356C383.527 195.777 383.691 195.831 383.812 195.926C383.932 196.021 384 196.15 384 196.285C384 196.419 383.932 196.548 383.812 196.644C383.691 196.739 383.527 196.792 383.356 196.792Z" fill="#46265C"/>
</svg>
