<svg width="181" height="146" viewBox="0 0 181 146" fill="none" xmlns="http://www.w3.org/2000/svg">
<g clip-path="url(#clip0)">
<path d="M103.112 129.163C101.861 127.409 100.167 126.126 98.0365 125.646C96.1791 125.228 94.2693 125.299 92.3812 125.314L68.508 125.498C66.4634 125.513 64.5031 127.286 64.598 129.409C64.6923 131.515 66.3164 133.338 68.508 133.321C75.5012 133.267 82.4944 133.213 89.4875 133.159C91.1362 133.147 92.7858 133.117 94.4346 133.122C94.8049 133.124 95.1736 133.143 95.5435 133.147C95.6331 133.148 95.6978 133.147 95.7435 133.146C95.7549 133.149 95.7646 133.152 95.7795 133.156C95.9725 133.209 96.1704 133.246 96.3645 133.296C96.2965 133.298 96.4904 133.419 96.5878 133.46C96.6012 133.487 96.6297 133.533 96.6773 133.606C96.7437 133.73 96.9405 134.109 96.9486 134.097C97.2442 134.845 97.4881 135.612 97.6785 136.394C98.1329 138.116 98.2328 138.477 98.2981 140.093C98.3808 142.135 100.037 144.102 102.208 144.005C104.256 143.913 106.207 142.283 106.118 140.093C105.969 136.403 105.321 132.257 103.112 129.163Z" fill="#FBF8CA"/>
<path d="M69.9114 137.99C69.463 135.271 69.0232 132.551 68.5661 129.834C68.1023 127.078 67.155 124.554 65.011 122.745C64.4381 122.261 63.8441 121.81 63.2477 121.36C63.0379 121.202 62.8285 121.044 62.6212 120.882C62.6088 120.872 62.6009 120.866 62.5902 120.858C62.5674 120.838 62.5401 120.815 62.5033 120.784C61.6097 120.027 60.7463 119.237 59.9238 118.397C59.1934 117.651 58.495 116.873 57.8284 116.063C57.6618 115.861 57.4974 115.657 57.3351 115.451C57.3072 115.416 57.1569 115.222 57.0578 115.095C56.9657 114.968 56.7973 114.738 56.7691 114.698C56.5795 114.43 56.3932 114.159 56.2104 113.886C54.9651 112.02 53.8867 110.047 52.9879 107.99C52.8987 107.786 52.8117 107.581 52.7268 107.375C52.704 107.312 52.6745 107.231 52.6354 107.124C52.4543 106.625 52.2735 106.127 52.1079 105.623C51.756 104.552 51.4535 103.465 51.2003 102.363C51.0751 101.818 50.9625 101.271 50.8623 100.721C50.8106 100.438 50.7623 100.155 50.7173 99.8708C50.7099 99.8236 50.666 99.5172 50.6401 99.3441C50.621 99.1701 50.5854 98.862 50.5807 98.8145C50.552 98.5282 50.5266 98.2416 50.5044 97.9548C50.4544 97.3093 50.4206 96.6628 50.403 96.0152C50.3729 94.8642 50.3935 93.7134 50.4648 92.5626C50.5054 91.916 50.5631 91.2711 50.6343 90.6275C50.6386 90.5879 50.6419 90.5565 50.645 90.5281C50.6493 90.4994 50.6543 90.4667 50.6603 90.4261C50.7129 90.0703 50.7683 89.7151 50.8302 89.361C51.0647 88.0164 51.3697 86.6851 51.7439 85.3726C51.9211 84.7518 52.1136 84.1361 52.3213 83.5254C52.4139 83.2543 52.5095 82.9843 52.608 82.7153C52.6015 82.7326 52.8968 81.978 52.9008 81.9526C54.0725 79.1828 55.9891 76.6578 55.9917 73.5114C55.9935 71.3812 54.1921 69.3405 52.0817 69.439C51.0296 69.4786 50.0339 69.9253 49.3045 70.685C48.5751 71.4447 48.169 72.4581 48.1718 73.5114C48.1718 73.5593 48.1716 73.6001 48.1714 73.6397C48.1518 73.706 48.1353 73.7614 48.1205 73.8103C47.892 74.3071 47.6121 74.7791 47.3613 75.2636C46.6744 76.5896 46.0882 77.959 45.5313 79.3485C44.6197 81.6114 43.9219 83.9547 43.447 86.3477C42.4149 91.591 42.3348 96.9773 43.2105 102.249C44.7265 111.494 49.7259 120.343 56.6761 126.291C57.2793 126.808 57.8971 127.306 58.5208 127.795C58.7789 127.997 59.0392 128.196 59.3007 128.393C59.4243 128.486 59.9365 128.89 59.7112 128.695C60.1956 129.108 60.3996 129.316 60.524 129.621C60.542 129.691 60.5666 129.787 60.5999 129.917C60.6876 130.261 60.7709 130.604 60.8401 130.952C61.4451 133.996 61.8656 137.091 62.3709 140.155C62.7182 142.26 65.3087 143.631 67.1806 143C69.3594 142.265 70.2836 140.246 69.9114 137.99Z" fill="#FBF8CA"/>
<path d="M103.508 145.886C101.866 145.89 100.289 145.242 99.1237 144.085C97.9582 142.928 97.2992 141.355 97.2911 139.713V135.25C92.6215 135.773 76.6312 135.652 72.0476 134.915V139.534C72.0353 141.176 71.3749 142.746 70.2103 143.902C69.0458 145.058 67.4715 145.707 65.8307 145.707C64.19 145.707 62.6157 145.058 61.4511 143.902C60.2866 142.746 59.6262 141.176 59.6139 139.534V130.466C53.4058 127.015 48.2305 121.97 44.622 115.85C41.0136 109.731 39.1027 102.759 39.0867 95.654C39.0867 83.4713 44.6053 72.1066 54.2276 64.474C60.484 59.4945 68.0853 56.4999 76.0555 55.8747C77.1373 55.7898 78.2257 55.7468 79.2907 55.7468C83.0423 55.7468 99.9691 56.3266 104.216 57.549L113.9 47.9355C114.042 47.7922 114.224 47.6947 114.422 47.6552C114.62 47.6157 114.825 47.6361 115.012 47.7138C115.2 47.7886 115.36 47.9184 115.473 48.0862C115.586 48.254 115.645 48.4521 115.643 48.6543V50.1828L117.529 48.3144C117.671 48.171 117.853 48.0733 118.051 48.0337C118.249 47.9942 118.454 48.0146 118.64 48.0924C118.828 48.1671 118.989 48.2969 119.102 48.4648C119.215 48.6327 119.274 48.8308 119.272 49.0332V66.114C124.132 70.4967 127.835 76.011 130.055 82.1682C132.275 88.3253 132.942 94.9352 131.998 101.412C131.053 107.889 128.527 114.033 124.642 119.299C120.756 124.565 115.633 128.792 109.725 131.603V139.713C109.717 141.355 109.058 142.928 107.892 144.085C106.727 145.242 105.15 145.89 103.508 145.886ZM97.7799 134.696V139.713C97.7922 141.224 98.4011 142.67 99.474 143.735C100.547 144.799 101.997 145.397 103.508 145.397C105.019 145.397 106.469 144.799 107.542 143.735C108.615 142.67 109.224 141.224 109.236 139.713V131.294L109.376 131.228C116.005 128.081 121.632 123.157 125.634 117.004C130.733 109.151 132.853 99.7318 131.611 90.4507C130.37 81.1695 125.848 72.6397 118.865 66.405L118.784 66.3321V49.0332C118.785 48.9281 118.755 48.8249 118.696 48.7377C118.638 48.6505 118.554 48.5833 118.456 48.5453C118.358 48.5036 118.251 48.4924 118.147 48.513C118.043 48.5337 117.948 48.5852 117.874 48.6609L115.155 51.3553V48.6543C115.156 48.5491 115.126 48.446 115.067 48.3588C115.009 48.2716 114.925 48.2044 114.827 48.1664C114.729 48.1248 114.621 48.1137 114.517 48.1344C114.413 48.1552 114.318 48.207 114.244 48.2829L104.353 58.1022L104.212 58.0582C100.264 56.8219 83.0708 56.2358 79.2907 56.2358C78.2384 56.2358 77.1628 56.2783 76.0939 56.3622C68.2206 56.9797 60.7115 59.938 54.5313 64.8571C45.0266 72.3965 39.5754 83.6215 39.5754 95.654C39.5916 102.696 41.4923 109.605 45.0799 115.664C48.6674 121.723 53.8111 126.71 59.9766 130.108L60.1026 130.178V139.534C60.1152 141.046 60.7243 142.491 61.7971 143.556C62.87 144.62 64.3198 145.217 65.8307 145.217C67.3417 145.217 68.7915 144.62 69.8643 143.556C70.9372 142.491 71.5462 141.046 71.5588 139.534V134.33L71.8484 134.384C75.9674 135.16 93.312 135.282 97.5037 134.732L97.7799 134.696Z" fill="#46265C"/>
<path d="M70.3785 29.1224L43.3168 37.2588C42.456 37.5187 41.7336 38.1097 41.3082 38.9021C40.8827 39.6945 40.7891 40.6235 41.0478 41.4849C41.3066 42.3463 41.8965 43.0698 42.6881 43.4963C43.4796 43.9228 44.408 44.0176 45.2694 43.7597L68.9513 36.6378L69.4475 36.4887C69.5479 33.931 70.2414 31.4318 71.4733 29.1884C71.3187 29.1188 71.1535 29.0758 70.9846 29.0613C70.7805 29.0415 70.5746 29.0623 70.3785 29.1224Z" fill="#C83B4C"/>
<path d="M44.8013 45.4943C44.4421 45.4935 44.0922 45.3797 43.8011 45.169C43.5101 44.9584 43.2925 44.6616 43.1792 44.3205L41.487 39.2118C41.4163 38.9984 41.3883 38.7732 41.4047 38.5491C41.421 38.3249 41.4813 38.1061 41.5821 37.9053C41.6829 37.7045 41.8223 37.5255 41.9923 37.3785C42.1623 37.2316 42.3596 37.1196 42.5728 37.0489L64.5983 29.7461C64.8115 29.6754 65.0366 29.6474 65.2606 29.6637C65.4847 29.68 65.7033 29.7403 65.9041 29.8411C66.1048 29.942 66.2838 30.0814 66.4306 30.2514C66.5775 30.4214 66.6895 30.6188 66.7602 30.8321L68.4524 35.9408C68.5932 36.361 68.565 36.8195 68.3737 37.2193C68.1825 37.619 67.8432 37.9285 67.4277 38.0823C67.4074 38.09 67.3869 38.0972 67.3661 38.1039L45.3411 45.4065C45.1671 45.4645 44.9848 45.4942 44.8013 45.4943Z" fill="#46265C"/>
<path d="M86.0501 20.0496C81.6047 20.0513 77.3344 21.7835 74.1431 24.8796C70.9518 27.9756 69.0898 32.1925 68.9514 36.6378C68.9465 36.8114 68.9441 36.9874 68.9441 37.1635C68.9441 40.5483 69.9473 43.8571 71.827 46.6714C73.7066 49.4858 76.3782 51.6793 79.5039 52.9747C82.6296 54.27 86.0691 54.6089 89.3873 53.9485C92.7056 53.2882 95.7536 51.6582 98.1459 49.2648C100.538 46.8714 102.167 43.822 102.827 40.5022C103.487 37.1825 103.149 33.7414 101.854 30.6143C100.559 27.4871 98.3668 24.8143 95.5537 22.9338C92.7406 21.0533 89.4333 20.0496 86.0501 20.0496ZM86.0501 53.7884C81.6443 53.7838 77.4203 52.0308 74.305 48.914C71.1896 45.7972 69.4374 41.5713 69.4328 37.1635C69.4328 36.9361 69.4377 36.7112 69.4475 36.4887C69.5798 33.2321 70.6661 30.0863 72.5711 27.4424C74.4762 24.7985 77.116 22.7731 80.1624 21.6182C83.2088 20.4633 86.5273 20.2297 89.7053 20.9466C92.8833 21.6634 95.7806 23.2991 98.0368 25.6501C100.293 28.0011 101.809 30.9638 102.396 34.1698C102.982 37.3757 102.614 40.6835 101.337 43.6819C100.06 46.6802 97.9297 49.2367 95.2117 51.0336C92.4938 52.8305 89.3079 53.7885 86.0501 53.7884Z" fill="#46265C"/>
<path d="M100.468 37.1635C100.468 40.9891 98.9489 44.6581 96.245 47.3632C93.5411 50.0683 89.8739 51.5881 86.05 51.5881C82.2261 51.5881 78.5589 50.0683 75.855 47.3632C73.1511 44.6581 71.6321 40.9891 71.6321 37.1635C71.6321 36.7063 71.654 36.2564 71.6956 35.8115C72.043 32.1193 73.7985 28.7029 76.5974 26.2716C79.3964 23.8403 83.0238 22.5809 86.7264 22.7549C90.4291 22.9288 93.9225 24.5229 96.4814 27.2059C99.0403 29.889 100.468 33.455 100.468 37.1635Z" fill="#FBF8CA"/>
<path d="M90.3435 38.1219C89.994 37.6622 89.5343 37.2981 89.0069 37.0633C88.3563 36.789 87.6845 36.5682 86.9981 36.4032V32.4767C88.0532 32.6359 89.0427 33.0873 89.8548 33.7798L90.6515 32.0807C90.1933 31.6723 89.6672 31.3471 89.0972 31.1198C88.4653 30.8639 87.8021 30.6937 87.1251 30.6138V28.6237H85.2802V30.6333C84.5677 30.7134 83.8805 30.9442 83.2641 31.3105C82.7073 31.6403 82.2386 32.0999 81.898 32.6503C81.573 33.1874 81.4046 33.8048 81.4118 34.4326C81.38 35.113 81.577 35.7844 81.9714 36.3396C82.3343 36.8203 82.8137 37.2006 83.3642 37.4447C84.0251 37.727 84.7085 37.9536 85.4072 38.1219V41.8845C84.1622 41.7905 82.9758 41.317 82.008 40.5276L81.2114 42.2292C81.7525 42.6768 82.3679 43.026 83.0295 43.2609C83.7545 43.5205 84.5119 43.6785 85.2802 43.7304V45.7033H87.1252V43.6937C88.1499 43.5816 89.111 43.1408 89.8646 42.437C90.1964 42.1186 90.4586 41.7347 90.6344 41.3097C90.8103 40.8846 90.8959 40.4277 90.8861 39.9677C90.9167 39.3091 90.7257 38.6591 90.3435 38.1219ZM85.4073 35.9875C84.9578 35.8512 84.54 35.6268 84.178 35.3274C84.0346 35.1998 83.9212 35.0419 83.846 34.8652C83.7708 34.6885 83.7357 34.4974 83.7431 34.3055C83.7297 33.87 83.8897 33.4471 84.1878 33.1295C84.5183 32.7963 84.9447 32.5749 85.4073 32.4963V35.9875ZM88.1564 41.1902C87.8447 41.51 87.4387 41.7216 86.9981 41.794V38.5571C87.4193 38.6701 87.8133 38.8672 88.1564 39.1365C88.2865 39.2476 88.3899 39.3867 88.4588 39.5433C88.5278 39.6999 88.5606 39.8701 88.5547 40.0411C88.5717 40.4607 88.4294 40.8712 88.1564 41.1902Z" fill="#C83B4C"/>
<path d="M45.5866 66.1994C45.2089 66.1988 44.8419 66.0735 44.5425 65.8429C44.2432 65.6124 44.0282 65.2895 43.931 64.9242L43.0097 61.4355C42.8944 60.9969 42.9576 60.5306 43.1855 60.1386C43.4135 59.7467 43.7874 59.4612 44.2255 59.3448L73.2912 51.6607C73.7298 51.5462 74.1959 51.6102 74.5875 51.8386C74.9791 52.067 75.2643 52.4413 75.3808 52.8796L76.1613 55.8354L76.0151 55.8467C68.5606 56.4266 61.4282 59.1305 55.4616 63.6387L55.4192 63.6592L46.0206 66.1431C45.879 66.1805 45.7331 66.1994 45.5866 66.1994Z" fill="#46265C"/>
<path d="M40.7728 83.4323C37.3632 82.9284 34.1023 81.6949 31.2124 79.8159C29.7807 78.8857 28.4553 77.8011 27.26 76.5818C26.0802 75.3778 24.9515 74.0095 24.3671 72.4062C23.8049 70.9228 23.8339 69.28 24.4481 67.8174C25.0539 66.3637 26.2112 65.2097 27.6662 64.6084C29.1298 64.0244 30.8983 63.9619 32.3228 64.6015C33.0016 64.8991 33.589 65.3722 34.0246 65.972C34.2272 66.2486 34.3771 66.56 34.467 66.8908C34.5505 67.1906 34.558 67.5064 34.4891 67.8099C34.4056 68.1128 34.2583 68.3944 34.0571 68.6357C33.8559 68.877 33.6054 69.0725 33.3225 69.2091C32.6999 69.5286 32.0253 69.7345 31.3304 69.8169C30.6314 69.9123 29.6274 69.999 29.0655 69.4377C28.9499 69.3267 28.8589 69.1925 28.7985 69.0439C28.7563 68.9301 28.7418 68.8079 28.7564 68.6874C28.7482 68.7405 28.7903 68.5719 28.7879 68.5787C28.779 68.6036 28.7405 68.6643 28.7952 68.571C28.8123 68.5402 28.8313 68.5106 28.8522 68.4822C28.8336 68.5063 28.7928 68.5464 28.8657 68.4776C28.9259 68.4117 29.0032 68.3639 29.0891 68.3396C29.1229 68.3297 29.1572 68.3219 29.1912 68.3126C29.2774 68.2891 29.1052 68.3139 29.1934 68.3111C29.2275 68.31 29.2619 68.3108 29.2958 68.3093C29.3823 68.3054 29.2105 68.2857 29.2934 68.3065C29.3256 68.3146 29.3575 68.3225 29.3892 68.3325C29.4581 68.3543 29.3404 68.282 29.3871 68.3361C29.4418 68.3995 29.3296 68.2744 29.3918 68.3358C29.4228 68.3662 29.452 68.3984 29.4792 68.4322C29.5871 68.5388 29.7326 68.5985 29.8843 68.5985C30.0359 68.5985 30.1814 68.5388 30.2893 68.4322C30.3935 68.3231 30.4517 68.1779 30.4517 68.027C30.4517 67.876 30.3935 67.7309 30.2893 67.6217C29.7245 66.9212 28.6087 67.0943 28.0374 67.6864C27.3086 68.4414 27.5972 69.6381 28.306 70.297C29.1085 71.0428 30.245 71.0947 31.2772 70.9696C32.1495 70.886 32.9996 70.6456 33.7867 70.2601C34.5687 69.8756 35.1803 69.2146 35.5032 68.4049C35.6489 67.9728 35.7012 67.5146 35.6567 67.0607C35.6122 66.6069 35.4719 66.1676 35.245 65.7721C34.3337 64.0579 32.4466 63.1791 30.5813 63.0269C29.621 62.9516 28.6553 63.0677 27.7401 63.3682C26.8249 63.6688 25.9783 64.148 25.2494 64.7781C23.8446 66.0434 22.9794 67.8006 22.833 69.6861C22.6702 71.641 23.4283 73.5395 24.5337 75.1172C25.6908 76.7201 27.0717 78.1489 28.6341 79.3598C31.6886 81.7995 35.2715 83.4901 39.0961 84.2961C39.551 84.3901 40.0084 84.4706 40.4682 84.5375C40.6145 84.573 40.7688 84.5514 40.8997 84.477C41.0306 84.4026 41.1283 84.2812 41.1728 84.1373C41.2121 83.9908 41.1921 83.8347 41.1173 83.7027C41.0424 83.5708 40.9187 83.4737 40.7728 83.4323L40.7728 83.4323Z" fill="#46265C"/>
<path d="M95.3618 58.5251C90.3663 58.4546 85.3866 58.5814 80.4226 58.9056C78.7258 59.0165 77.2578 59.6165 77.2578 60.6249C77.2578 61.468 78.7142 62.4557 80.4226 62.3441C85.3841 62.0199 90.3638 61.8931 95.3618 61.9636C99.4364 62.0211 99.434 58.5826 95.3618 58.5251Z" fill="#CCCCCC"/>
<path d="M87.9785 61.7933C87.4386 61.7933 74.7566 61.7731 74.7566 60.0205C74.7566 58.268 87.4386 58.2479 87.9785 58.2479C88.5184 58.2479 101.2 58.268 101.2 60.0205C101.2 61.7731 88.5184 61.7933 87.9785 61.7933ZM75.2525 60.0205C75.5995 60.5518 80.2612 61.3043 87.9785 61.3043C95.6958 61.3043 100.357 60.5519 100.704 60.0205C100.357 59.4893 95.6958 58.7368 87.9785 58.7368C80.2612 58.7368 75.5995 59.4893 75.2525 60.0205V60.0205Z" fill="#46265C"/>
<path d="M128.215 107.866C131.023 107.788 134.517 107.691 137.208 105.724C138.01 105.114 138.668 104.336 139.138 103.445C139.607 102.554 139.876 101.57 139.926 100.564C139.981 99.0106 139.42 97.6545 138.346 96.7468C136.94 95.5583 134.887 95.2795 132.675 95.93L134.967 79.1711L133.284 78.9404L130.59 98.6427L131.995 97.9976C133.624 97.25 135.86 96.8696 137.25 98.0445C137.591 98.3516 137.857 98.7333 138.027 99.16C138.196 99.5867 138.265 100.047 138.229 100.504C138.187 101.253 137.985 101.985 137.637 102.648C137.288 103.312 136.8 103.893 136.206 104.351C134.112 105.882 131.327 106.08 128.168 106.168L128.215 107.866Z" fill="#46265C"/>
<path d="M123.563 80.6165H114.416V82.3157H123.563V80.6165Z" fill="#46265C"/>
<path d="M49.7261 74.0146C49.3189 74.0133 48.9255 73.867 48.6164 73.6019C48.3072 73.3368 48.1025 72.9702 48.0389 72.5679L47.4806 69.0029C47.4108 68.5546 47.5217 68.0968 47.7889 67.7302C48.0561 67.3635 48.4578 67.1179 48.9058 67.0472L78.6046 62.3916C79.0528 62.3218 79.5102 62.4328 79.8767 62.7001C80.2432 62.9674 80.4887 63.3692 80.5593 63.8174L81.1177 67.3825C81.1874 67.8308 81.0765 68.2886 80.8094 68.6552C80.5422 69.0219 80.1405 69.2675 79.6925 69.3382L49.9937 73.9937C49.9052 74.0076 49.8157 74.0146 49.7261 74.0146Z" fill="#46265C"/>
<path d="M37.4351 32.2364C44.3182 32.2364 49.8981 26.654 49.8981 19.7677C49.8981 12.8814 44.3182 7.29901 37.4351 7.29901C30.552 7.29901 24.9722 12.8814 24.9722 19.7677C24.9722 26.654 30.552 32.2364 37.4351 32.2364Z" fill="#C83B4C"/>
<path d="M44.4914 22.9939C44.8897 22.8545 45.2536 22.6314 45.5585 22.3396C45.7603 22.1316 45.9141 21.8819 46.0093 21.6081C46.1045 21.3343 46.1387 21.043 46.1095 20.7546C46.0926 20.5491 46.0283 20.3502 45.9218 20.1736C45.8154 19.997 45.6695 19.8474 45.4956 19.7366C45.0446 19.4591 44.4486 19.4696 43.8469 19.7486L43.7774 14.8815L43.2888 14.8884L43.3704 20.6103L43.7424 20.3662C44.1738 20.0836 44.7936 19.8787 45.2396 20.1531C45.3499 20.2258 45.4419 20.3229 45.5086 20.4369C45.5752 20.551 45.6147 20.6789 45.6239 20.8107C45.6445 21.0255 45.6186 21.2423 45.5479 21.4462C45.4772 21.6501 45.3634 21.8364 45.2143 21.9924C44.6845 22.5183 43.9004 22.6945 43.0054 22.8557L43.092 23.3369C43.5677 23.2646 44.0361 23.1498 44.4914 22.9939Z" fill="#46265C"/>
<path d="M48.8101 14.5399L46.2075 14.9342L46.2807 15.4176L48.8833 15.0233L48.8101 14.5399Z" fill="#46265C"/>
<path d="M40.595 15.7843L37.9924 16.1786L38.0656 16.662L40.6682 16.2677L40.595 15.7843Z" fill="#46265C"/>
<path d="M45.6712 73.7967C45.223 73.7957 44.7857 73.6582 44.4175 73.4025C44.0493 73.1468 43.7677 72.785 43.6101 72.3652L35.0172 49.3424C33.9669 46.5188 34.0791 43.3937 35.3291 40.6527C36.579 37.9117 38.8647 35.7787 41.6847 34.7217L48.6717 32.1115C48.9418 32.0099 49.2294 31.9627 49.5179 31.9728C49.8064 31.9828 50.09 32.0498 50.3525 32.1699C50.6143 32.2869 50.8502 32.455 51.0464 32.6643C51.2426 32.8736 51.3951 33.1199 51.495 33.3888L67.4125 63.4565C67.5159 63.7276 67.5646 64.0165 67.5559 64.3065C67.5472 64.5966 67.4813 64.882 67.3619 65.1465C67.2425 65.4109 67.072 65.6492 66.8602 65.8474C66.6485 66.0457 66.3996 66.2001 66.1279 66.3018L46.4398 73.6569C46.194 73.7491 45.9337 73.7965 45.6712 73.7967Z" fill="#46265C"/>
<path d="M46.5518 32.9033L62.3452 54.033L51.6585 33.1251C51.5702 32.8811 51.4348 32.657 51.2599 32.4654C51.085 32.2738 50.8742 32.1186 50.6393 32.0085C50.4045 31.8985 50.1502 31.8359 49.8912 31.8242C49.6321 31.8124 49.3733 31.8519 49.1295 31.9403L46.5518 32.9033Z" fill="#FBF8CA"/>
<path d="M71.5588 48.9501L43.3595 47.1328C42.915 47.1042 42.4805 46.9882 42.0808 46.7916C41.6811 46.5949 41.3241 46.3215 41.03 45.9868C40.736 45.6521 40.5107 45.2627 40.367 44.8409C40.2234 44.4191 40.1642 43.9731 40.1928 43.5284C40.2214 43.0837 40.3373 42.649 40.5339 42.2491C40.7304 41.8492 41.0038 41.492 41.3383 41.1978C41.6729 40.9036 42.0621 40.6782 42.4837 40.5345C42.9053 40.3908 43.3511 40.3316 43.7955 40.3602L71.9949 42.1774C72.203 42.1908 72.4065 42.2451 72.5937 42.3371C72.7809 42.4292 72.9481 42.5573 73.0858 42.714C73.2235 42.8708 73.3291 43.0531 73.3963 43.2507C73.4636 43.4482 73.4913 43.6571 73.4779 43.8653L73.2461 47.4664C73.219 47.887 73.026 48.2796 72.7096 48.5578C72.3932 48.836 71.9792 48.9772 71.5588 48.9501Z" fill="#C83B4C"/>
<path d="M64.0237 50.1151C63.9865 50.1151 63.9491 50.1139 63.9117 50.1115H63.9117L40.756 48.6193C40.5318 48.6049 40.3126 48.5464 40.111 48.4472C39.9094 48.3481 39.7293 48.2102 39.581 48.0414C39.4327 47.8726 39.3191 47.6762 39.2467 47.4635C39.1742 47.2507 39.1444 47.0258 39.1588 46.8015L39.5548 40.6507C39.5692 40.4265 39.6277 40.2072 39.7268 40.0055C39.826 39.8039 39.9638 39.6237 40.1326 39.4753C40.3013 39.327 40.4976 39.2133 40.7103 39.1408C40.9229 39.0684 41.1477 39.0385 41.3719 39.053L64.5276 40.5451C64.9801 40.5747 65.4024 40.7828 65.7018 41.1236C66.0012 41.4643 66.1533 41.91 66.1247 42.3628L65.7288 48.5137C65.7069 48.8433 65.5905 49.1596 65.3934 49.4246C65.1964 49.6896 64.9271 49.8921 64.6178 50.0077C64.4278 50.0789 64.2266 50.1152 64.0237 50.1151Z" fill="#46265C"/>
<path d="M37.2922 11.4763C38.9317 10.0655 41.1832 11.3275 43.0634 11.1066C44.8623 10.8952 46.2827 9.28092 46.6455 7.5659C47.0689 5.56504 46.0308 3.56047 44.5008 2.31297C42.825 0.946646 40.6025 0.554408 38.4965 0.807188C36.0827 1.0969 33.8751 2.22259 31.8943 3.58417C29.9823 4.85772 28.224 6.34833 26.6546 8.02625C25.2492 9.57913 24.0584 11.4301 23.6782 13.5198C23.3326 15.4188 23.5965 17.5232 24.7186 19.1319C25.3136 19.9565 26.111 20.6137 27.0338 21.0402C27.996 21.5129 29.0224 21.8508 29.9546 22.3853C31.3641 23.1934 32.7339 24.869 32.2924 26.6126C32.1978 26.9936 32.011 27.3453 31.7485 27.637C31.4331 27.9873 30.8642 27.5244 31.1804 27.1732C31.7358 26.5564 31.7139 25.7337 31.4179 24.9973C31.066 24.1674 30.4427 23.4817 29.6503 23.0526C28.6745 22.4944 27.5972 22.1499 26.5971 21.6415C25.6398 21.1771 24.8089 20.4882 24.175 19.6334C22.978 17.9691 22.62 15.8033 22.8915 13.7997C23.1852 11.6315 24.2987 9.66127 25.6946 8.01021C27.2136 6.21338 29.0796 4.69242 30.9858 3.32604C33.0312 1.85991 35.291 0.620389 37.7916 0.172075C39.9592 -0.216542 42.3087 0.0227152 44.2042 1.20452C45.9735 2.30765 47.3303 4.20526 47.4652 6.32566C47.5137 7.29043 47.3043 8.25069 46.8586 9.10762C46.4129 9.96455 45.7471 10.6872 44.9296 11.2012C44.0907 11.7034 43.1154 11.9294 42.1413 11.8474C41.0999 11.7807 40.0574 11.4617 39.0094 11.5503C38.5351 11.5791 38.0832 11.7618 37.722 12.0707C37.3638 12.3789 36.9369 11.782 37.2922 11.4763V11.4763Z" fill="#46265C"/>
<path d="M180.709 146H0.29086C0.213836 146 0.140045 145.969 0.0856599 145.914C0.0312746 145.86 0.000732422 145.786 0.000732422 145.709C0.000732422 145.632 0.0312746 145.558 0.0856599 145.503C0.140045 145.449 0.213836 145.418 0.29086 145.418H180.709C180.786 145.418 180.86 145.449 180.915 145.503C180.969 145.558 181 145.632 181 145.709C181 145.786 180.969 145.86 180.915 145.915C180.86 145.969 180.786 146 180.709 146Z" fill="#46265C"/>
</g>
<defs>
<clipPath id="clip0">
<rect width="181" height="146" fill="white"/>
</clipPath>
</defs>
</svg>
