<svg width="148" height="117" viewBox="0 0 148 117" fill="none" xmlns="http://www.w3.org/2000/svg">
<g clip-path="url(#clip0)">
<path d="M110.403 115.595C108.354 113.872 107.11 111.152 107.436 108.503C107.762 105.855 109.783 103.42 112.405 102.858C115.027 102.295 118.016 103.852 118.812 106.4C119.25 101.488 119.755 96.3696 122.38 92.1863C124.757 88.3984 128.874 85.688 133.336 85.2031C137.798 84.7182 142.496 86.5496 145.279 90.0533C148.061 93.557 148.743 98.6508 146.794 102.673C145.358 105.637 142.713 107.842 139.941 109.636C130.986 115.385 120.245 117.722 109.695 116.219" fill="#46265C"/>
<path d="M140.866 86.6511C137.184 89.6345 133.807 92.9712 130.782 96.613C126.049 102.293 122.219 108.661 119.425 115.495C119.221 115.994 120.034 116.211 120.237 115.718C124.808 104.61 132.105 94.8204 141.461 87.2432C141.881 86.9028 141.283 86.3135 140.866 86.6511Z" fill="#C4C4C4"/>
<path d="M36.1843 116.773H24.5662C24.1736 116.773 23.7972 116.618 23.5196 116.341C23.242 116.065 23.0859 115.691 23.0854 115.3V91.2761C23.0859 90.8855 23.242 90.5111 23.5196 90.2349C23.7972 89.9587 24.1736 89.8034 24.5662 89.8029H36.1843C36.5769 89.8034 36.9533 89.9587 37.2308 90.2349C37.5084 90.5111 37.6646 90.8855 37.665 91.2761V115.3C37.6646 115.691 37.5084 116.065 37.2308 116.341C36.9533 116.618 36.5769 116.773 36.1843 116.773Z" fill="#C83B4C"/>
<path d="M63.7488 117H52.1307C51.6777 116.999 51.2434 116.82 50.9231 116.502C50.6028 116.183 50.4226 115.751 50.4221 115.3V68.6118C50.4226 68.1611 50.6028 67.7291 50.9231 67.4104C51.2434 67.0917 51.6777 66.9125 52.1307 66.912H63.7488C64.2017 66.9125 64.636 67.0917 64.9563 67.4104C65.2766 67.7291 65.4568 68.1611 65.4573 68.6118V115.3C65.4568 115.751 65.2766 116.183 64.9563 116.502C64.636 116.82 64.2017 116.999 63.7488 117ZM52.1307 67.3653C51.7985 67.3656 51.48 67.4971 51.2451 67.7308C51.0102 67.9645 50.8781 68.2813 50.8777 68.6118V115.3C50.8781 115.631 51.0102 115.947 51.2451 116.181C51.48 116.415 51.7985 116.546 52.1307 116.547H63.7488C64.0809 116.546 64.3994 116.415 64.6343 116.181C64.8692 115.947 65.0013 115.631 65.0017 115.3V68.6118C65.0013 68.2813 64.8692 67.9645 64.6343 67.7308C64.3994 67.4971 64.0809 67.3656 63.7488 67.3653H52.1307Z" fill="#46265C"/>
<path d="M91.3132 117H79.6951C79.2421 117 78.8079 116.82 78.4876 116.502C78.1672 116.183 77.9871 115.751 77.9866 115.3V38.9217C77.9871 38.471 78.1672 38.0389 78.4876 37.7203C78.8079 37.4016 79.2421 37.2224 79.6951 37.2219H91.3132C91.7662 37.2224 92.2005 37.4016 92.5208 37.7203C92.8411 38.0389 93.0213 38.471 93.0218 38.9217V115.3C93.0213 115.751 92.8411 116.183 92.5208 116.502C92.2005 116.82 91.7662 117 91.3132 117ZM79.6951 37.6751C79.3629 37.6755 79.0445 37.807 78.8096 38.0407C78.5747 38.2744 78.4426 38.5912 78.4422 38.9217V115.3C78.4426 115.631 78.5747 115.948 78.8096 116.181C79.0445 116.415 79.3629 116.546 79.6951 116.547H91.3132C91.6454 116.546 91.9639 116.415 92.1988 116.181C92.4337 115.948 92.5658 115.631 92.5662 115.3V38.9217C92.5658 38.5912 92.4337 38.2744 92.1988 38.0407C91.9639 37.807 91.6454 37.6755 91.3132 37.6751H79.6951Z" fill="#46265C"/>
<path d="M119.135 116.887H107.517C107.124 116.886 106.748 116.731 106.47 116.455C106.193 116.179 106.037 115.804 106.036 115.414V7.75839C106.037 7.36782 106.193 6.99338 106.47 6.7172C106.748 6.44102 107.124 6.28567 107.517 6.28522H119.135C119.528 6.28567 119.904 6.44102 120.182 6.7172C120.459 6.99338 120.615 7.36782 120.616 7.75839V115.414C120.615 115.804 120.459 116.179 120.182 116.455C119.904 116.731 119.528 116.886 119.135 116.887Z" fill="#C83B4C"/>
<path d="M46.8777 50.3958C46.9199 50.0653 46.8887 49.7296 46.7863 49.4124C46.6839 49.0951 46.5129 48.8041 46.2852 48.5597C46.0576 48.3154 45.7788 48.1236 45.4686 47.998C45.1585 47.8725 44.8244 47.8161 44.4899 47.8328L40.4403 40.4422L39.5291 43.6152L42.3035 50.3886C42.369 50.9457 42.6377 51.4596 43.0587 51.8328C43.4796 52.206 44.0235 52.4127 44.5874 52.4136C45.1512 52.4145 45.6958 52.2096 46.1179 51.8377C46.54 51.4658 46.8104 50.9528 46.8777 50.3958V50.3958Z" fill="#A0616A"/>
<path d="M15.6768 79.5771L17.9323 81.2155L25.3576 73.339L22.0284 70.921L15.6768 79.5771Z" fill="#A0616A"/>
<path d="M20.7534 86.459L13.6641 81.3099L15.6638 78.5848L20.014 81.7445C20.7405 82.2722 21.2265 83.0653 21.3651 83.9494C21.5038 84.8336 21.2838 85.7363 20.7534 86.459L20.7534 86.459Z" fill="#46265C"/>
<path d="M27.6103 88.2493L30.4032 88.2491L31.7318 77.5316L27.6099 77.5318L27.6103 88.2493Z" fill="#A0616A"/>
<path d="M35.7896 90.8291L27.012 90.8295L27.0119 87.4555L32.3981 87.4553C33.2975 87.4552 34.1601 87.8106 34.7961 88.4434C35.4322 89.0761 35.7895 89.9343 35.7896 90.8291Z" fill="#46265C"/>
<path d="M35.9981 46.4482C35.9981 46.4482 37.3649 59.5935 33.9478 68.6592L31.442 85.884H27.1136L27.5693 65.4862L25.9746 47.3548C25.9746 47.3548 29.1639 39.1957 35.9981 46.4482Z" fill="#46265C"/>
<path d="M21.1909 47.3547L25.747 62.993L16.8625 77.0448L21.3048 80.7844L31.4421 65.0328L28.4807 45.7682L21.1909 47.3547Z" fill="#46265C"/>
<path d="M32.8098 12.2873C35.8999 12.2873 38.4049 9.79502 38.4049 6.72069C38.4049 3.64635 35.8999 1.15411 32.8098 1.15411C29.7196 1.15411 27.2146 3.64635 27.2146 6.72069C27.2146 9.79502 29.7196 12.2873 32.8098 12.2873Z" fill="#A0616A"/>
<path d="M28.1387 14.3783C28.1387 14.3783 31.5558 12.1119 35.4285 17.098L36.4537 48.488C36.4537 48.488 33.4922 44.4084 27.3414 48.2614C21.1907 52.1143 19.8238 47.8081 19.8238 47.8081C19.8238 47.8081 15.4955 15.3982 28.1387 14.3783Z" fill="#CCCCCC"/>
<path d="M35.1529 17.0188C36.1357 17.0717 37.0641 17.4843 37.7596 18.1771C38.455 18.87 38.8684 19.7943 38.9201 20.7721L39.6429 34.4361L44.4269 47.3548L41.6932 49.6212L32.8088 34.2095L30.9898 21.5417C30.9064 20.9611 30.9535 20.3693 31.1276 19.809C31.3017 19.2486 31.5985 18.7336 31.9966 18.3011C32.3947 17.8686 32.8843 17.5292 33.4301 17.3075C33.9759 17.0858 34.5642 16.9872 35.1529 17.0188Z" fill="#CCCCCC"/>
<path d="M28.6984 10.8961C29.6131 11.8655 31.3118 11.3451 31.431 10.0208C31.4404 9.91796 31.4397 9.81449 31.429 9.7118C31.3675 9.12519 31.0268 8.59262 31.1084 7.97325C31.1269 7.81909 31.1846 7.67219 31.2761 7.54645C32.005 6.57537 33.7161 7.98079 34.404 7.1017C34.8258 6.56267 34.33 5.71398 34.6537 5.11152C35.0809 4.31637 36.3463 4.70862 37.1398 4.27315C38.0228 3.78864 37.9699 2.44092 37.3888 1.62116C36.68 0.621444 35.4372 0.087983 34.21 0.0110945C32.9827 -0.0657939 31.7639 0.264274 30.6181 0.708507C29.3163 1.21324 28.0254 1.9108 27.2243 3.04964C26.2501 4.43459 26.1563 6.29652 26.6435 7.91595C26.9399 8.90107 27.9515 10.1045 28.6984 10.8961Z" fill="#46265C"/>
<path d="M147.729 116.904H0.27119C0.199387 116.904 0.130595 116.875 0.0798959 116.825C0.0291972 116.774 0.000732422 116.705 0.000732422 116.634C0.000732422 116.563 0.0291972 116.494 0.0798959 116.443C0.130595 116.393 0.199387 116.364 0.27119 116.364H147.729C147.8 116.364 147.869 116.393 147.92 116.443C147.971 116.494 147.999 116.563 147.999 116.634C147.999 116.705 147.971 116.774 147.92 116.825C147.869 116.875 147.8 116.904 147.729 116.904Z" fill="#46265C"/>
</g>
<defs>
<clipPath id="clip0">
<rect width="148" height="117" fill="white"/>
</clipPath>
</defs>
</svg>
