<svg width="163" height="146" viewBox="0 0 163 146" fill="none" xmlns="http://www.w3.org/2000/svg">
<path d="M81.8224 2.04346L30.6687 33.604C30.6687 33.604 30.6687 98.6977 81.8224 134.203C132.976 98.6977 132.976 33.604 132.976 33.604L81.8224 2.04346Z" fill="#46265C"/>
<path opacity="0.04" d="M82.1278 2.04346L81.2534 2.58295V133.588C81.5438 133.794 81.8341 133.999 82.1278 134.203C133.282 98.6977 133.282 33.604 133.282 33.604L82.1278 2.04346Z" fill="#C83B4C"/>
<g opacity="0.7">
<path opacity="0.7" d="M69.4383 65.9976L79.0815 74.8601L91.0359 57.5702L95.8576 61.5987L79.0815 82.9171L65.4202 67.609L69.4383 65.9976Z" fill="url(#paint0_linear)"/>
</g>
<path d="M71.7143 66.53L79.5367 73.7191L90.6186 57.38L94.5299 60.6479L79.5367 80.2548L68.4548 67.8372L71.7143 66.53Z" fill="#FBF8CA"/>
<path opacity="0.5" d="M31.3501 9.11922C31.1933 9.05075 31.0671 8.92686 30.9954 8.77114C30.9238 8.61542 30.9118 8.43874 30.9617 8.27473C30.9698 8.24958 30.9749 8.22357 30.9769 8.19723C30.9815 8.12209 30.9618 8.04747 30.9207 7.98442C30.8797 7.92138 30.8195 7.87327 30.749 7.84721C30.6786 7.82116 30.6016 7.81855 30.5296 7.83976C30.4575 7.86098 30.3942 7.9049 30.349 7.96501C30.3335 7.98634 30.3205 8.00943 30.3103 8.03381C30.242 8.19102 30.1185 8.31757 29.9632 8.38936C29.8078 8.46115 29.6316 8.47318 29.468 8.42316C29.4429 8.41506 29.417 8.40996 29.3907 8.40796C29.3158 8.40339 29.2414 8.42314 29.1785 8.46429C29.1156 8.50544 29.0676 8.5658 29.0416 8.63643C29.0156 8.70706 29.013 8.78421 29.0342 8.85644C29.0553 8.92867 29.0992 8.99215 29.1591 9.03747C29.1804 9.05306 29.2034 9.06607 29.2277 9.07624C29.3845 9.14471 29.5108 9.2686 29.5824 9.42432C29.654 9.58004 29.666 9.75672 29.6161 9.92073C29.608 9.94588 29.6029 9.97189 29.6009 9.99823C29.5964 10.0734 29.6161 10.148 29.6571 10.211C29.6981 10.2741 29.7583 10.3222 29.8288 10.3482C29.8992 10.3743 29.9762 10.3769 30.0482 10.3557C30.1203 10.3345 30.1836 10.2906 30.2288 10.2305C30.2443 10.2091 30.2573 10.186 30.2675 10.1617C30.3358 10.0044 30.4593 9.87789 30.6146 9.8061C30.77 9.73431 30.9462 9.72228 31.1098 9.77231C31.1349 9.7804 31.1608 9.7855 31.1871 9.7875C31.262 9.79207 31.3365 9.77232 31.3993 9.73117C31.4622 9.69002 31.5102 9.62966 31.5362 9.55903C31.5622 9.4884 31.5648 9.41126 31.5436 9.33902C31.5225 9.26679 31.4787 9.20332 31.4187 9.15799C31.3974 9.14241 31.3744 9.12939 31.3501 9.11922Z" fill="#4D8AF0"/>
<path opacity="0.5" d="M3.65868 70.9205C3.50187 70.852 3.37565 70.7281 3.30405 70.5724C3.23244 70.4167 3.22044 70.24 3.27034 70.076C3.27841 70.0509 3.2835 70.0248 3.28549 69.9985C3.29005 69.9234 3.27036 69.8487 3.22931 69.7857C3.18827 69.7227 3.12806 69.6745 3.05761 69.6485C2.98716 69.6224 2.91022 69.6198 2.83817 69.641C2.76613 69.6622 2.70281 69.7062 2.65761 69.7663C2.64206 69.7876 2.62908 69.8107 2.61894 69.8351C2.55064 69.9923 2.42708 70.1188 2.27176 70.1906C2.11644 70.2624 1.94021 70.2745 1.77662 70.2244C1.75154 70.2163 1.7256 70.2112 1.69933 70.2092C1.62437 70.2047 1.54995 70.2244 1.48707 70.2656C1.42419 70.3067 1.3762 70.3671 1.35021 70.4377C1.32422 70.5083 1.32162 70.5855 1.34278 70.6577C1.36394 70.7299 1.40775 70.7934 1.46771 70.8387C1.48898 70.8543 1.51201 70.8673 1.53633 70.8775C1.69313 70.946 1.81935 71.0699 1.89096 71.2256C1.96257 71.3813 1.97456 71.558 1.92467 71.722C1.91659 71.7471 1.91151 71.7732 1.90951 71.7995C1.90495 71.8746 1.92465 71.9493 1.96569 72.0123C2.00674 72.0754 2.06694 72.1235 2.13739 72.1495C2.20784 72.1756 2.28479 72.1782 2.35683 72.157C2.42888 72.1357 2.49219 72.0918 2.5374 72.0317C2.55294 72.0104 2.56592 71.9873 2.57607 71.9629C2.64436 71.8057 2.76793 71.6792 2.92325 71.6074C3.07857 71.5356 3.25479 71.5235 3.41838 71.5736C3.44346 71.5817 3.46941 71.5868 3.49568 71.5888C3.57063 71.5933 3.64506 71.5736 3.70794 71.5324C3.77082 71.4913 3.8188 71.4309 3.84479 71.3603C3.87078 71.2897 3.87338 71.2125 3.85222 71.1403C3.83106 71.0681 3.78726 71.0046 3.7273 70.9593C3.70602 70.9437 3.68299 70.9307 3.65868 70.9205Z" fill="#4D8AF0"/>
<path opacity="0.5" d="M141.947 49.441C142.575 49.441 143.085 48.9301 143.085 48.3C143.085 47.6699 142.575 47.1591 141.947 47.1591C141.318 47.1591 140.809 47.6699 140.809 48.3C140.809 48.9301 141.318 49.441 141.947 49.441Z" fill="#F55F44"/>
<path opacity="0.5" d="M23.0255 131.019C23.654 131.019 24.1635 130.508 24.1635 129.878C24.1635 129.248 23.654 128.737 23.0255 128.737C22.397 128.737 21.8875 129.248 21.8875 129.878C21.8875 130.508 22.397 131.019 23.0255 131.019Z" fill="#F55F44"/>
<path opacity="0.5" d="M161.293 93.3674C161.922 93.3674 162.431 92.8566 162.431 92.2265C162.431 91.5964 161.922 91.0856 161.293 91.0856C160.665 91.0856 160.155 91.5964 160.155 92.2265C160.155 92.8566 160.665 93.3674 161.293 93.3674Z" fill="#F55F44"/>
<path opacity="0.5" d="M133.581 14.6339C133.424 14.5654 133.298 14.4415 133.226 14.2858C133.155 14.1301 133.143 13.9534 133.192 13.7894C133.201 13.7642 133.206 13.7382 133.208 13.7119C133.212 13.6367 133.192 13.5621 133.151 13.4991C133.11 13.436 133.05 13.3879 132.98 13.3619C132.909 13.3358 132.832 13.3332 132.76 13.3544C132.688 13.3756 132.625 13.4195 132.58 13.4797C132.564 13.501 132.551 13.5241 132.541 13.5485C132.473 13.7057 132.349 13.8322 132.194 13.904C132.039 13.9758 131.862 13.9878 131.699 13.9378C131.674 13.9297 131.648 13.9246 131.621 13.9226C131.546 13.918 131.472 13.9378 131.409 13.9789C131.346 14.0201 131.298 14.0804 131.272 14.1511C131.246 14.2217 131.244 14.2989 131.265 14.3711C131.286 14.4433 131.33 14.5068 131.39 14.5521C131.411 14.5677 131.434 14.5807 131.458 14.5909C131.615 14.6594 131.741 14.7832 131.813 14.939C131.885 15.0947 131.897 15.2714 131.847 15.4354C131.839 15.4605 131.834 15.4865 131.832 15.5129C131.827 15.588 131.847 15.6626 131.888 15.7257C131.929 15.7887 131.989 15.8368 132.06 15.8629C132.13 15.889 132.207 15.8916 132.279 15.8703C132.351 15.8491 132.414 15.8052 132.46 15.7451C132.475 15.7238 132.488 15.7007 132.498 15.6763C132.566 15.5191 132.69 15.3925 132.845 15.3208C133.001 15.249 133.177 15.2369 133.34 15.287C133.366 15.2951 133.392 15.3001 133.418 15.3021C133.493 15.3067 133.567 15.287 133.63 15.2458C133.693 15.2047 133.741 15.1443 133.767 15.0737C133.793 15.0031 133.795 14.9259 133.774 14.8537C133.753 14.7814 133.709 14.718 133.649 14.6726C133.628 14.6571 133.605 14.644 133.581 14.6339Z" fill="#4D8AF0"/>
<path opacity="0.5" d="M152.548 134.053C152.391 133.984 152.265 133.861 152.193 133.705C152.121 133.549 152.109 133.372 152.159 133.208C152.167 133.183 152.172 133.157 152.174 133.131C152.179 133.056 152.159 132.981 152.118 132.918C152.077 132.855 152.017 132.807 151.947 132.781C151.876 132.755 151.799 132.752 151.727 132.773C151.655 132.795 151.592 132.839 151.547 132.899C151.531 132.92 151.518 132.943 151.508 132.968C151.44 133.125 151.316 133.251 151.161 133.323C151.005 133.395 150.829 133.407 150.666 133.357C150.64 133.349 150.615 133.344 150.588 133.342C150.513 133.337 150.439 133.357 150.376 133.398C150.313 133.439 150.265 133.5 150.239 133.57C150.213 133.641 150.211 133.718 150.232 133.79C150.253 133.862 150.297 133.926 150.357 133.971C150.378 133.987 150.401 134 150.425 134.01C150.582 134.078 150.708 134.202 150.78 134.358C150.851 134.514 150.863 134.69 150.814 134.854C150.806 134.88 150.8 134.906 150.798 134.932C150.794 135.007 150.814 135.082 150.855 135.145C150.896 135.208 150.956 135.256 151.026 135.282C151.097 135.308 151.174 135.311 151.246 135.289C151.318 135.268 151.381 135.224 151.426 135.164C151.442 135.143 151.455 135.12 151.465 135.095C151.533 134.938 151.657 134.812 151.812 134.74C151.967 134.668 152.144 134.656 152.307 134.706C152.332 134.714 152.358 134.719 152.385 134.721C152.46 134.726 152.534 134.706 152.597 134.665C152.66 134.624 152.708 134.563 152.734 134.493C152.76 134.422 152.762 134.345 152.741 134.273C152.72 134.201 152.676 134.137 152.616 134.092C152.595 134.076 152.572 134.063 152.548 134.053Z" fill="#4D8AF0"/>
<path opacity="0.5" d="M2.33104 34.7906C2.17423 34.7221 2.04802 34.5983 1.97641 34.4425C1.9048 34.2868 1.8928 34.1101 1.9427 33.9461C1.95078 33.921 1.95586 33.895 1.95786 33.8686C1.96242 33.7935 1.94272 33.7189 1.90168 33.6558C1.86063 33.5928 1.80043 33.5447 1.72998 33.5186C1.65953 33.4925 1.58258 33.4899 1.51054 33.5112C1.43849 33.5324 1.37518 33.5763 1.32997 33.6364C1.31443 33.6577 1.30145 33.6808 1.2913 33.7052C1.22301 33.8624 1.09944 33.989 0.944121 34.0607C0.788802 34.1325 0.612575 34.1446 0.448984 34.0945C0.423904 34.0864 0.397961 34.0813 0.371689 34.0793C0.296738 34.0748 0.22231 34.0945 0.15943 34.1357C0.0965503 34.1768 0.0485621 34.2372 0.0225742 34.3078C-0.00341381 34.3785 -0.00601999 34.4556 0.0151421 34.5278C0.0363042 34.6001 0.0801098 34.6635 0.140069 34.7089C0.161342 34.7244 0.184375 34.7375 0.20869 34.7476C0.365496 34.8161 0.491716 34.94 0.563324 35.0957C0.634932 35.2514 0.646927 35.4281 0.597029 35.5921C0.588955 35.6173 0.583869 35.6433 0.581875 35.6696C0.577313 35.7448 0.597012 35.8194 0.638056 35.8824C0.679099 35.9455 0.739304 35.9936 0.809753 36.0196C0.880203 36.0457 0.957149 36.0483 1.0292 36.0271C1.10124 36.0059 1.16456 35.962 1.20976 35.9018C1.22531 35.8805 1.23829 35.8574 1.24843 35.833C1.31673 35.6758 1.44029 35.5493 1.59561 35.4775C1.75093 35.4057 1.92716 35.3937 2.09075 35.4437C2.11583 35.4518 2.14177 35.4569 2.16804 35.4589C2.24299 35.4635 2.31742 35.4437 2.3803 35.4026C2.44318 35.3614 2.49117 35.3011 2.51715 35.2304C2.54314 35.1598 2.54575 35.0826 2.52459 35.0104C2.50342 34.9382 2.45962 34.8747 2.39966 34.8294C2.37839 34.8138 2.35536 34.8008 2.33104 34.7906Z" fill="#4D8AF0"/>
<path opacity="0.5" d="M15.0594 55.1458C15.6879 55.1458 16.1974 54.635 16.1974 54.0048C16.1974 53.3747 15.6879 52.8639 15.0594 52.8639C14.4309 52.8639 13.9214 53.3747 13.9214 54.0048C13.9214 54.635 14.4309 55.1458 15.0594 55.1458Z" fill="#FBF8CA"/>
<path opacity="0.5" d="M161.862 64.2732C162.491 64.2732 163 63.7624 163 63.1323C163 62.5022 162.491 61.9913 161.862 61.9913C161.234 61.9913 160.724 62.5022 160.724 63.1323C160.724 63.7624 161.234 64.2732 161.862 64.2732Z" fill="#FBF8CA"/>
<g opacity="0.5">
<path opacity="0.5" d="M111.221 0H110.652V3.23268H111.221V0Z" fill="#FBF8CA"/>
<path opacity="0.5" d="M112.549 1.90153V1.33105L109.324 1.33105V1.90153L112.549 1.90153Z" fill="#FBF8CA"/>
</g>
<g opacity="0.5">
<path opacity="0.5" d="M113.307 126.645H112.738V129.878H113.307V126.645Z" fill="#FBF8CA"/>
<path opacity="0.5" d="M114.635 128.547V127.976H111.41V128.547H114.635Z" fill="#FBF8CA"/>
</g>
<g opacity="0.5">
<path opacity="0.5" d="M5.57608 133.491H5.00708V136.723H5.57608V133.491Z" fill="#FBF8CA"/>
<path opacity="0.5" d="M6.90381 135.392V134.822H3.67946V135.392H6.90381Z" fill="#FBF8CA"/>
</g>
<g opacity="0.5">
<path opacity="0.5" d="M135.119 75.3025H134.55V78.5351H135.119V75.3025Z" fill="#FBF8CA"/>
<path opacity="0.5" d="M136.447 77.2041V76.6337H133.222V77.2041H136.447Z" fill="#FBF8CA"/>
</g>
<path opacity="0.5" d="M150.901 23.3929L152.123 24.5159L153.854 21.9633L154.465 22.4738L152.123 25.5371L150.391 23.5971L150.901 23.3929Z" fill="#FBF8CA"/>
<path d="M116.014 45.4993L111.798 45.6632L112.009 51.0971L116.224 50.9332L116.014 45.4993Z" fill="#C83B4C"/>
<path d="M96.9977 64.5301C96.9977 64.5301 91.1599 61.7336 91.2533 64.1487C91.3467 66.5638 97.1378 68.1527 97.1378 68.1527L96.9977 64.5301Z" fill="#FFB9B9"/>
<path d="M100.201 84.9645C100.201 84.9645 97.4464 91.723 96.4288 96.5999C95.4112 101.477 93.8615 108.189 95.8549 112.948C97.8484 117.708 103.516 131.698 103.574 133.207C103.633 134.717 103.089 136.25 104.293 136.203C105.498 136.156 112.052 134.087 112.318 133.17C112.584 132.252 110.082 129.931 110.082 129.931L103.903 110.519L110.35 97.8727L115 116.739L115.91 140.286C115.91 140.286 120.38 138.903 121.029 140.087C121.029 140.087 123.032 137.288 123.286 136.069C123.541 134.85 122.341 111.616 122.341 111.616C122.341 111.616 126.443 85.1535 123.131 85.2823C119.819 85.4111 106.846 77.45 100.201 84.9645Z" fill="#C83B4C"/>
<path d="M104.247 134.995C104.247 134.995 101.191 141.766 100.902 142.079C100.612 142.393 98.6214 145.494 100.127 145.435C101.632 145.376 105.187 143.727 107.804 141.206C110.42 138.686 113.87 134.319 113.557 134.029C113.245 133.738 111.102 132.915 111.102 132.915L104.247 134.995Z" fill="#575A89"/>
<path d="M116.454 138.753C116.454 138.753 116.27 141.784 115.714 143.015C115.159 144.246 115.229 146.057 116.735 145.999C118.24 145.94 122.131 145.184 122.131 145.184C122.131 145.184 122.362 143.361 122.049 143.071C121.737 142.781 120.404 139.507 120.971 138.578C121.538 137.649 116.454 138.753 116.454 138.753Z" fill="#575A89"/>
<path d="M118.682 40.4071C118.682 40.4071 121.891 45.4221 123.142 46.5828C124.393 47.7435 120.873 50.299 120.873 50.299L114.574 51.1486C114.574 51.1486 114.653 45.4011 114.328 44.8091C114.004 44.217 118.682 40.4071 118.682 40.4071Z" fill="#FFB9B9"/>
<path d="M113.206 46.9691C113.206 46.9691 114.503 49.3373 115.708 49.2905C116.912 49.2437 123.142 46.5828 123.408 45.6654C123.674 44.7481 125.472 52.2366 125.472 52.2366L110.228 79.1326L106.51 76.5562L108.311 60.7646L109.791 52.2416L113.206 46.9691Z" fill="#C83B4C"/>
<path d="M123.971 71.0399C123.362 72.3152 122.983 73.6451 123.035 75.0066C123.038 75.067 123.04 75.1274 123.045 75.1876C123.19 77.9817 124.216 81.213 124.585 83.563C124.852 85.2487 124.776 86.4792 123.792 86.7684C121.406 87.4658 124.14 87.9642 114.91 91.0441C105.681 94.1239 104.071 91.4655 104.047 90.8617C104.024 90.258 105.354 85.6712 105.042 85.381C104.729 85.0908 100.665 89.1792 99.4373 88.6223C98.2095 88.0653 99.2972 84.9996 99.2972 84.9996C99.2972 84.9996 102.063 78.543 102.005 77.0336C101.946 75.5242 106.194 68.4053 106.194 68.4053L109.084 49.548C109.084 49.548 110.195 47.0861 111.689 46.7257C113.182 46.3653 114.422 47.2241 114.422 47.2241L111.922 52.7634L109.285 62.5407L109.726 66.1516C109.726 66.1516 112.793 59.6833 114.807 57.1863C116.821 54.6892 121.116 48.7779 121.116 48.7779C121.116 48.7779 122.119 45.386 121.362 44.3723C120.605 43.3557 124.519 43.2035 126.188 47.3713C127.073 49.5803 128.509 52.8743 129.409 55.9413C130.21 58.6584 130.589 61.1984 129.795 62.6503C128.581 64.8683 125.527 67.7836 123.971 71.0399Z" fill="#575A89"/>
<path opacity="0.1" d="M129.795 62.6503C128.581 64.8683 125.527 67.7836 123.971 71.0399C123.564 69.5712 123.068 68.0516 123.068 68.0516C123.068 68.0516 121.165 57.8461 126.793 55.2086C127.725 55.1182 128.658 55.3794 129.409 55.9413C130.21 58.6584 130.589 61.1984 129.795 62.6503Z" fill="#46265C"/>
<path d="M107.455 62.0072L102.684 63.402L96.0594 63.6596L95.3779 69.4305L106.264 70.2166C106.264 70.2166 108.984 62.5524 107.455 62.0072Z" fill="#575A89"/>
<path d="M115.234 81.4108C115.234 81.4108 108.852 82.4724 110.308 84.3981C111.765 86.3238 117.419 84.2993 117.419 84.2993L115.234 81.4108Z" fill="#FFB9B9"/>
<path opacity="0.1" d="M123.045 75.1876C123.19 77.9817 124.216 81.213 124.585 83.563C122.551 85.4924 120.618 87.1941 119.889 87.2224C118.384 87.281 115.963 87.0727 115.072 87.4097C114.18 87.7468 113.657 82.0227 113.657 82.0227C113.657 82.0227 114.189 80.1879 116.563 79.1886C118.165 78.5126 121.237 76.6789 123.045 75.1876Z" fill="#46265C"/>
<path d="M126.723 53.3973C126.723 53.3973 131.818 52.5945 131.543 61.0707C131.268 69.5468 132.08 74.9573 130.031 76.5487C127.982 78.1401 121.325 85.3526 119.819 85.4112C118.314 85.4697 115.893 85.2615 115.002 85.5985C114.11 85.9355 113.587 80.2114 113.587 80.2114C113.587 80.2114 114.119 78.3767 116.493 77.3774C118.867 76.3781 124.459 72.8349 124.413 71.6274C124.366 70.4199 122.998 66.2403 122.998 66.2403C122.998 66.2403 121.095 56.0348 126.723 53.3973Z" fill="#575A89"/>
<path d="M114.188 47.8329C117.85 47.8329 120.818 44.8572 120.818 41.1865C120.818 37.5158 117.85 34.54 114.188 34.54C110.527 34.54 107.559 37.5158 107.559 41.1865C107.559 44.8572 110.527 47.8329 114.188 47.8329Z" fill="#FFB9B9"/>
<path d="M109.725 31.6602C109.565 31.7983 109.373 31.8946 109.167 31.9406C109.064 31.9591 108.957 31.9358 108.871 31.8758C108.785 31.8159 108.725 31.7241 108.706 31.6205C108.555 31.9359 108.384 32.272 108.074 32.4338C107.764 32.5956 107.285 32.4599 107.241 32.1127C107.196 32.3763 107.079 32.6225 106.904 32.8246C106.712 33.0083 106.364 33.0546 106.196 32.8483C106.332 33.5914 106.248 34.3555 106.291 35.1097C106.333 35.8638 106.534 36.6633 107.102 37.1593C107.931 37.8825 109.177 37.704 110.267 37.567C110.432 37.5323 110.603 37.5417 110.763 37.5942C111.172 37.7686 111.153 38.3383 111.159 38.7831C111.192 39.5636 111.5 40.3071 112.028 40.8814C112.557 41.4557 113.271 41.8238 114.044 41.9203C114.477 41.9872 114.918 41.8792 115.272 41.6199C115.581 41.3568 115.739 40.9281 116.094 40.7305C116.671 40.409 117.371 40.8778 117.793 41.3868C118.214 41.8958 118.63 42.5219 119.284 42.6151C120.148 42.7383 120.806 41.8552 121.129 41.0421C121.575 39.9024 121.788 38.6848 121.757 37.4611C121.726 36.2373 121.451 35.0323 120.947 33.9169C119.143 29.9728 112.978 29.349 109.725 31.6602Z" fill="#46265C"/>
<defs>
<linearGradient id="paint0_linear" x1="65.4201" y1="70.2437" x2="95.8576" y2="70.2437" gradientUnits="userSpaceOnUse">
<stop stop-color="#808080" stop-opacity="0.25"/>
<stop offset="0.53514" stop-color="#808080" stop-opacity="0.12"/>
<stop offset="1" stop-color="#808080" stop-opacity="0.1"/>
</linearGradient>
</defs>
</svg>
