<svg width="37" height="37" viewBox="0 0 37 37" fill="none" xmlns="http://www.w3.org/2000/svg">
<path d="M7.51562 3.46875C5.28442 3.46875 3.46875 5.28442 3.46875 7.51562V29.4844C3.46875 31.7156 5.28442 33.5312 7.51562 33.5312H29.4844C31.7156 33.5312 33.5312 31.7156 33.5312 29.4844V7.51562C33.5312 5.28442 31.7156 3.46875 29.4844 3.46875H7.51562ZM7.51562 4.625H29.4844C31.0787 4.625 32.375 5.92126 32.375 7.51562V29.4844C32.375 31.0787 31.0787 32.375 29.4844 32.375H7.51562C5.92126 32.375 4.625 31.0787 4.625 29.4844V7.51562C4.625 5.92126 5.92126 4.625 7.51562 4.625ZM6.9375 6.9375C6.61908 6.9375 6.35938 7.19495 6.35938 7.51562V8.67188C6.35938 8.99255 6.61908 9.25 6.9375 9.25C7.25592 9.25 7.51562 8.99255 7.51562 8.67188V7.51562C7.51562 7.19495 7.25592 6.9375 6.9375 6.9375ZM9.82812 6.9375C9.5097 6.9375 9.25 7.19495 9.25 7.51562V8.67188C9.25 8.99255 9.5097 9.25 9.82812 9.25C10.1465 9.25 10.4062 8.99255 10.4062 8.67188V7.51562C10.4062 7.19495 10.1465 6.9375 9.82812 6.9375ZM12.7188 6.9375C12.4003 6.9375 12.1406 7.19495 12.1406 7.51562V8.67188C12.1406 8.99255 12.4003 9.25 12.7188 9.25C13.0372 9.25 13.2969 8.99255 13.2969 8.67188V7.51562C13.2969 7.19495 13.0372 6.9375 12.7188 6.9375ZM15.6094 6.9375C15.291 6.9375 15.0312 7.19495 15.0312 7.51562V8.67188C15.0312 8.99255 15.291 9.25 15.6094 9.25C15.9278 9.25 16.1875 8.99255 16.1875 8.67188V7.51562C16.1875 7.19495 15.9278 6.9375 15.6094 6.9375ZM18.5 6.9375C18.1816 6.9375 17.9219 7.19495 17.9219 7.51562V8.67188C17.9219 8.99255 18.1816 9.25 18.5 9.25C18.8184 9.25 19.0781 8.99255 19.0781 8.67188V7.51562C19.0781 7.19495 18.8184 6.9375 18.5 6.9375ZM21.3906 6.9375C21.0722 6.9375 20.8125 7.19495 20.8125 7.51562V8.67188C20.8125 8.99255 21.0722 9.25 21.3906 9.25C21.709 9.25 21.9688 8.99255 21.9688 8.67188V7.51562C21.9688 7.19495 21.709 6.9375 21.3906 6.9375ZM24.2812 6.9375C23.9628 6.9375 23.7031 7.19495 23.7031 7.51562V8.67188C23.7031 8.99255 23.9628 9.25 24.2812 9.25C24.5997 9.25 24.8594 8.99255 24.8594 8.67188V7.51562C24.8594 7.19495 24.5997 6.9375 24.2812 6.9375ZM27.1719 6.9375C26.8535 6.9375 26.5938 7.19495 26.5938 7.51562V8.67188C26.5938 8.99255 26.8535 9.25 27.1719 9.25C27.4903 9.25 27.75 8.99255 27.75 8.67188V7.51562C27.75 7.19495 27.4903 6.9375 27.1719 6.9375ZM30.0625 6.9375C29.7441 6.9375 29.4844 7.19495 29.4844 7.51562V8.67188C29.4844 8.99255 29.7441 9.25 30.0625 9.25C30.3809 9.25 30.6406 8.99255 30.6406 8.67188V7.51562C30.6406 7.19495 30.3809 6.9375 30.0625 6.9375ZM22.8088 12.0232C20.3202 12.0232 18.2945 14.0466 18.2945 16.5353C18.2945 16.655 18.299 16.7747 18.308 16.8921C15.4761 16.585 12.8542 15.169 11.0408 12.9423C10.937 12.8136 10.7744 12.7436 10.6072 12.7549C10.4424 12.7684 10.2933 12.8633 10.2098 13.0078C9.81006 13.6943 9.59778 14.478 9.59778 15.2751C9.59778 16.1243 9.8349 16.9395 10.264 17.6418C10.1194 17.5809 9.95685 17.5922 9.81909 17.6712C9.66553 17.7593 9.56842 17.9241 9.56616 18.1025V18.159C9.56616 19.5704 10.2256 20.8577 11.2734 21.6932C11.2057 21.7226 11.147 21.7655 11.0973 21.822C10.9799 21.9552 10.9392 22.1426 10.9934 22.312C11.4428 23.7122 12.5313 24.7758 13.8773 25.2207C12.7729 25.8282 11.5354 26.1466 10.2437 26.1466C9.93652 26.1466 9.63617 26.1285 9.34937 26.0947C9.11224 26.0653 8.89093 26.2031 8.80963 26.4266C8.73059 26.6502 8.81641 26.8964 9.01514 27.0251C10.9324 28.2559 13.1501 28.9062 15.4287 28.9062C19.9069 28.9062 22.7095 26.7925 24.2722 25.0197C26.2189 22.8111 27.3345 19.8889 27.3345 17.0005C27.3345 16.9102 27.3345 16.8198 27.3322 16.7295C28.0729 16.1604 28.7143 15.4739 29.2382 14.688C29.3647 14.5028 29.3511 14.2544 29.2043 14.0828C29.0598 13.9089 28.8159 13.8524 28.6104 13.945C28.4794 14.0015 28.3484 14.0557 28.213 14.1076C28.4456 13.7598 28.6307 13.3782 28.7595 12.9762C28.8227 12.7752 28.7572 12.5562 28.5923 12.4252C28.4275 12.2942 28.1994 12.2784 28.0187 12.3845C27.3571 12.7797 26.6434 13.0643 25.8959 13.2404C25.0626 12.4613 23.9538 12.0232 22.8088 12.0232ZM22.8088 13.0372C23.7731 13.0372 24.7036 13.4391 25.363 14.1437C25.4827 14.2702 25.6588 14.3267 25.8327 14.2928C26.246 14.2115 26.6502 14.0986 27.0454 13.9586C26.8173 14.2092 26.5508 14.426 26.255 14.6044C26.0495 14.7264 25.9592 14.9771 26.0359 15.2029C26.1127 15.4287 26.3386 15.571 26.5757 15.5439C26.8196 15.5123 27.0612 15.4739 27.3006 15.4242C27.0544 15.6568 26.7947 15.8713 26.5192 16.0701C26.3815 16.1694 26.3024 16.332 26.3092 16.5037C26.316 16.6685 26.3228 16.8334 26.3228 17.0005C26.3228 23.8183 20.7831 27.8923 15.4287 27.8923C14.0173 27.8923 12.6307 27.619 11.3367 27.0928C12.8678 26.9009 14.2996 26.3047 15.5303 25.3381C15.6997 25.2072 15.7675 24.9836 15.6997 24.7781C15.632 24.5748 15.4423 24.4371 15.23 24.4326C14.0037 24.41 12.9039 23.7528 12.2919 22.7366C12.6736 22.7298 13.0507 22.6779 13.4188 22.5785C13.6469 22.5175 13.8005 22.3075 13.7937 22.0726C13.7847 21.8378 13.6153 21.6368 13.3849 21.5916C12.0209 21.3161 10.9686 20.257 10.6682 18.9155C11.0566 19.0375 11.4631 19.1052 11.8696 19.1165C12.0977 19.1346 12.301 18.981 12.3687 18.7665C12.4387 18.5519 12.3574 18.3171 12.1677 18.1906C11.1944 17.538 10.6118 16.4495 10.6118 15.2774C10.6118 14.907 10.6705 14.5389 10.7834 14.1912C12.8859 16.4404 15.7923 17.7999 18.8794 17.9557C19.0443 17.9648 19.191 17.897 19.2949 17.7751C19.3965 17.6531 19.4349 17.4905 19.4011 17.3347C19.3401 17.075 19.3085 16.8063 19.3085 16.5375C19.3085 14.6067 20.878 13.0372 22.8088 13.0372Z" fill="#46265C"/>
</svg>
